<svg width="2100" height="2101" viewBox="0 0 2100 2101" fill="none" xmlns="http://www.w3.org/2000/svg">
<path d="M1050 2100.09C1629.9 2100.09 2100 1629.99 2100 1050.09C2100 470.195 1629.9 0.09375 1050 0.09375C470.101 0.09375 0 470.195 0 1050.09C0 1629.99 470.101 2100.09 1050 2100.09Z" fill="#5F259F"/>
<path d="M1526.56 776.073C1526.56 735.027 1491.36 699.827 1450.32 699.827H1309.55L986.931 330.289C957.608 295.089 910.685 283.366 863.762 295.089L752.315 330.289C734.715 336.166 728.838 359.612 740.592 371.335L1092.53 705.704H558.684C541.084 705.704 529.361 717.427 529.361 735.027V793.674C529.361 834.72 564.561 869.92 605.607 869.92H687.731V1151.49C687.731 1362.66 799.177 1485.86 986.9 1485.86C1045.55 1485.86 1092.5 1479.98 1151.15 1456.53V1644.26C1151.15 1697.06 1192.19 1738.1 1244.99 1738.1H1327.12C1344.72 1738.1 1362.32 1720.5 1362.32 1702.9V864.074H1497.24C1514.84 864.074 1526.56 852.351 1526.56 834.751V776.073ZM1151.15 1280.53C1115.95 1298.13 1069.02 1304.01 1033.82 1304.01C939.977 1304.01 893.054 1257.09 893.054 1151.49V869.92H1151.15V1280.53Z" fill="white"/>
</svg>
