<svg width="1440" height="900" viewBox="0 0 1440 900" fill="none" xmlns="http://www.w3.org/2000/svg">
<g clip-path="url(#clip0)">
<rect width="1440" height="900" fill="white"/>
<path opacity="0.2" fill-rule="evenodd" clip-rule="evenodd" d="M564.111 192.986C675.202 179.124 699.734 175.555 812.619 162.5C923.313 149.699 1065.3 160.908 1179.12 149.686C1314.83 136.306 1463.71 90.3048 1520.54 58.6898C1576.26 27.6999 1527.04 -9.24545 1470.08 -40.1123C1416.39 -69.2057 1332.49 -98.9061 1207.01 -111.216C1080.2 -123.657 926.716 -93.4156 799.913 -105.859C682.592 -117.372 688.644 -168.116 564.111 -174.306C451.097 -179.923 359.31 -150.154 274.168 -131.99C201.932 -116.58 176.436 -92.8687 106.978 -76.7831C26.7637 -58.2064 -156.153 -56.9118 -163.436 -30.647C-171.396 -1.93966 -79.2214 29.9557 -85.1351 58.6898C-94.3318 103.376 -216.599 105.105 -200.55 149.686C-188.31 183.686 -2.03688 204.29 140.581 212.366C282.154 220.383 435.728 209.005 564.111 192.986Z" fill="#FBE77D"/>
<circle cx="410" cy="21" r="5" fill="#E3C392" fill-opacity="0.1"/>
<circle cx="485" cy="21" r="5" fill="#E3C392" fill-opacity="0.1"/>
<circle cx="560" cy="21" r="5" fill="#E3C392" fill-opacity="0.1"/>
<circle cx="635" cy="21" r="5" fill="#E3C392" fill-opacity="0.1"/>
<circle cx="710" cy="21" r="5" fill="#E3C392" fill-opacity="0.1"/>
<circle cx="784" cy="21" r="5" fill="#E3C392" fill-opacity="0.1"/>
<circle cx="859" cy="21" r="5" fill="#E3C392" fill-opacity="0.1"/>
<circle cx="934" cy="21" r="5" fill="#E3C392" fill-opacity="0.1"/>
<circle cx="1009" cy="21" r="5" fill="#E3C392" fill-opacity="0.1"/>
<circle cx="1084" cy="21" r="5" fill="#E3C392" fill-opacity="0.1"/>
<circle cx="1158" cy="21" r="5" fill="#E3C392" fill-opacity="0.1"/>
<circle cx="1233" cy="21" r="5" fill="#E3C392" fill-opacity="0.1"/>
<circle cx="1308" cy="21" r="5" fill="#E3C392" fill-opacity="0.1"/>
<circle cx="1383" cy="21" r="5" fill="#E3C392" fill-opacity="0.1"/>
<circle cx="1158" cy="84" r="5" fill="#E3C392" fill-opacity="0.1"/>
<circle cx="1233" cy="84" r="5" fill="#E3C392" fill-opacity="0.1"/>
<circle cx="1308" cy="84" r="5" fill="#E3C392" fill-opacity="0.1"/>
<circle cx="1383" cy="84" r="5" fill="#E3C392" fill-opacity="0.1"/>
<circle cx="784" cy="84" r="5" fill="#E3C392" fill-opacity="0.1"/>
<circle cx="859" cy="84" r="5" fill="#E3C392" fill-opacity="0.1"/>
<circle cx="934" cy="84" r="5" fill="#E3C392" fill-opacity="0.1"/>
<circle cx="1009" cy="84" r="5" fill="#E3C392" fill-opacity="0.1"/>
<circle cx="1084" cy="84" r="5" fill="#E3C392" fill-opacity="0.1"/>
<circle cx="784" cy="151" r="5" fill="#E3C392" fill-opacity="0.1"/>
<circle cx="859" cy="151" r="5" fill="#E3C392" fill-opacity="0.1"/>
<circle cx="410" cy="84" r="5" fill="#E3C392" fill-opacity="0.1"/>
<circle cx="485" cy="84" r="5" fill="#E3C392" fill-opacity="0.1"/>
<circle cx="560" cy="84" r="5" fill="#E3C392" fill-opacity="0.1"/>
<circle cx="635" cy="84" r="5" fill="#E3C392" fill-opacity="0.1"/>
<circle cx="710" cy="84" r="5" fill="#E3C392" fill-opacity="0.1"/>
<circle cx="1158" cy="52" r="5" fill="#E3C392" fill-opacity="0.1"/>
<circle cx="1233" cy="52" r="5" fill="#E3C392" fill-opacity="0.1"/>
<circle cx="1308" cy="52" r="5" fill="#E3C392" fill-opacity="0.1"/>
<circle cx="1383" cy="52" r="5" fill="#E3C392" fill-opacity="0.1"/>
<circle cx="784" cy="52" r="5" fill="#E3C392" fill-opacity="0.1"/>
<circle cx="859" cy="52" r="5" fill="#E3C392" fill-opacity="0.1"/>
<circle cx="934" cy="52" r="5" fill="#E3C392" fill-opacity="0.1"/>
<circle cx="1009" cy="52" r="5" fill="#E3C392" fill-opacity="0.1"/>
<circle cx="1084" cy="52" r="5" fill="#E3C392" fill-opacity="0.1"/>
<circle cx="410" cy="52" r="5" fill="#E3C392" fill-opacity="0.1"/>
<circle cx="485" cy="52" r="5" fill="#E3C392" fill-opacity="0.1"/>
<circle cx="560" cy="52" r="5" fill="#E3C392" fill-opacity="0.1"/>
<circle cx="635" cy="52" r="5" fill="#E3C392" fill-opacity="0.1"/>
<circle cx="710" cy="52" r="5" fill="#E3C392" fill-opacity="0.1"/>
<circle cx="1158" cy="117" r="5" fill="#E3C392" fill-opacity="0.1"/>
<circle cx="1233" cy="117" r="5" fill="#E3C392" fill-opacity="0.1"/>
<circle cx="1308" cy="117" r="5" fill="#E3C392" fill-opacity="0.1"/>
<circle cx="784" cy="117" r="5" fill="#E3C392" fill-opacity="0.1"/>
<circle cx="859" cy="117" r="5" fill="#E3C392" fill-opacity="0.1"/>
<circle cx="934" cy="117" r="5" fill="#E3C392" fill-opacity="0.1"/>
<circle cx="934" cy="146" r="5" fill="#E3C392" fill-opacity="0.1"/>
<circle cx="1009" cy="117" r="5" fill="#E3C392" fill-opacity="0.1"/>
<circle cx="1084" cy="117" r="5" fill="#E3C392" fill-opacity="0.1"/>
<circle cx="410" cy="117" r="5" fill="#E3C392" fill-opacity="0.1"/>
<circle cx="485" cy="117" r="5" fill="#E3C392" fill-opacity="0.1"/>
<circle cx="560" cy="117" r="5" fill="#E3C392" fill-opacity="0.1"/>
<circle cx="635" cy="117" r="5" fill="#E3C392" fill-opacity="0.1"/>
<circle cx="710" cy="117" r="5" fill="#E3C392" fill-opacity="0.1"/>
<circle cx="410" cy="151" r="5" fill="#E3C392" fill-opacity="0.1"/>
<circle cx="485" cy="151" r="5" fill="#E3C392" fill-opacity="0.1"/>
<circle cx="269" cy="151" r="5" fill="#E3C392" fill-opacity="0.1"/>
<circle cx="344" cy="151" r="5" fill="#E3C392" fill-opacity="0.1"/>
<circle cx="560" cy="151" r="5" fill="#E3C392" fill-opacity="0.1"/>
<circle cx="635" cy="151" r="5" fill="#E3C392" fill-opacity="0.1"/>
<circle cx="710" cy="151" r="5" fill="#E3C392" fill-opacity="0.1"/>
<circle cx="410" cy="185" r="5" fill="#E3C392" fill-opacity="0.1"/>
<circle cx="485" cy="185" r="5" fill="#E3C392" fill-opacity="0.1"/>
<circle cx="269" cy="185" r="5" fill="#E3C392" fill-opacity="0.1"/>
<circle cx="344" cy="185" r="5" fill="#E3C392" fill-opacity="0.1"/>
<circle cx="560" cy="185" r="5" fill="#E3C392" fill-opacity="0.1"/>
</g>
<defs>
<clipPath id="clip0">
<rect width="1440" height="900" fill="white"/>
</clipPath>
</defs>
</svg>
