<svg width="1714" height="101" viewBox="0 0 1714 101" fill="none" xmlns="http://www.w3.org/2000/svg">
<path d="M791.273 0.239624C784.432 1.13962 771.689 5.03962 766.324 7.63962C757.739 12.1396 749.959 21.9396 749.691 28.6396C749.691 33.3396 752.508 38.8396 757.337 42.7396C762.97 47.4396 769.275 48.0396 773.835 44.4396C777.994 41.0396 777.189 38.0396 770.884 33.6396L765.117 29.7396L767.799 26.0396C771.958 20.2396 779.469 17.1396 789.127 17.1396C802.809 17.2396 812.869 22.4396 819.308 32.6396C823.466 39.3396 824.002 48.3396 820.381 53.4396C814.881 61.0396 797.578 67.0396 781.213 67.0396C769.141 66.9396 758.678 64.8396 736.277 58.0396C699.121 46.6396 696.975 46.1396 680.611 46.1396C663.307 46.1396 657.807 47.5396 634.602 57.7396L620.786 63.9396L607.775 58.8396C588.995 51.5396 579.203 49.5396 559.083 48.9396C538.024 48.2396 531.988 49.1396 511.867 56.3396L496.173 61.9396L475.65 54.3396C464.517 50.1396 442.519 41.8396 427.093 35.9396C384.437 19.6396 357.208 12.9396 323.942 10.5396C289.737 7.93962 270.824 13.1396 207.78 42.1396C157.21 65.3396 149.833 67.8396 124.481 69.5396C82.2281 72.4396 44.804 63.6396 10.1968 42.6396C-2.68028 34.8396 -3.61924 36.1396 8.85545 44.6396C41.5847 66.9396 84.106 78.6396 127.432 77.3396C153.455 76.5396 164.588 73.3396 215.023 52.3396C247.216 39.0396 270.421 30.4396 283.567 27.1396C305.565 21.5396 335.209 23.0396 370.353 31.6396C388.193 36.0396 409.923 43.6396 452.31 60.4396L477.662 70.4396L461.029 76.4396C438.226 84.7396 431.922 86.1396 419.045 86.0396C396.376 85.7396 373.841 79.6396 327.832 61.2396C285.176 44.1396 273.372 40.6396 258.215 40.6396C248.557 40.6396 239.034 43.6396 230.851 49.1396C223.071 54.3396 220.791 59.5396 221.462 70.4396C222.132 80.3396 225.352 86.0396 233.534 91.2396C239.838 95.1396 253.252 99.6396 261.032 100.24C279.543 101.94 298.054 93.5396 299.931 82.6396C300.87 77.5396 299.797 74.4396 295.505 70.7396C291.347 67.0396 286.652 66.7396 283.701 69.8396C280.75 72.9396 280.884 73.3396 285.847 76.6396C289.603 79.2396 289.871 79.8396 288.53 82.1396C287.725 83.5396 285.042 85.5396 282.628 86.7396C276.86 89.3396 266.397 88.9396 260.361 85.8396C255.264 83.0396 249.362 74.4396 249.362 69.6396C249.362 62.3396 259.154 55.6396 269.617 55.6396C278.738 55.6396 292.822 59.8396 327.161 72.7396C372.768 89.9396 396.376 95.6396 420.923 95.6396C426.69 95.6396 434.604 94.9396 438.629 94.0396C446.811 92.2396 467.736 84.5396 480.882 78.5396L489.735 74.5396L502.075 78.0396C526.89 85.0396 547.681 88.6396 569.412 89.3396C591.678 90.1396 608.848 87.0396 639.028 76.6396C665.185 67.6396 677.794 65.1396 690.403 66.6396C700.06 67.8396 699.792 67.7396 729.973 76.7396C769.811 88.6396 788.725 91.3396 809.382 88.2396C823.198 86.1396 840.099 80.0396 849.488 73.5396L857 68.4396L864.512 73.5396C873.901 80.0396 890.802 86.1396 904.618 88.2396C925.275 91.3396 944.189 88.6396 984.027 76.7396C1014.21 67.7396 1013.94 67.8396 1023.6 66.6396C1032.85 65.5396 1043.99 66.9396 1057.13 70.8396C1066.25 73.5396 1067.46 74.1396 1065.98 75.5396C1064.51 76.9396 1064.51 76.9396 1066.39 75.8396C1068.26 74.8396 1071.22 75.4396 1084.36 79.6396C1109.71 87.7396 1117.49 89.1396 1139.36 89.1396C1162.97 89.1396 1183.89 86.0396 1208.71 78.9396L1217.56 76.4396L1225.47 79.9396C1237.68 85.4396 1256.73 92.2396 1264.64 94.0396C1268.66 94.9396 1276.58 95.6396 1282.35 95.6396C1306.89 95.6396 1330.37 89.9396 1376.11 72.7396C1410.45 59.8396 1424.53 55.6396 1433.65 55.6396C1444.12 55.6396 1453.91 62.3396 1453.91 69.6396C1453.91 74.4396 1448.01 83.0396 1442.91 85.8396C1436.87 88.9396 1426.41 89.3396 1420.64 86.7396C1418.23 85.5396 1415.54 83.5396 1414.74 82.1396C1413.4 79.8396 1413.67 79.2396 1417.42 76.6396C1422.39 73.3396 1422.52 72.9396 1419.57 69.8396C1413.93 63.8396 1402.94 71.1396 1402.94 80.9396C1402.94 89.1396 1414.07 97.4396 1428.29 99.7396C1438.48 101.34 1447.6 100.24 1458.87 96.1396C1475.5 90.0396 1482.08 81.7396 1482.08 67.2396C1482.08 58.6396 1479.26 53.4396 1472.02 48.7396C1463.97 43.4396 1454.58 40.6396 1445.05 40.6396C1430.17 40.6396 1417.69 44.2396 1377.58 60.3396C1334.53 77.6396 1315.21 83.4396 1292.27 85.7396C1277.25 87.1396 1267.46 85.5396 1246 78.0396L1230.7 72.5396L1260.08 60.9396C1306.49 42.7396 1325.4 36.1396 1343.65 31.6396C1378.79 23.1396 1408.43 21.5396 1430.43 27.1396C1443.58 30.4396 1466.78 39.0396 1498.98 52.3396C1549.41 73.3396 1560.55 76.5396 1586.57 77.3396C1629.89 78.6396 1672.42 66.9396 1705.14 44.6396C1717.62 36.1396 1716.68 34.8396 1703.8 42.6396C1669.2 63.6396 1631.77 72.4396 1589.52 69.5396C1564.17 67.8396 1556.79 65.3396 1506.22 42.1396C1459.27 20.5396 1438.62 13.2396 1416.75 10.4396C1398.64 8.13962 1363.9 12.1396 1335.2 19.6396C1317.09 24.4396 1302.47 29.5396 1264.77 44.2396C1246 51.5396 1226.28 58.9396 1221.05 60.6396L1211.52 63.8396L1193.82 57.2396C1172.09 49.2396 1165.92 48.2396 1144.05 48.9396C1125.14 49.4396 1115.08 51.4396 1098.18 57.7396L1087.85 61.6396L1077.52 56.9396C1071.89 54.4396 1063.03 50.9396 1057.67 49.2396C1048.95 46.4396 1046.94 46.1396 1033.39 46.1396C1017.02 46.1396 1014.88 46.6396 977.723 58.0396C955.322 64.8396 944.859 66.9396 932.787 67.0396C916.422 67.0396 899.119 61.0396 893.619 53.4396C889.998 48.3396 890.534 39.3396 894.692 32.6396C901.131 22.4396 911.191 17.2396 924.873 17.1396C934.531 17.1396 942.043 20.2396 946.201 26.0396L948.883 29.7396L943.116 33.6396C936.811 38.0396 936.006 41.0396 940.165 44.4396C944.725 48.0396 951.03 47.4396 956.663 42.7396C966.455 34.6396 966.455 24.9396 956.798 14.5396C945.396 2.13962 917.093 -3.26038 894.558 2.53962C880.474 6.23962 865.719 13.7396 859.28 20.6396L857 23.0396L854.72 20.6396C848.281 13.7396 833.392 6.13962 819.978 2.73962C811.662 0.739624 797.309 -0.560376 791.273 0.239624ZM590.069 56.4396C599.995 58.7396 610.457 61.9396 614.481 64.0396C617.164 65.4396 617.03 65.5396 612.067 67.4396C588.727 76.3396 557.876 76.8396 523 69.0396C516.696 67.6396 511.196 66.1396 510.66 65.7396C509.05 64.6396 531.719 56.4396 540.17 54.9396C551.303 53.1396 578.935 53.9396 590.069 56.4396ZM1160.95 54.7396C1168.2 55.6396 1182.15 60.2396 1193.55 65.4396L1198.11 67.4396L1188.85 69.5396C1151.56 77.7396 1116.96 75.6396 1093.08 63.7396C1089.86 62.1396 1107.3 57.1396 1125.94 54.2396C1131.58 53.4396 1153.31 53.6396 1160.95 54.7396Z" fill="black"/>
</svg>
