<?xml version="1.0" encoding="UTF-8" standalone="no"?>
<!-- Created with Inkscape (http://www.inkscape.org/) -->
<svg
   xmlns:svg="http://www.w3.org/2000/svg"
   xmlns="http://www.w3.org/2000/svg"
   version="1.0"
   width="326"
   height="90"
   id="svg2">
  <defs
     id="defs5" />
  <path
     d="M 14.729073,79.800156 C 9.8842196,78.432271 5.194853,74.493888 5.194853,71.792804 C 5.194853,68.98149 11.22699,62.427435 18.276185,57.579637 C 35.532831,45.712081 59.451764,34.981316 79.194853,30.249662 C 88.169368,28.098818 97.704927,27.603106 100.16589,29.159469 C 102.39021,30.56617 100.6767,31.526776 98.255013,30.230726 C 95.615252,28.817969 82.197271,30.96678 70.41279,34.689496 C 51.829278,40.560025 27.805204,52.716678 16.723667,61.857247 C 7.6537746,69.338517 6.8142118,73.858819 13.930795,76.894389 C 21.29358,80.034975 49.046235,78.152146 64.129829,73.488726 C 68.094594,72.262932 69.670038,72.124084 69.953824,72.975442 C 70.20184,73.719491 73.866304,72.374343 80.063898,69.264245 C 91.843693,63.352868 97.370056,61.686744 100.19068,63.196293 C 101.29297,63.786225 102.21104,65.040564 102.23082,65.983713 C 102.30238,69.39615 107.24041,61.790605 115.12815,46.119254 C 119.44091,37.550653 124.00881,27.313153 125.27903,23.369254 C 126.58164,19.324787 128.15666,16.198529 128.89168,16.198529 C 129.60842,16.198529 130.19485,16.364739 130.19485,16.567884 C 130.19485,16.771029 127.65275,26.558529 124.54573,38.317884 C 120.29933,54.389594 118.8167,61.806724 118.57477,68.18885 C 118.25278,76.683143 116.86182,79.70414 115.59563,74.659222 C 114.72215,71.178987 116.74949,56.795088 119.22752,48.891209 C 120.29536,45.485235 121.16427,42.248529 121.15843,41.698529 C 121.15259,41.148529 118.48048,45.802101 115.22041,52.039799 C 107.16585,67.451068 105.2482,69.83487 100.76969,70.003234 C 97.344382,70.132005 96.083507,69.003412 98.194853,67.698529 C 100.1912,66.464719 99.124061,65.198529 96.087864,65.198529 C 93.807695,65.198529 93.126587,65.578247 93.528423,66.625416 C 94.349819,68.76594 92.643678,69.727084 81.082923,73.636513 C 74.017051,76.025935 69.546187,77.019644 67.602737,76.632663 C 66.003401,76.314202 59.969853,77.02837 54.194853,78.219703 C 40.83747,80.975216 21.617137,81.744916 14.729073,79.800156 z M 150.33424,78.199845 C 146.29852,77.246385 144.15278,75.290068 143.93229,72.36306 C 143.74217,69.839166 143.51738,69.799198 140.19485,71.698529 C 136.89646,73.58406 133.29006,73.554083 128.61881,71.602309 L 124.79851,70.006089 L 127.24668,68.109654 C 134.08188,62.814872 141.79751,60.809909 144.19964,63.7043 C 145.27113,64.995364 146.30286,64.278575 151.43538,58.67734 C 162.66522,46.421953 187.69481,29.133636 208.69485,19.127357 C 223.84517,11.908405 232.71741,8.7452531 242.35985,7.1250391 C 248.83572,6.0369001 250.55743,6.0642401 253.83675,7.3072911 C 258.0679,8.9111351 259.32095,12.22587 257.19662,16.195227 C 254.54039,21.15844 236.11859,32.302392 221.42202,37.836463 C 210.83734,41.82218 212.11188,40.47203 224.70018,34.363847 C 244.29155,24.85758 256.19485,16.291451 256.19485,11.698917 C 256.19485,9.1960681 252.19373,7.9208531 246.08014,8.4752141 C 225.80318,10.313865 181.93366,33.619435 159.84092,54.289583 C 135.54958,77.016762 144.83871,82.036619 188.44775,69.748735 C 206.97552,64.528095 210.23724,65.123673 201.11634,72.061973 C 195.78899,76.114508 194.78149,77.980765 199.137,75.728445 C 204.35244,73.031437 209.74717,66.861677 213.26395,59.571952 C 217.28663,51.233599 216.84552,51.864599 218.10686,52.644147 C 219.64968,53.597663 216.11421,62.178153 211.7018,68.189061 C 207.12906,74.418374 200.41286,79.198529 196.23329,79.198529 C 191.84666,79.198529 191.10416,76.533455 194.64277,73.489663 C 196.17334,72.173128 197.23962,70.909965 197.01229,70.682633 C 196.78496,70.455301 191.04756,71.821934 184.26252,73.719593 C 177.47748,75.617253 168.28586,77.626329 163.8367,78.184206 C 154.85148,79.310858 155.03593,79.310644 150.33424,78.199845 z M 139.97234,68.641825 C 142.51965,66.857624 142.93281,64.198529 140.66273,64.198529 C 137.73018,64.198529 132.19485,67.106756 132.19485,68.647502 C 132.19485,70.706797 137.02922,70.703269 139.97234,68.641825 z M 251.39485,72.998529 C 250.73485,72.338529 250.19485,71.217173 250.19485,70.506626 C 250.19485,69.521344 249.18615,69.628147 245.94485,70.956626 C 242.69666,72.287926 239.02688,72.674002 230.37651,72.59448 C 217.49772,72.476085 214.94455,71.428592 217.75494,67.416201 C 218.60926,66.196481 220.113,65.198529 221.09657,65.198529 C 222.08014,65.198529 223.74106,64.252458 224.7875,63.09615 C 228.91768,58.532357 237.58333,56.441363 238.83619,59.706249 C 239.61629,61.739173 236.68268,66.014897 233.11538,68.044275 C 228.84472,70.473789 229.55243,71.517892 234.94485,70.743334 C 244.78437,69.330001 251.07378,67.102123 257.62384,62.709831 C 264.50441,58.095901 270.19485,56.716869 270.19485,59.663345 C 270.19485,61.52721 267.10278,63.198529 263.6545,63.198529 C 260.55329,63.198529 253.19485,68.632376 253.19485,70.922461 C 253.19485,72.20207 254.12705,72.381364 258.44485,71.932216 C 263.71804,71.383686 273.77292,67.148518 284.25075,61.062636 C 287.91594,58.933768 290.42948,58.074586 291.63686,58.537904 C 293.36213,59.19995 293.36973,59.34781 291.76938,61.116171 C 290.83565,62.14794 288.18689,63.477638 285.88326,64.071055 C 280.90519,65.353414 275.5593,69.361166 276.5939,71.035184 C 277.47586,72.462233 283.143,71.750474 292.05019,69.093966 C 299.75482,66.796109 300.19485,66.779038 300.19485,68.777984 C 300.19485,70.034219 300.85993,70.216823 303.44485,69.6703 C 307.30393,68.854385 317.25193,65.474778 318.0018,64.724908 C 319.79486,62.931848 313.61027,63.844118 303.94485,66.798407 C 302.98235,67.092601 302.19485,66.941875 302.19485,66.463461 C 302.19485,65.985047 304.48231,64.771058 307.2781,63.765706 C 316.94968,60.287856 325.6316,61.940681 320.35233,66.254719 C 316.14296,69.694478 298.12723,74.217228 295.92272,72.387641 C 295.05111,71.66427 292.85891,71.776629 288.68368,72.758673 C 280.09398,74.779029 274.48269,74.632295 273.0574,72.350048 C 271.93455,70.552074 271.77009,70.552074 267.0382,72.350048 C 261.52032,74.446678 253.18839,74.79207 251.39485,72.998529 z M 228.98469,67.304939 C 235.37219,64.044889 238.60496,58.981428 233.2045,60.695465 C 229.38879,61.906525 222.1253,69.198529 224.73469,69.198529 C 225.0316,69.198529 226.9441,68.346413 228.98469,67.304939 z"
     id="path2384"
     style="fill:#000000" />
</svg>
