<svg width="72" height="72" viewBox="0 0 72 72" fill="none" xmlns="http://www.w3.org/2000/svg">
<path d="M72.0002 0H48.0003L13.3335 42.7498H37.3333L72.0002 0Z" fill="#992CBF"/>
<path d="M0 0H23.9999L58.6664 42.7498H34.6665L0 0Z" fill="#BE59E1"/>
<path d="M37.3333 22.5C53.5999 22.5 66.6667 33.5251 66.6667 47.25C66.6667 60.975 53.5999 72 37.3333 72C21.0667 72 8 60.975 8 47.25C8 33.5251 21.0667 22.5 37.3333 22.5Z" fill="#EFC75E"/>
<path d="M37.3334 29.25C25.6002 29.25 16 37.3499 16 47.2501C16 57.1502 25.5999 65.2501 37.3334 65.2501C49.0669 65.2501 58.6668 57.1502 58.6668 47.2501C58.6668 37.3499 49.0666 29.25 37.3334 29.25ZM37.3334 60.75C28.5333 60.75 21.3335 54.6749 21.3335 47.2501C21.3335 39.8252 28.5336 33.7501 37.3334 33.7501C46.1332 33.7501 53.3333 39.8252 53.3333 47.2501C53.3333 54.6749 46.1332 60.75 37.3334 60.75Z" fill="#D7B354"/>
</svg>
