<svg width="112" height="102" viewBox="0 0 112 102" fill="none" xmlns="http://www.w3.org/2000/svg">
<g filter="url(#filter0_d)">
<path d="M52.5598 11.0533C53.7943 7.44747 58.8939 7.44747 60.1285 11.0533L67.4835 32.5358C68.0374 34.1534 69.5581 35.2401 71.2679 35.2401L94.6057 35.2401C98.5311 35.2401 100.108 40.305 96.8763 42.5332L78.3619 55.299C76.886 56.3165 76.2675 58.1917 76.8481 59.8877L84.0039 80.7881C85.2531 84.4368 81.124 87.5661 77.9489 85.3769L58.6147 72.0459C57.2477 71.1033 55.4405 71.1033 54.0735 72.0459L34.7393 85.3769C31.5643 87.5661 27.4352 84.4368 28.6844 80.7881L35.8401 59.8877C36.4208 58.1917 35.8022 56.3165 34.3264 55.299L15.812 42.5332C12.5803 40.305 14.1572 35.2401 18.0826 35.2401L41.4204 35.2401C43.1302 35.2401 44.6509 34.1534 45.2047 32.5358L52.5598 11.0533Z" fill="#FFFB90"/>
<path d="M56.8784 21.9077C53.99 21.8844 51.1377 21.115 48.5058 19.6493C48.3491 19.5633 48.2161 19.4231 48.123 19.2456C48.0299 19.0682 47.9807 18.8612 47.9815 18.65V9.78227C47.9817 9.49176 48.0755 9.21324 48.2423 9.00781C48.4091 8.80239 48.6353 8.68685 48.8711 8.68652H64.8857C65.1215 8.68685 65.3477 8.8024 65.5145 9.00782C65.6813 9.21324 65.7751 9.49176 65.7754 9.78227V18.65C65.7761 18.8613 65.7269 19.0682 65.6338 19.2456C65.5407 19.4231 65.4077 19.5633 65.2511 19.6493C62.6191 21.115 59.7668 21.8844 56.8784 21.9077V21.9077Z" fill="#5F5E6C"/>
<path d="M56.8765 14.7234C56.7577 14.7235 56.6402 14.6944 56.5307 14.6378L43.8314 8.03904C43.6677 7.95395 43.5284 7.8104 43.4315 7.62689C43.3345 7.44338 43.2845 7.22833 43.2877 7.00945C43.291 6.79058 43.3474 6.57793 43.4497 6.39892C43.552 6.2199 43.6955 6.08273 43.8617 6.00509L56.5612 0.0715777C56.7657 -0.0244295 56.9919 -0.0238372 57.1961 0.0732423L69.7254 6.00674C69.8906 6.08501 70.0332 6.22221 70.1347 6.4008C70.2363 6.57939 70.2923 6.79124 70.2956 7.00925C70.2989 7.22726 70.2492 7.44151 70.1531 7.6246C70.0569 7.80768 69.9186 7.95128 69.7558 8.03701L57.2264 14.6356C57.1158 14.6937 56.9967 14.7235 56.8765 14.7234V14.7234Z" fill="#5F5E6C"/>
<path d="M49.4646 20.2521C50.1197 20.2521 50.6508 19.598 50.6508 18.7911C50.6508 17.9842 50.1197 17.3301 49.4646 17.3301C48.8094 17.3301 48.2783 17.9842 48.2783 18.7911C48.2783 19.598 48.8094 20.2521 49.4646 20.2521Z" fill="#EEEEEE"/>
<path opacity="0.2" d="M69.7992 7.09981L57.2697 13.6984C57.172 13.7499 57.0669 13.7765 56.9607 13.7769C56.8545 13.7772 56.7493 13.7511 56.6514 13.7003L43.9521 7.10174C43.7926 7.02085 43.6595 6.87682 43.5739 6.6924C43.5179 6.81198 43.4832 6.94488 43.4721 7.08225C43.461 7.21962 43.4738 7.35832 43.5096 7.48916C43.5453 7.61999 43.6033 7.73995 43.6796 7.84109C43.7559 7.94222 43.8488 8.02221 43.9521 8.07574L56.6514 14.6743C56.7493 14.7251 56.8545 14.7512 56.9607 14.7509C57.0669 14.7505 57.172 14.7239 57.2697 14.6724L69.7992 8.0738C69.902 8.0198 69.9943 7.93957 70.0701 7.83839C70.1458 7.73721 70.2033 7.61739 70.2387 7.48684C70.2741 7.35629 70.2866 7.21797 70.2754 7.08103C70.2642 6.94408 70.2296 6.81162 70.1738 6.69238C70.0888 6.87532 69.9571 7.01856 69.7992 7.09981V7.09981Z" fill="black"/>
<path d="M49.5644 18.7854C49.6168 18.7854 49.6671 18.7598 49.7042 18.7141C49.7413 18.6684 49.7621 18.6065 49.7621 18.5419V10.3941L56.2828 7.46844C56.3353 7.4694 56.3859 7.44467 56.4235 7.39969C56.4611 7.3547 56.4827 7.29315 56.4835 7.22857C56.4843 7.16399 56.4642 7.10167 56.4277 7.05533C56.3911 7.00898 56.3412 6.98241 56.2887 6.98145L49.768 9.90712C49.7155 9.90563 49.6634 9.91728 49.6147 9.94135C49.5659 9.96543 49.5217 10.0014 49.4846 10.0472C49.4471 10.0924 49.4174 10.1464 49.3971 10.2059C49.3769 10.2655 49.3665 10.3295 49.3667 10.3941V18.5419C49.3667 18.6065 49.3875 18.6684 49.4246 18.7141C49.4617 18.7598 49.512 18.7854 49.5644 18.7854V18.7854Z" fill="#EEEEEE"/>
<path d="M23.8081 43.8631C21.9355 46.3118 19.5727 48.2501 16.8726 49.5528C16.7127 49.6311 16.5307 49.6544 16.3488 49.6198C16.1669 49.5851 15.9929 49.494 15.848 49.3576L9.74704 43.6575C9.54734 43.4705 9.41602 43.2114 9.3819 42.9371C9.34778 42.6628 9.41365 42.3957 9.56504 42.1943L19.8588 28.5348C20.0106 28.3338 20.2355 28.2152 20.484 28.205C20.7326 28.1948 20.9845 28.2938 21.1845 28.4803L27.2856 34.1805C27.4314 34.3157 27.5421 34.4906 27.6044 34.6841C27.6666 34.8775 27.6776 35.0811 27.6361 35.27C26.9527 38.4571 25.6487 41.3845 23.8081 43.8631V43.8631Z" fill="#5F5E6C"/>
<path d="M18.8643 39.2477C18.7881 39.349 18.6925 39.4306 18.5832 39.4875L5.88044 46.0776C5.71663 46.1626 5.52832 46.1892 5.33977 46.1539C5.15123 46.1186 4.9711 46.023 4.82261 45.8796C4.67412 45.7361 4.56408 45.5513 4.50667 45.349C4.44927 45.1466 4.44713 44.9361 4.50053 44.7444L8.58119 30.0985C8.64661 29.8623 8.79239 29.6698 8.99044 29.558L21.1262 22.6853C21.2863 22.5947 21.4723 22.5613 21.6605 22.5894C21.8486 22.6176 22.0304 22.706 22.1825 22.8433C22.3346 22.9807 22.4501 23.1607 22.5142 23.3604C22.5784 23.5601 22.5883 23.7704 22.5426 23.9644L19.0289 38.8928C18.9977 39.0245 18.9417 39.1452 18.8643 39.2477V39.2477Z" fill="#5F5E6C"/>
<path d="M17.9037 49.1233C18.3248 48.5645 18.2162 47.691 17.661 47.1723C17.1059 46.6537 16.3145 46.6862 15.8934 47.245C15.4722 47.8038 15.5809 48.6773 16.136 49.196C16.6912 49.7146 17.4826 49.6821 17.9037 49.1233Z" fill="#EEEEEE"/>
<path opacity="0.2" d="M21.9259 23.3247L18.4121 38.2531C18.3847 38.3695 18.3355 38.4763 18.2674 38.5671C18.1994 38.6579 18.1138 38.7309 18.0159 38.7817L5.31333 45.372C5.15516 45.456 4.97054 45.4769 4.78864 45.4314C4.83492 45.556 4.90405 45.671 4.99143 45.7688C5.0788 45.8665 5.18243 45.9448 5.29543 45.9984C5.40843 46.052 5.52822 46.0797 5.64684 46.0796C5.76546 46.0796 5.8802 46.0518 5.98344 45.998L18.686 39.4078C18.7839 39.357 18.8695 39.284 18.9376 39.1932C19.0056 39.1024 19.0548 38.9956 19.0822 38.8792L22.596 23.9507C22.6249 23.8283 22.6291 23.698 22.6082 23.5684C22.5873 23.4387 22.5418 23.3127 22.4747 23.1985C22.4076 23.0844 22.3205 22.9849 22.2191 22.9064C22.1177 22.8279 22.0043 22.7723 21.8864 22.7433C21.9576 22.9334 21.9715 23.1377 21.9259 23.3247V23.3247Z" fill="black"/>
<path d="M16.9587 48.0957C16.9924 48.051 17.0071 47.9916 16.9995 47.9306C16.9919 47.8696 16.9627 47.8121 16.9182 47.7705L11.3125 42.5331L13.491 35.0907C13.5254 35.0466 13.5409 34.9876 13.5341 34.9266C13.5274 34.8656 13.4989 34.8076 13.455 34.7654C13.411 34.7232 13.3553 34.7003 13.2999 34.7017C13.2445 34.703 13.1941 34.7286 13.1598 34.7727L10.9813 42.2151C10.9465 42.2589 10.921 42.3109 10.9062 42.3679C10.8915 42.4249 10.8878 42.4858 10.8955 42.5468C10.9025 42.6078 10.9205 42.6679 10.9485 42.7235C10.9765 42.7791 11.0138 42.829 11.0584 42.8704L16.6641 48.1078C16.7085 48.1493 16.7645 48.1714 16.8198 48.1691C16.875 48.1668 16.925 48.1404 16.9587 48.0957V48.0957Z" fill="#EEEEEE"/>
<path d="M88.3037 41.5803C86.4632 39.1017 85.1591 36.1743 84.4758 32.9872C84.4342 32.7983 84.4452 32.5947 84.5075 32.4013C84.5697 32.2078 84.6805 32.0329 84.8263 31.8977L90.9273 26.1975C91.1273 26.011 91.3793 25.912 91.6278 25.9222C91.8763 25.9324 92.1012 26.051 92.253 26.252L102.547 39.9115C102.698 40.1129 102.764 40.38 102.73 40.6543C102.696 40.9286 102.564 41.1877 102.365 41.3747L96.2638 47.0748C96.1189 47.2112 95.9449 47.3023 95.763 47.337C95.5811 47.3716 95.3991 47.3483 95.2392 47.27C92.5391 45.9673 90.1764 44.029 88.3037 41.5803V41.5803Z" fill="#5F5E6C"/>
<path d="M93.2451 36.9609C93.1687 36.8597 93.1131 36.7408 93.0817 36.611L89.4588 21.5376C89.4121 21.3432 89.4213 21.1321 89.4853 20.9315C89.5493 20.7309 89.665 20.55 89.8177 20.412C89.9704 20.2741 90.153 20.1856 90.3419 20.1578C90.5308 20.1299 90.7174 20.1642 90.8777 20.256L103.123 27.2738C103.32 27.3866 103.465 27.5799 103.53 27.8164L107.501 42.3172C107.553 42.5085 107.551 42.7183 107.493 42.9197C107.436 43.1211 107.326 43.3051 107.178 43.448C107.03 43.5909 106.851 43.6863 106.663 43.722C106.475 43.7577 106.287 43.732 106.124 43.6483L93.5304 37.203C93.4193 37.1459 93.3223 37.0636 93.2451 36.9609V36.9609Z" fill="#5F5E6C"/>
<path d="M84.6765 34.1928C85.0976 34.7516 85.889 34.7841 86.4442 34.2655C86.9993 33.7468 87.1079 32.8734 86.6868 32.3145C86.2657 31.7557 85.4743 31.7232 84.9192 32.2419C84.364 32.7605 84.2554 33.634 84.6765 34.1928Z" fill="#EEEEEE"/>
<path opacity="0.2" d="M106.795 43.0829L94.202 36.6376C94.1038 36.5873 94.0179 36.5149 93.9494 36.4244C93.8809 36.334 93.8312 36.2276 93.8032 36.1114L90.1802 21.0381C90.1334 20.8501 90.1469 20.644 90.2188 20.4525C90.1005 20.4816 89.9868 20.5374 89.8851 20.6162C89.7835 20.6951 89.6963 20.7951 89.6292 20.9097C89.5622 21.0243 89.5169 21.1508 89.4964 21.2809C89.4759 21.411 89.4805 21.5417 89.5101 21.6642L93.1331 36.7375C93.1611 36.8536 93.2108 36.9601 93.2793 37.0505C93.3478 37.1409 93.4337 37.2134 93.5318 37.2637L106.125 43.709C106.229 43.762 106.343 43.7891 106.461 43.7887C106.58 43.7883 106.699 43.7603 106.812 43.7066C106.924 43.6529 107.027 43.5746 107.115 43.4771C107.202 43.3795 107.27 43.2648 107.317 43.1405C107.136 43.1856 106.953 43.1654 106.795 43.0829V43.0829Z" fill="black"/>
<path d="M85.7501 33.3343C85.7838 33.3791 85.8338 33.4055 85.889 33.4077C85.9443 33.41 86.0003 33.388 86.0447 33.3465L91.6504 28.1091L97.8546 31.7902C97.8877 31.8356 97.9372 31.8628 97.9923 31.866C98.0475 31.8692 98.1037 31.848 98.1486 31.8072C98.1936 31.7663 98.2235 31.7091 98.2319 31.6482C98.2403 31.5873 98.2265 31.5275 98.1935 31.4822L91.9892 27.801C91.9565 27.7553 91.915 27.7183 91.8671 27.6922C91.8192 27.6662 91.766 27.6516 91.7107 27.6494C91.6555 27.6464 91.5993 27.6558 91.5453 27.6768C91.4912 27.6978 91.4406 27.7301 91.3962 27.7718L85.7905 33.0092C85.7461 33.0507 85.7169 33.1083 85.7093 33.1693C85.7017 33.2302 85.7164 33.2896 85.7501 33.3343V33.3343Z" fill="#EEEEEE"/>
<path d="M64.0352 39.1338L64.7225 41.6634H66.9465L65.1473 43.2268L65.8345 45.7564L64.0352 44.193L62.236 45.7564L62.9232 43.2268L61.1239 41.6634H63.348L64.0352 39.1338Z" fill="#4B4848"/>
<path d="M49.2965 39.1338L49.9837 41.6634H52.2078L50.4085 43.2268L51.0958 45.7564L49.2965 44.193L47.4972 45.7564L48.1845 43.2268L46.3852 41.6634H48.6092L49.2965 39.1338Z" fill="#4B4848"/>
<path d="M50.0898 54.9131C55.594 56.2969 58.674 56.4485 64.1483 55.1656" stroke="#4B4848" stroke-width="2"/>
<g filter="url(#filter1_f)">
<ellipse cx="43.5143" cy="53.2722" rx="1.3605" ry="1.76733" fill="#D2719A"/>
</g>
<g filter="url(#filter2_f)">
<ellipse cx="68.9103" cy="53.2722" rx="1.3605" ry="1.76733" fill="#D2719A"/>
</g>
</g>
<defs>
<filter id="filter0_d" x="2.46191" y="0" width="109.077" height="92.1015" filterUnits="userSpaceOnUse" color-interpolation-filters="sRGB">
<feFlood flood-opacity="0" result="BackgroundImageFix"/>
<feColorMatrix in="SourceAlpha" type="matrix" values="0 0 0 0 0 0 0 0 0 0 0 0 0 0 0 0 0 0 127 0"/>
<feOffset dx="1" dy="3"/>
<feGaussianBlur stdDeviation="1.5"/>
<feColorMatrix type="matrix" values="0 0 0 0 0 0 0 0 0 0 0 0 0 0 0 0 0 0 0.25 0"/>
<feBlend mode="normal" in2="BackgroundImageFix" result="effect1_dropShadow"/>
<feBlend mode="normal" in="SourceGraphic" in2="effect1_dropShadow" result="shape"/>
</filter>
<filter id="filter1_f" x="37.1538" y="46.5049" width="12.721" height="13.5347" filterUnits="userSpaceOnUse" color-interpolation-filters="sRGB">
<feFlood flood-opacity="0" result="BackgroundImageFix"/>
<feBlend mode="normal" in="SourceGraphic" in2="BackgroundImageFix" result="shape"/>
<feGaussianBlur stdDeviation="2.5" result="effect1_foregroundBlur"/>
</filter>
<filter id="filter2_f" x="62.5498" y="46.5049" width="12.721" height="13.5347" filterUnits="userSpaceOnUse" color-interpolation-filters="sRGB">
<feFlood flood-opacity="0" result="BackgroundImageFix"/>
<feBlend mode="normal" in="SourceGraphic" in2="BackgroundImageFix" result="shape"/>
<feGaussianBlur stdDeviation="2.5" result="effect1_foregroundBlur"/>
</filter>
</defs>
</svg>
