<?xml version="1.0" standalone="no"?>
<!DOCTYPE svg PUBLIC "-//W3C//DTD SVG 20010904//EN"
 "http://www.w3.org/TR/2001/REC-SVG-20010904/DTD/svg10.dtd">
<svg version="1.0" xmlns="http://www.w3.org/2000/svg"
 width="500.000000pt" height="500.000000pt" viewBox="0 0 500.000000 500.000000"
 preserveAspectRatio="xMidYMid meet">
<metadata>
Created by potrace 1.14, written by Peter Selinger 2001-2017
</metadata>
<g transform="translate(0.000000,500.000000) scale(0.100000,-0.100000)"
fill="#000000" stroke="none">
<path d="M2375 4799 c-4 -5 -11 -6 -17 -3 -7 4 -8 2 -4 -4 4 -7 2 -12 -4 -12
-6 0 -8 -4 -5 -10 3 -5 1 -10 -5 -10 -6 0 -8 -4 -5 -10 3 -5 1 -10 -5 -10 -6
0 -8 -5 -5 -10 4 -6 3 -16 -2 -23 -4 -7 -8 -23 -8 -37 0 -14 -4 -28 -10 -32
-7 -5 -7 -8 0 -8 6 0 10 -62 9 -168 -1 -220 -2 -228 -17 -244 -7 -7 -18 -26
-25 -41 -6 -15 -17 -25 -22 -22 -6 4 -10 3 -9 -2 4 -24 -2 -35 -17 -29 -12 4
-15 2 -10 -9 3 -8 2 -15 -2 -15 -12 0 -77 -63 -74 -72 1 -4 -3 -8 -9 -8 -6 0
-8 -7 -5 -16 5 -13 4 -14 -7 -6 -8 7 -17 9 -20 5 -4 -3 -7 -2 -7 4 0 6 -9 9
-22 5 -16 -4 -19 -2 -13 9 8 12 6 12 -8 0 -9 -7 -17 -9 -17 -4 0 5 -10 9 -22
10 -74 2 -118 8 -118 15 0 5 -6 8 -12 7 -29 -3 -59 2 -54 9 2 4 -5 9 -16 9
-11 1 -29 10 -40 20 -11 10 -22 17 -25 15 -3 -2 -8 0 -11 4 -4 4 -1 4 5 0 9
-5 11 -2 7 8 -3 9 -10 14 -14 11 -4 -3 -13 2 -20 10 -7 8 -10 15 -7 15 3 0 -5
11 -19 25 -14 14 -22 30 -19 35 3 6 2 10 -2 10 -5 0 -14 9 -21 21 -11 17 -11
20 0 14 7 -3 5 0 -6 9 -10 8 -15 20 -11 26 3 6 2 9 -3 8 -6 -2 -10 1 -10 6 0
5 -5 12 -10 15 -6 3 -12 13 -14 21 -2 8 -11 23 -20 34 -10 11 -18 26 -18 33 0
7 -4 13 -10 13 -5 0 -10 5 -10 11 0 16 -26 39 -36 31 -5 -4 -2 2 6 12 10 13
10 17 3 12 -8 -4 -13 -2 -13 4 0 6 -4 9 -9 6 -5 -4 -11 -2 -13 4 -2 6 -13 12
-26 15 -12 2 -27 7 -34 11 -7 4 -8 3 -4 -4 4 -7 1 -12 -6 -12 -8 0 -14 -9 -15
-20 -1 -13 2 -18 9 -14 7 5 8 2 4 -5 -5 -7 0 -21 11 -33 10 -12 12 -18 6 -14
-7 4 -13 2 -13 -3 0 -6 5 -11 11 -11 5 0 7 -4 4 -10 -3 -5 -1 -10 6 -10 7 0 9
-3 6 -7 -4 -3 3 -22 15 -41 12 -20 16 -32 10 -28 -9 6 -9 1 0 -19 11 -24 9
-29 -12 -46 -32 -24 -41 -24 -47 1 -3 11 -10 20 -15 20 -5 0 -6 -4 -3 -10 3
-5 1 -10 -4 -10 -6 0 -11 7 -11 15 0 8 -10 24 -22 36 -13 12 -16 19 -8 15 9
-5 8 -2 -2 7 -10 8 -18 18 -18 24 0 5 -13 22 -30 38 -16 15 -27 32 -23 38 3 5
-4 4 -14 -2 -11 -6 -24 -7 -28 -3 -5 4 -5 -1 -2 -10 4 -10 2 -18 -3 -18 -6 0
-8 -10 -6 -22 2 -13 -1 -30 -7 -38 -6 -8 -7 -12 -2 -7 7 6 30 -40 39 -83 2 -8
8 -14 13 -13 5 1 10 -5 11 -13 1 -8 3 -21 4 -29 1 -8 4 -12 8 -10 4 3 15 -13
25 -35 10 -22 22 -40 27 -40 4 0 8 -7 8 -15 0 -8 4 -15 9 -15 5 0 13 -9 16
-20 3 -11 12 -26 19 -32 19 -21 57 -108 51 -118 -4 -6 -2 -10 4 -10 5 0 8 -15
7 -32 -2 -18 2 -39 8 -47 9 -12 8 -13 -3 -6 -11 6 -13 4 -8 -8 3 -10 3 -17 -2
-17 -4 0 -7 -10 -6 -22 1 -13 -3 -29 -9 -37 -9 -12 -8 -13 4 -7 13 6 13 6 0
-6 -9 -7 -16 -21 -17 -30 -1 -35 -3 -39 -12 -34 -4 3 -6 -6 -3 -19 3 -17 0
-25 -9 -25 -12 0 -12 -2 0 -9 10 -6 5 -11 -20 -16 -18 -4 -69 -22 -111 -40
-43 -18 -78 -31 -78 -28 0 3 -7 0 -16 -8 -27 -22 -151 -16 -209 11 -27 13 -52
26 -55 30 -3 3 -22 14 -43 25 -20 11 -37 24 -37 29 0 5 -3 6 -6 3 -4 -4 -19 2
-33 11 -40 28 -162 86 -185 88 -39 5 -76 -16 -76 -42 0 -13 3 -24 8 -24 4 0
19 -10 34 -23 60 -50 68 -57 74 -57 8 0 40 -33 59 -62 14 -23 15 -30 3 -40
-22 -22 -69 -15 -143 21 -38 19 -86 36 -106 38 -32 3 -35 1 -33 -19 1 -13 3
-31 3 -41 1 -10 5 -15 11 -12 6 3 10 1 10 -5 0 -6 6 -17 13 -23 22 -22 92 -72
99 -72 4 0 13 -6 20 -12 6 -7 17 -13 24 -13 7 0 14 -3 16 -7 3 -8 89 -51 98
-49 3 0 19 -9 37 -22 17 -12 36 -22 42 -22 6 0 11 -4 11 -10 0 -5 5 -10 12
-10 17 0 88 -81 88 -101 0 -10 4 -19 10 -21 5 -1 11 -12 13 -23 2 -11 7 -27
10 -35 3 -8 9 -32 12 -53 3 -21 10 -47 15 -58 6 -10 7 -19 3 -19 -4 0 -2 -4 6
-9 11 -7 10 -12 -7 -27 -12 -10 -18 -22 -15 -27 3 -6 1 -7 -5 -3 -7 4 -12 2
-12 -4 0 -6 -4 -9 -8 -6 -4 2 -14 -5 -22 -17 -12 -21 -12 -21 6 -8 10 8 7 2
-8 -13 -16 -15 -28 -34 -28 -42 0 -8 -4 -13 -9 -10 -5 3 -12 -1 -15 -10 -3 -8
-11 -12 -17 -8 -8 4 -9 3 -5 -4 4 -7 2 -12 -5 -12 -7 0 -9 -3 -6 -6 7 -8 -31
-44 -45 -44 -5 0 -6 -6 -2 -12 5 -8 1 -8 -12 2 -10 8 -16 11 -12 6 12 -14 -15
-35 -30 -24 -9 8 -12 6 -12 -6 0 -10 -4 -15 -9 -11 -5 3 -13 0 -17 -6 -5 -8
-8 -8 -14 0 -3 7 -14 9 -23 5 -9 -3 -15 -9 -13 -13 2 -3 -6 -6 -19 -6 -15 0
-21 5 -17 14 4 10 1 12 -9 5 -21 -13 -149 -13 -149 0 0 8 -3 8 -8 1 -4 -6 -27
-12 -52 -12 -101 -3 -148 -8 -144 -15 3 -5 0 -9 -5 -9 -6 -1 -15 -2 -21 -3 -5
0 -11 -5 -11 -11 -1 -5 -5 -19 -9 -31 -5 -12 -4 -27 2 -35 8 -11 8 -9 4 6 -5
18 -5 18 6 4 7 -9 21 -15 30 -13 10 1 21 -2 24 -7 3 -6 11 -5 20 2 10 8 14 8
14 0 0 -7 13 -10 35 -8 19 2 32 1 30 -3 -3 -5 2 -11 11 -14 8 -3 12 -2 9 4 -9
15 12 12 28 -5 8 -8 17 -11 21 -8 3 4 6 1 6 -5 0 -7 5 -11 11 -10 6 2 13 -5
14 -15 2 -9 -1 -15 -6 -11 -5 3 -9 0 -9 -6 0 -6 -4 -9 -9 -6 -5 3 -11 -1 -15
-9 -3 -8 -14 -15 -25 -15 -11 0 -23 -5 -27 -11 -4 -8 -9 -7 -14 2 -7 10 -11
10 -24 0 -13 -11 -16 -11 -16 0 0 9 -3 10 -8 4 -4 -6 -26 -10 -49 -10 -23 1
-40 -2 -37 -7 3 -4 0 -9 -5 -9 -26 -3 -30 -4 -37 -12 -4 -4 -2 -7 5 -7 7 0 10
-4 6 -9 -3 -5 -1 -12 5 -16 6 -4 8 -11 5 -16 -3 -5 1 -6 9 -3 10 4 16 1 16 -7
0 -11 2 -11 10 1 7 12 11 10 19 -10 5 -14 10 -19 10 -12 1 9 6 10 19 4 9 -5
29 -7 45 -5 16 2 27 -1 27 -8 0 -8 5 -7 17 2 14 12 16 12 8 0 -6 -10 -4 -12 6
-6 18 12 49 14 49 4 0 -5 10 -5 23 -1 12 4 41 7 65 6 25 -1 42 3 42 10 0 7 3
7 8 1 11 -16 46 -19 36 -3 -6 10 -5 11 7 1 12 -10 18 -10 27 -1 9 9 12 9 12
-2 0 -13 2 -13 10 0 5 8 10 10 10 3 0 -6 9 -9 20 -6 12 3 20 0 20 -7 0 -10 3
-10 15 0 12 10 16 9 21 -3 3 -9 12 -13 20 -10 8 3 14 0 14 -6 0 -6 7 -11 15
-11 8 0 15 -5 15 -11 0 -5 5 -7 10 -4 6 3 10 -1 10 -9 0 -14 12 -20 33 -17 4
0 7 -8 7 -20 0 -11 3 -18 7 -16 5 2 26 -15 48 -37 22 -22 31 -34 20 -26 -18
14 -19 14 -7 -2 8 -10 22 -20 33 -23 15 -5 17 -10 9 -26 -6 -10 -8 -19 -4 -19
3 0 1 -6 -5 -13 -6 -8 -9 -16 -6 -19 2 -2 -1 -39 -9 -81 -7 -42 -11 -77 -8
-77 2 0 -1 -6 -7 -14 -6 -8 -11 -18 -10 -22 2 -16 -13 -54 -22 -54 -5 0 -8 -3
-8 -7 4 -22 -3 -33 -18 -33 -9 0 -14 -3 -10 -6 11 -11 -67 -68 -163 -119 -30
-15 -66 -37 -79 -47 -13 -10 -28 -15 -34 -11 -6 3 -7 1 -3 -5 4 -7 1 -12 -8
-12 -9 0 -16 -5 -16 -11 0 -6 -7 -8 -16 -5 -8 3 -12 2 -9 -4 3 -6 2 -10 -3
-10 -23 0 -73 -63 -74 -92 -2 -54 26 -54 140 -2 29 13 58 22 63 19 5 -4 9 -1
9 4 0 6 16 11 35 11 33 0 41 -9 35 -35 -1 -5 -3 -16 -3 -24 0 -13 -108 -104
-115 -96 -6 6 -66 -55 -68 -70 -1 -7 5 -17 14 -21 25 -11 82 -13 88 -3 3 5 10
7 15 3 5 -3 16 0 24 6 8 7 15 9 15 4 0 -5 4 -4 8 1 4 6 27 21 52 34 25 13 77
44 115 69 39 25 72 44 74 43 2 -2 7 1 10 6 9 14 114 66 106 53 -6 -9 -2 -9 13
-1 28 15 75 14 91 -1 11 -10 13 -10 7 0 -9 16 -13 16 85 -14 85 -26 107 -32
123 -33 4 -1 6 -10 3 -21 -3 -11 -1 -20 4 -20 5 0 12 -12 15 -28 4 -15 11 -33
17 -40 5 -6 6 -12 2 -12 -4 0 -2 -7 5 -15 7 -8 9 -15 4 -15 -5 0 -4 -4 2 -8
14 -8 45 -108 37 -116 -4 -3 0 -6 8 -6 11 0 11 -2 -1 -10 -8 -5 -10 -10 -5
-10 6 0 11 -9 11 -20 0 -11 -4 -20 -9 -20 -4 0 -6 -4 -3 -9 10 -15 -6 -71 -17
-64 -5 3 -7 2 -4 -4 7 -12 -29 -82 -52 -101 -10 -8 -11 -11 -2 -6 9 5 6 -5 -7
-23 -12 -17 -22 -36 -22 -41 0 -5 -7 -13 -16 -16 -8 -3 -13 -10 -10 -15 4 -5
0 -15 -7 -23 -14 -13 -17 -19 -25 -50 -2 -10 -9 -18 -14 -18 -5 0 -6 -4 -3
-10 3 -5 1 -10 -5 -10 -6 0 -8 -4 -5 -10 3 -5 2 -10 -4 -10 -5 0 -8 -9 -6 -20
2 -11 0 -22 -4 -25 -12 -7 0 -56 15 -62 8 -3 11 -10 8 -15 -4 -6 3 -5 15 1 11
7 21 8 21 4 0 -4 12 12 27 34 15 23 31 39 36 36 6 -3 7 -1 3 5 -4 6 2 19 13
29 11 9 18 20 15 25 -3 4 2 8 10 8 8 0 18 9 21 21 4 11 9 18 12 15 4 -3 12 -1
20 5 32 28 61 -57 31 -90 -10 -11 -10 -12 -1 -7 7 4 3 -11 -9 -34 -12 -22 -26
-40 -30 -40 -5 0 -6 -5 -3 -10 4 -6 1 -17 -5 -25 -7 -8 -9 -15 -5 -15 5 0 0
-9 -10 -20 -16 -18 -16 -20 -1 -26 9 -3 14 -10 11 -14 -8 -13 47 -1 73 16 12
8 22 19 22 25 0 6 4 8 9 4 5 -3 12 4 16 15 3 11 11 20 16 20 5 0 9 7 9 15 0 7
7 18 16 23 9 5 15 11 14 13 -2 6 12 43 19 49 14 12 50 88 44 93 -3 4 2 9 11
13 9 3 14 10 11 14 -3 5 2 16 11 24 8 9 12 16 7 16 -4 0 0 5 10 11 9 6 15 14
12 19 -3 5 8 23 25 41 16 19 30 37 30 42 0 4 5 5 10 2 6 -3 10 -2 10 4 0 5 14
12 30 16 17 4 30 11 30 16 0 5 9 9 20 9 11 0 20 5 20 11 0 5 4 7 10 4 5 -3 19
-1 30 5 15 8 20 8 20 -2 0 -10 2 -10 8 -1 4 7 22 13 39 15 17 1 29 6 26 11
-13 22 55 -1 83 -28 17 -16 46 -41 65 -55 54 -41 129 -115 129 -129 0 -7 7
-19 15 -28 8 -8 13 -19 10 -24 -4 -5 -2 -9 4 -9 5 0 8 -9 6 -20 -2 -11 -1 -20
3 -20 11 0 8 -194 -3 -202 -7 -5 -7 -8 0 -8 6 0 10 -33 10 -77 0 -81 15 -169
28 -157 4 4 7 3 7 -3 0 -5 11 -15 24 -21 33 -15 42 -2 51 68 4 30 12 61 17 68
7 8 7 12 -1 12 -7 0 -9 5 -6 10 4 6 9 23 11 38 7 35 34 78 43 65 3 -5 14 -12
24 -16 15 -6 22 -25 18 -49 0 -5 3 -8 7 -8 5 0 8 -18 8 -41 -1 -22 1 -42 4
-44 4 -2 5 -20 4 -39 -2 -20 1 -38 7 -41 5 -4 7 -10 4 -15 -3 -5 4 -14 16 -20
15 -8 19 -9 15 -1 -6 10 6 15 26 12 5 0 7 2 6 7 0 4 6 24 16 45 9 21 14 42 11
47 -3 5 -2 11 3 14 9 5 8 263 -1 272 -3 4 -2 15 4 25 5 11 6 19 2 19 -4 0 -8
20 -8 45 0 33 4 45 15 45 12 0 12 2 2 9 -17 10 24 91 68 132 16 16 30 32 30
35 0 10 54 49 63 46 5 -1 6 2 2 7 -3 6 4 15 15 21 11 6 18 15 15 21 -4 5 -2 9
4 9 5 0 12 -4 15 -9 3 -5 15 -7 26 -4 11 3 20 1 20 -5 0 -5 10 -10 23 -9 50 0
97 -8 97 -18 0 -5 5 -3 10 5 5 8 10 10 10 4 0 -6 10 -11 23 -10 12 1 28 -5 35
-14 10 -11 11 -11 6 -1 -5 11 -3 13 10 8 10 -4 22 -7 27 -7 4 0 6 -8 2 -17 -5
-15 -3 -16 7 -6 10 10 21 6 52 -18 21 -17 38 -37 38 -44 0 -7 8 -16 17 -19 15
-6 15 -8 3 -16 -13 -8 -12 -10 3 -10 15 0 22 -11 18 -33 0 -4 6 -7 15 -7 11 0
15 -6 11 -20 -3 -13 -1 -18 6 -13 6 4 8 0 4 -10 -4 -11 2 -22 15 -31 12 -9 19
-18 16 -21 -3 -4 5 -18 18 -32 14 -16 22 -33 19 -42 -3 -8 -3 -12 1 -8 9 9 45
-44 38 -55 -3 -5 0 -7 8 -6 7 2 12 -3 11 -9 -2 -7 4 -13 12 -13 9 0 18 -6 21
-14 3 -8 12 -12 20 -9 8 3 14 0 14 -6 0 -7 8 -8 24 -1 13 5 27 6 31 2 4 -4 2
4 -5 17 -11 22 -11 23 6 17 18 -6 18 -5 2 7 -10 8 -15 17 -11 20 3 4 1 7 -5 7
-7 0 -12 8 -12 17 0 9 -8 25 -17 36 -10 11 -12 17 -5 13 6 -4 12 -2 12 3 0 6
-5 11 -11 11 -5 0 -7 5 -4 10 3 6 2 10 -3 10 -5 0 -9 7 -10 15 -1 8 -3 22 -4
30 -1 8 -6 15 -11 15 -5 0 -4 7 3 15 9 11 9 15 1 15 -7 0 -9 5 -6 10 4 6 10 8
15 5 4 -3 10 0 12 5 2 7 15 6 37 -3 22 -9 29 -16 20 -20 -10 -4 -9 -6 3 -6 15
-1 41 -32 35 -42 -1 -2 0 -3 2 -2 9 6 32 -38 25 -49 -4 -6 -3 -8 3 -5 10 7 43
-27 43 -44 0 -6 6 -9 14 -6 8 3 16 1 18 -4 2 -5 12 -2 23 6 11 9 14 14 7 10
-6 -3 -12 -1 -12 4 0 6 4 11 10 11 6 0 7 15 4 37 -3 21 -7 43 -7 48 -1 6 -6
13 -10 16 -5 3 -9 12 -11 20 -4 25 -39 98 -46 94 -3 -2 -12 6 -20 18 -12 21
-12 21 5 7 18 -14 18 -13 0 12 -11 15 -23 28 -27 28 -5 0 -8 5 -8 12 0 6 -11
26 -26 45 -14 18 -21 33 -17 33 4 0 0 5 -10 11 -9 6 -15 14 -12 20 4 5 1 9 -4
9 -6 0 -11 7 -11 15 0 8 -4 15 -10 15 -5 0 -10 5 -10 11 0 5 4 8 9 5 5 -4 4 5
-2 18 -7 13 -14 23 -18 21 -3 -2 -6 2 -6 10 0 8 3 15 7 15 3 0 6 9 6 20 0 11
-4 20 -9 20 -5 0 -3 8 4 17 12 14 12 16 0 8 -11 -6 -12 -5 -5 6 9 14 13 29 16
61 1 10 7 18 13 18 5 0 3 5 -5 10 -11 7 -12 10 -2 10 8 0 12 6 10 12 -3 7 2
19 10 27 7 8 12 25 9 38 -5 27 5 36 58 53 39 12 67 23 140 56 19 8 40 12 45 9
6 -3 10 -2 10 2 0 8 26 13 80 16 42 2 189 -56 210 -83 3 -3 28 -18 55 -32 117
-61 140 -73 145 -78 5 -5 18 -9 57 -17 35 -8 71 5 78 27 7 22 0 31 -60 75
-103 77 -136 118 -113 141 21 22 59 20 113 -6 28 -13 53 -22 58 -22 4 1 7 -3
7 -9 0 -5 4 -7 10 -4 6 3 10 1 10 -5 0 -7 7 -10 15 -6 8 3 15 2 15 -3 0 -4 10
-7 23 -6 17 1 22 8 24 33 1 24 -8 41 -41 74 -23 24 -57 52 -76 63 -79 44 -119
66 -198 106 -98 50 -133 82 -165 146 -22 43 -28 63 -44 128 -9 40 -12 50 -13
53 -2 1 -3 10 -4 20 -1 9 -5 23 -9 30 -7 11 3 17 25 13 4 0 5 8 3 19 -2 11 -1
19 3 17 8 -2 51 39 53 51 3 16 47 60 55 54 5 -4 2 2 -6 12 -8 11 -10 17 -3 13
7 -4 16 0 22 10 6 10 11 14 11 10 0 -5 15 7 34 26 19 20 37 33 40 30 3 -3 12
0 20 6 8 7 20 10 26 6 5 -3 10 -1 10 5 0 7 7 10 15 6 8 -3 15 0 15 7 0 8 3 8
9 -1 7 -12 12 -12 30 0 17 10 23 10 29 1 5 -8 13 -9 22 -3 19 12 33 13 26 2
-3 -5 1 -9 9 -9 8 0 12 4 9 9 -3 4 0 8 5 8 6 0 11 -4 11 -10 0 -6 10 -6 27 1
20 7 29 7 31 -1 3 -7 9 -7 20 2 12 10 16 10 19 1 3 -9 10 -10 24 -3 14 8 19 7
19 -2 0 -9 2 -10 8 -2 4 7 22 10 40 8 17 -2 32 0 32 5 0 5 13 7 29 5 19 -2 31
2 35 12 3 8 10 13 15 10 5 -3 12 1 15 10 4 10 2 13 -7 9 -6 -4 -5 -1 4 7 20
16 10 46 -13 42 -10 -1 -18 2 -18 7 0 6 -4 7 -10 4 -5 -3 -10 0 -10 7 0 9 -3
9 -10 -2 -8 -12 -11 -13 -19 -1 -6 9 -11 10 -15 2 -5 -8 -13 -8 -27 0 -12 6
-23 8 -27 5 -3 -3 -16 1 -30 10 -13 9 -21 11 -18 5 10 -15 5 -14 -35 6 -27 14
-30 18 -15 21 14 3 16 6 6 12 -11 7 -10 11 2 24 9 8 18 12 22 9 3 -4 6 -1 6 6
0 8 7 11 15 7 8 -3 15 -2 15 3 0 4 20 7 45 6 24 -1 42 2 39 6 -2 4 9 4 26 -1
21 -6 28 -5 24 2 -5 7 2 9 20 6 19 -4 29 0 36 12 5 10 7 20 4 23 -3 3 -7 13
-8 24 -2 10 -10 17 -20 15 -9 -2 -16 3 -16 9 0 7 -3 9 -7 6 -3 -4 -13 -1 -21
6 -11 8 -13 8 -9 0 5 -7 0 -9 -13 -6 -11 3 -18 8 -15 12 2 4 -13 6 -33 4 -20
-1 -39 3 -44 10 -6 9 -8 9 -8 0 0 -8 -18 -10 -55 -8 -39 3 -53 1 -49 -7 5 -7
2 -8 -6 -3 -8 5 -32 7 -55 6 -84 -6 -157 -6 -161 0 -2 4 -14 5 -26 1 -16 -4
-19 -2 -13 8 6 10 3 12 -13 8 -13 -4 -25 -1 -30 6 -4 7 -17 18 -30 25 -12 7
-20 17 -16 23 4 7 3 8 -4 4 -7 -4 -12 -2 -12 5 0 7 -3 10 -6 6 -8 -7 -48 32
-57 56 -3 9 -13 17 -21 17 -8 0 -18 9 -21 20 -3 11 -12 20 -20 20 -7 0 -12 8
-10 18 2 9 4 17 6 17 1 0 3 9 4 20 1 11 6 36 9 55 4 19 7 44 7 55 -1 69 56
201 100 233 10 7 25 19 34 28 8 8 15 12 15 7 0 -4 4 -3 8 3 9 14 74 49 85 46
4 -1 7 2 7 6 0 5 18 17 40 27 22 10 40 21 40 25 0 5 11 11 25 14 14 4 25 11
25 16 0 6 6 10 13 10 16 0 71 49 85 77 7 12 12 30 12 41 0 22 -23 46 -34 34
-4 -4 -11 -7 -14 -8 -4 0 -20 -6 -35 -12 -15 -7 -39 -15 -52 -18 -14 -3 -25
-11 -25 -17 0 -6 -2 -8 -6 -5 -3 3 -24 0 -47 -6 -23 -7 -49 -11 -59 -9 -25 6
-12 63 23 93 46 39 83 65 92 62 4 -1 7 3 7 9 0 5 5 7 10 4 6 -4 9 -3 8 2 -2 4
8 19 20 31 23 23 23 24 4 37 -22 16 -68 26 -76 17 -4 -3 -16 -7 -28 -9 -12 -2
-55 -21 -94 -42 -40 -22 -76 -36 -80 -33 -4 4 -4 2 -1 -4 5 -9 -40 -39 -51
-35 -1 1 -10 -5 -18 -14 -9 -8 -36 -27 -62 -42 -26 -15 -49 -30 -52 -33 -3 -3
-12 -7 -20 -8 -8 -2 -24 -6 -35 -9 -47 -11 -126 -3 -180 17 -14 5 -25 8 -25 5
0 -2 -16 3 -35 11 -19 8 -35 11 -35 8 0 -4 -7 -1 -15 6 -8 7 -15 9 -15 4 -1
-11 -40 93 -47 124 -3 12 -9 22 -14 22 -5 0 -9 11 -9 24 0 14 -4 27 -9 30 -17
11 -37 156 -22 156 5 0 7 11 6 25 -2 14 1 25 6 25 5 0 8 3 7 8 -4 15 14 52 23
47 5 -3 6 1 3 9 -3 9 -1 16 5 16 6 0 11 9 11 20 0 11 4 20 8 20 4 0 21 25 37
55 17 30 34 55 38 55 5 0 5 5 2 10 -3 6 -1 10 5 10 6 0 9 4 5 9 -3 5 3 17 12
27 10 10 17 20 17 23 -1 3 3 17 8 31 22 57 21 86 -4 113 -23 25 -25 25 -38 7
-7 -10 -17 -17 -22 -14 -4 3 -8 -2 -8 -12 0 -9 -11 -27 -26 -40 -14 -13 -22
-24 -19 -24 3 0 -8 -13 -25 -30 -17 -16 -27 -30 -23 -30 14 -1 -42 -29 -58
-30 -9 0 -16 6 -16 13 0 6 -3 24 -6 40 -3 15 -1 27 4 27 5 0 8 3 7 8 -3 16 15
62 25 62 6 0 7 3 4 7 -4 3 0 15 10 25 9 10 13 18 10 18 -3 0 0 18 8 40 12 35
12 40 -1 40 -9 0 -12 5 -8 11 4 8 1 8 -12 1 -11 -5 -27 -8 -36 -7 -10 2 -16
-2 -15 -8 1 -7 -6 -11 -15 -11 -10 1 -16 -2 -13 -6 3 -5 -4 -19 -15 -32 -54
-65 -69 -86 -63 -92 3 -3 0 -6 -7 -6 -7 0 -11 -3 -7 -6 3 -4 -5 -22 -18 -42
-13 -19 -22 -39 -19 -44 3 -4 -2 -11 -10 -14 -9 -3 -13 -10 -10 -15 3 -5 0 -9
-6 -9 -6 0 -9 -4 -6 -9 4 -5 1 -11 -5 -13 -7 -2 -13 -13 -13 -24 -1 -10 -10
-28 -19 -39 -9 -11 -17 -23 -17 -27 0 -13 -62 -68 -70 -63 -4 3 -11 -3 -14
-12 -6 -15 -8 -15 -16 -3 -8 13 -10 12 -10 -2 0 -12 -12 -19 -37 -25 -47 -9
-45 -8 -63 -16 -8 -4 -25 -8 -37 -10 -12 -2 -26 -6 -29 -10 -4 -4 -13 -2 -21
4 -10 9 -13 8 -13 -5 0 -17 -9 -20 -35 -10 -13 5 -14 8 -3 15 10 7 10 9 -2 9
-8 0 -35 18 -60 40 -24 22 -48 40 -53 40 -4 0 -29 22 -55 50 -62 65 -74 80
-66 80 4 0 -1 10 -12 22 -12 13 -13 18 -4 13 13 -8 13 -7 1 9 -11 13 -15 62
-16 216 -1 110 -5 203 -8 207 -4 3 -7 17 -7 30 0 13 -7 26 -15 29 -8 4 -13 10
-10 14 3 4 -7 11 -22 15 -39 9 -46 -5 -57 -115 -3 -34 -9 -67 -13 -74 -8 -11
-9 -16 -11 -49 -1 -10 -6 -15 -12 -12 -5 3 -10 2 -10 -4 0 -7 -9 -7 -26 1 -17
8 -24 18 -21 30 3 10 1 16 -4 12 -5 -3 -9 -2 -10 3 0 4 -2 18 -5 30 -2 12 -6
48 -8 80 -2 32 -7 68 -11 80 -8 24 -31 37 -40 22z m-915 -559 c-8 -5 -19 -10
-25 -10 -5 0 -3 5 5 10 8 5 20 10 25 10 6 0 3 -5 -5 -10z m1110 -181 c0 -4 11
-6 24 -3 14 2 28 0 31 -6 4 -6 11 -8 16 -4 5 3 15 2 22 -3 7 -5 31 -15 54 -23
23 -7 40 -16 38 -20 -2 -4 2 -7 9 -7 23 0 106 -42 106 -54 0 -6 7 -17 15 -25
12 -12 15 -12 15 -2 0 8 4 6 11 -5 8 -13 14 -15 30 -7 10 6 19 7 19 2 0 -4 9
-8 19 -8 11 0 18 3 16 7 -5 8 71 3 85 -6 5 -3 10 -2 10 2 0 7 81 10 98 4 1 -1
4 -1 7 -2 2 0 19 -5 37 -10 18 -6 42 -12 53 -14 11 -3 21 -9 23 -15 2 -6 8 -8
13 -4 5 3 12 -2 15 -10 3 -9 10 -14 15 -11 4 3 24 -10 44 -29 19 -19 35 -32
35 -30 0 2 8 -4 18 -13 12 -12 14 -21 8 -25 -7 -5 -5 -8 4 -8 13 0 40 -30 40
-45 0 -3 9 -14 21 -26 11 -11 18 -27 15 -35 -4 -10 -2 -12 6 -8 18 11 39 -25
27 -47 -7 -14 -6 -19 2 -19 7 0 10 -3 6 -6 -3 -3 6 -16 21 -29 31 -25 160
-100 191 -110 12 -3 21 -13 21 -21 0 -8 4 -13 8 -10 10 6 62 -40 62 -54 0 -6
7 -10 15 -10 8 0 15 -7 15 -15 0 -7 8 -19 18 -24 9 -6 14 -11 9 -11 -4 0 0
-11 9 -25 9 -14 14 -28 11 -32 -3 -3 1 -12 9 -21 9 -8 13 -23 11 -33 -3 -10
-1 -19 4 -21 5 -2 11 -41 15 -88 3 -47 7 -96 9 -110 1 -14 -2 -30 -7 -37 -6
-7 -6 -18 -2 -24 4 -8 3 -9 -4 -5 -7 4 -12 3 -12 -3 0 -5 5 -13 10 -16 6 -4 8
-11 5 -16 -4 -5 1 -16 10 -25 9 -9 14 -23 11 -31 -3 -8 -1 -11 4 -8 9 6 14 -8
11 -28 0 -4 2 -6 6 -5 5 2 9 -1 10 -5 1 -5 9 -14 18 -21 9 -6 17 -21 18 -33 0
-12 6 -21 11 -20 6 1 10 -2 11 -8 0 -5 6 -20 13 -33 7 -12 15 -36 17 -53 2
-17 10 -38 17 -47 10 -12 10 -14 1 -8 -7 4 -13 2 -13 -3 0 -6 3 -11 8 -11 4 0
6 -30 6 -67 -2 -52 -5 -67 -15 -65 -11 3 -11 1 -3 -8 9 -9 8 -19 -3 -41 -8
-16 -12 -37 -9 -45 3 -8 2 -12 -4 -9 -6 3 -10 1 -10 -4 0 -22 -2 -26 -15 -41
-7 -8 -15 -19 -17 -25 -2 -5 -6 -9 -10 -8 -4 2 -5 -6 -3 -17 2 -10 -3 -24 -11
-30 -7 -7 -11 -16 -8 -21 3 -5 -2 -9 -10 -9 -32 0 -41 -42 -42 -190 -1 -108
-6 -156 -18 -190 -9 -25 -18 -49 -20 -55 -9 -34 -42 -85 -55 -85 -8 0 -12 -3
-8 -6 8 -9 -16 -33 -27 -26 -5 3 -6 0 -3 -5 7 -12 -23 -38 -123 -105 -66 -45
-105 -65 -96 -49 4 5 -3 7 -15 4 -11 -3 -18 -11 -15 -19 3 -7 0 -16 -6 -20 -7
-5 -8 -2 -3 6 5 9 4 11 -3 6 -7 -4 -12 -13 -12 -21 0 -8 -10 -23 -22 -35 -12
-11 -18 -20 -13 -20 5 0 0 -7 -11 -16 -10 -8 -12 -12 -4 -8 11 6 10 2 -3 -13
-9 -11 -14 -23 -10 -26 3 -4 1 -7 -6 -7 -7 0 -9 -5 -5 -12 5 -8 2 -9 -12 -4
-10 4 -15 4 -11 0 4 -4 1 -14 -6 -22 -10 -13 -9 -15 3 -8 8 4 6 -1 -5 -11 -12
-10 -24 -26 -28 -37 -4 -10 -13 -16 -22 -13 -9 4 -12 1 -9 -7 7 -17 -72 -80
-87 -70 -8 5 -9 3 -4 -6 6 -10 4 -12 -8 -7 -9 3 -18 0 -21 -9 -3 -9 -10 -12
-16 -9 -5 3 -10 1 -10 -5 0 -6 -4 -9 -10 -5 -5 3 -25 -1 -45 -9 -20 -9 -33
-11 -29 -5 4 8 0 8 -14 0 -11 -6 -31 -11 -44 -11 -85 0 -107 -3 -101 -14 3 -7
1 -6 -7 1 -9 9 -17 9 -26 2 -9 -7 -14 -4 -19 10 -5 16 -11 19 -23 12 -9 -4
-23 -6 -29 -4 -7 3 -13 0 -13 -6 0 -6 -7 -7 -17 -4 -12 5 -14 3 -8 -8 7 -12 6
-12 -11 1 -10 8 -16 10 -11 5 9 -11 -73 -66 -86 -58 -6 3 -7 2 -4 -3 5 -9 -28
-29 -110 -67 -12 -5 -33 -11 -45 -11 -13 -1 -28 -5 -33 -8 -6 -4 -40 -5 -75
-3 -100 7 -110 8 -110 18 0 4 -4 6 -9 2 -5 -3 -12 -1 -16 5 -4 6 -10 8 -15 5
-5 -3 -16 2 -24 11 -9 8 -16 13 -16 10 0 -3 -13 0 -30 5 -16 6 -30 15 -30 21
0 5 -4 7 -9 3 -5 -3 -12 -1 -16 5 -3 5 -15 10 -27 10 -11 0 -22 8 -25 20 -3
11 -9 20 -14 20 -5 0 -9 6 -9 13 0 7 -14 12 -37 11 -21 0 -41 5 -45 10 -6 8
-10 8 -15 1 -7 -9 -178 -13 -208 -5 -22 6 -31 7 -53 8 -13 1 -21 5 -19 10 3 4
-7 8 -21 9 -15 0 -28 6 -30 12 -2 6 -8 9 -12 6 -5 -3 -21 6 -36 20 -15 14 -33
25 -42 25 -9 0 -12 6 -8 17 4 10 4 14 0 11 -10 -11 -99 88 -96 106 1 3 -14 22
-33 43 -33 36 -48 72 -24 57 7 -4 3 8 -7 25 -10 18 -35 42 -54 54 -19 11 -38
25 -41 30 -3 5 -9 9 -12 9 -19 0 -47 12 -47 19 0 5 -7 9 -15 9 -8 0 -24 9 -34
19 -11 11 -21 17 -24 15 -7 -7 -121 108 -125 126 -2 8 -7 17 -12 20 -10 6 -41
80 -33 80 3 0 1 6 -4 13 -6 6 -10 19 -10 27 -1 23 -11 72 -17 78 -3 3 -1 11 5
19 6 7 8 13 3 13 -5 0 -9 15 -8 33 0 17 -3 42 -7 54 -6 15 -3 23 7 27 17 7 19
57 1 75 -10 11 -9 12 1 6 11 -6 12 -3 3 14 -7 11 -14 21 -17 21 -3 0 -2 -6 2
-12 4 -7 3 -9 -1 -5 -9 7 -15 28 -17 54 -1 7 -9 15 -19 18 -9 3 -23 20 -30 38
-7 18 -22 45 -33 61 -11 16 -15 26 -8 22 8 -5 10 -2 6 8 -3 9 -11 16 -17 16
-6 0 -8 3 -4 6 3 3 1 18 -5 33 -6 14 -10 41 -9 59 1 21 -2 31 -9 27 -6 -4 -7
2 -2 17 4 13 7 37 7 53 0 17 7 36 15 43 8 8 9 11 3 7 -15 -7 -18 11 -3 20 5 3
7 12 3 20 -3 10 1 15 13 15 11 0 15 3 8 8 -7 5 -7 14 1 29 7 13 15 20 19 16 4
-4 4 0 1 9 -4 9 -1 19 4 23 6 3 9 11 6 16 -4 5 -1 9 5 9 6 0 8 5 5 10 -3 6 -1
10 5 10 6 0 9 4 5 9 -3 5 -1 12 5 16 6 4 8 11 5 16 -6 8 2 11 22 8 7 -1 25 29
31 51 2 8 5 80 7 160 4 159 5 170 15 170 3 0 6 9 7 21 3 41 55 123 113 176 32
30 61 54 64 54 6 -1 13 4 49 34 18 16 83 55 91 55 4 0 4 -6 0 -12 -6 -10 -5
-10 8 -1 8 7 17 11 20 8 3 -3 11 2 19 12 11 13 11 15 1 9 -11 -7 -11 -4 -1 12
8 12 19 18 28 14 14 -5 14 -4 2 12 -8 9 -10 16 -5 14 5 -2 10 2 12 7 2 6 10
17 18 26 8 9 11 19 7 22 -3 4 -1 7 5 7 7 0 11 3 10 8 -3 15 15 42 25 35 5 -3
7 -1 3 5 -3 6 -2 13 4 17 6 4 8 10 5 15 -3 4 2 11 11 14 8 3 12 10 9 16 -3 5
1 10 9 10 15 0 21 13 16 35 -1 5 1 7 5 3 4 -4 18 3 31 15 49 47 81 67 70 46
-4 -8 1 -3 12 10 13 16 25 22 36 18 10 -4 15 -3 11 3 -5 9 15 15 38 11 4 0 7
4 7 10 0 7 12 9 30 7 17 -3 33 -1 36 4 3 5 13 3 22 -4 12 -10 14 -10 8 0 -4 6
-3 12 1 12 5 0 15 -6 22 -12 11 -11 12 -10 6 1 -6 11 0 13 29 9 20 -2 36 -1
36 2 0 5 21 5 63 1 5 -1 5 -7 1 -13 -5 -10 -4 -10 6 -1 11 10 17 10 28 0 12
-9 16 -9 19 1 3 6 11 12 19 12 15 0 94 48 106 65 4 5 8 6 8 2 0 -5 14 1 30 13
17 12 30 18 30 13 0 -4 5 0 11 10 6 9 14 15 20 12 5 -4 9 -2 9 4 0 6 7 8 15 5
8 -4 15 -1 15 4 0 6 9 9 20 7 11 -2 20 0 20 5 0 5 9 7 20 5 11 -2 20 -1 20 3
0 4 23 7 50 8 28 0 50 -3 50 -7z"/>
<path d="M2438 3997 c-15 -17 -28 -36 -28 -43 0 -8 -6 -14 -12 -14 -9 0 -9 -3
-3 -8 6 -4 11 -18 12 -32 1 -40 14 -70 29 -70 8 0 14 -4 14 -10 0 -5 9 -10 19
-10 11 0 23 -5 26 -10 4 -7 12 -7 24 0 10 5 21 6 25 3 3 -3 6 -1 6 6 0 7 5 9
10 6 6 -3 10 -2 10 4 0 5 7 16 15 24 22 22 17 137 -6 137 -5 0 -9 7 -9 15 0
14 -12 19 -32 16 -5 0 -8 3 -8 7 0 5 -14 8 -32 8 -22 0 -40 -9 -60 -29z"/>
<path d="M3247 3843 c-4 -7 -16 -10 -27 -8 -12 2 -18 0 -15 -5 3 -5 -3 -11
-13 -14 -9 -3 -26 -22 -36 -41 -10 -19 -24 -32 -30 -29 -6 3 -2 -2 8 -10 11
-9 15 -16 10 -16 -6 0 -11 -7 -11 -15 0 -8 4 -12 9 -9 4 3 8 -3 8 -14 0 -24
57 -68 82 -64 15 3 18 0 12 -10 -4 -7 1 -6 12 3 10 9 29 20 41 23 13 4 22 10
22 14 -2 13 13 52 20 52 3 0 6 16 7 35 0 19 -3 35 -8 35 -5 0 -7 4 -3 9 8 14
-45 63 -60 57 -8 -3 -15 0 -18 7 -2 8 -5 8 -10 0z"/>
<path d="M1752 3812 c-35 -4 -85 -39 -76 -54 3 -4 1 -8 -4 -8 -6 0 -8 -17 -5
-37 2 -21 5 -44 5 -50 1 -7 5 -13 9 -13 4 0 11 -9 14 -20 4 -11 10 -18 15 -15
4 3 13 -1 19 -9 7 -8 22 -11 38 -8 20 4 24 2 19 -9 -5 -10 -4 -10 6 1 7 8 20
16 28 18 15 3 66 52 54 52 -3 0 -2 6 4 13 7 8 6 18 -3 31 -8 10 -11 24 -8 32
3 9 -1 14 -12 14 -9 0 -13 5 -10 10 3 6 1 10 -5 10 -6 0 -8 5 -4 12 4 7 3 8
-4 4 -6 -4 -19 1 -29 11 -12 12 -29 17 -51 15z"/>
<path d="M2449 3738 c-3 -69 11 -115 32 -102 5 3 9 1 9 -5 0 -12 58 -5 76 10
9 7 14 31 14 65 0 48 -2 54 -20 54 -18 0 -21 -6 -19 -43 3 -47 -5 -67 -26 -67
-17 0 -25 22 -25 71 0 32 -3 39 -20 39 -14 0 -20 -7 -21 -22z"/>
<path d="M2644 3752 c-17 -2 -22 -14 -30 -63 -8 -49 -8 -62 3 -66 19 -7 22 -2
32 48 l9 44 1 -37 c2 -72 33 -94 52 -38 15 40 29 38 19 -3 -6 -29 -5 -33 16
-35 20 -1 23 4 31 61 7 51 6 63 -7 69 -30 13 -41 8 -56 -27 -19 -46 -30 -44
-26 4 4 40 -5 50 -44 43z"/>
<path d="M2310 3710 c0 -22 4 -40 8 -40 4 0 8 -12 7 -27 0 -16 5 -27 11 -26 6
1 30 3 53 4 30 2 41 7 41 19 0 17 -31 24 -40 9 -3 -4 -12 -4 -19 1 -13 8 -18
27 -20 78 -1 15 -7 22 -21 22 -17 0 -20 -7 -20 -40z"/>
<path d="M2212 3733 c-6 -3 -9 -10 -5 -16 4 -7 -1 -6 -10 2 -15 12 -17 11 -18
-5 0 -11 -4 -43 -8 -72 -4 -29 -4 -55 0 -58 11 -7 39 7 33 17 -3 5 2 10 10 10
9 1 22 2 29 3 6 1 17 -1 22 -5 6 -3 17 -4 26 0 14 5 10 16 -25 67 -22 33 -47
59 -54 57z m20 -68 c16 -20 16 -21 -2 -22 -15 -1 -20 5 -20 24 0 15 1 24 3 22
1 -2 10 -13 19 -24z"/>
<path d="M2805 3654 c-20 -61 -20 -63 -2 -68 10 -2 20 2 23 10 15 49 15 49 34
8 22 -51 37 -61 54 -39 21 29 38 107 26 119 -14 14 -32 -5 -33 -38 l-2 -26
-17 22 c-9 13 -15 24 -13 27 8 8 -15 39 -32 43 -14 4 -22 -8 -38 -58z"/>
<path d="M1998 3657 c-16 -6 -28 -14 -28 -19 0 -4 -7 -8 -15 -8 -20 0 -19 0
11 -69 l26 -59 49 22 c31 13 49 27 49 39 0 16 -3 16 -36 2 -44 -18 -41 -18
-48 0 -3 8 -2 14 2 13 17 -5 52 15 52 28 0 15 -11 14 -57 -3 -7 -3 -13 0 -13
6 0 7 14 17 30 22 17 6 30 17 30 25 0 16 -14 16 -52 1z"/>
<path d="M2968 3601 c-20 -40 -24 -59 -16 -68 6 -7 14 -13 18 -13 8 0 33 55
30 66 -1 4 3 10 8 13 5 3 12 16 16 27 5 16 2 23 -11 26 -14 4 -25 -9 -45 -51z"/>
<path d="M1849 3579 c-71 -26 -49 -146 25 -137 14 2 37 15 51 28 14 13 25 20
25 15 0 -5 5 -4 11 2 7 7 5 19 -8 41 l-19 31 -32 -21 c-33 -21 -34 -43 -1 -33
14 5 17 2 13 -8 -10 -28 -43 -27 -64 2 -21 30 -12 51 21 51 25 0 49 11 49 22
0 6 -7 7 -16 4 -8 -3 -12 -2 -9 4 8 12 -11 12 -46 -1z"/>
<path d="M3143 3557 c-4 -7 -21 -21 -38 -32 -51 -32 -58 -43 -37 -54 11 -6 22
-8 25 -5 9 9 45 -19 51 -39 8 -32 28 -14 42 39 17 64 17 70 -2 88 -19 19 -30
20 -41 3z m23 -44 c-1 -18 -14 -33 -28 -33 -4 0 -6 9 -5 19 0 11 4 18 8 15 4
-2 10 0 14 6 9 15 13 12 11 -7z"/>
<path d="M1711 3478 c-22 -18 -41 -36 -41 -42 0 -5 16 -29 36 -52 33 -41 58
-54 66 -36 2 4 17 19 35 33 22 19 28 30 22 40 -6 9 -12 10 -16 4 -5 -5 -18
-18 -30 -28 -29 -25 -40 -4 -12 24 14 14 18 24 11 31 -7 8 -16 6 -27 -6 -9 -9
-21 -16 -26 -16 -16 0 -9 19 13 34 12 9 18 16 13 16 -6 0 -4 4 4 9 7 5 9 11 4
14 -6 4 -29 -8 -52 -25z"/>
<path d="M2165 3473 c1 -23 6 -28 26 -28 19 0 24 5 24 25 0 19 -6 26 -26 28
-23 3 -26 0 -24 -25z m35 -13 c0 -5 -2 -10 -4 -10 -3 0 -8 5 -11 10 -3 6 -1
10 4 10 6 0 11 -4 11 -10z"/>
<path d="M2240 3490 c8 -5 10 -10 3 -10 -6 0 -10 -8 -9 -17 2 -12 13 -19 32
-20 l29 -3 -25 12 -25 11 25 7 c14 5 18 9 10 9 -13 1 -13 2 0 11 11 7 6 10
-20 10 -26 0 -31 -3 -20 -10z"/>
<path d="M2306 3492 c-6 -10 -2 -39 7 -48 4 -4 7 0 7 10 0 16 1 16 16 2 23
-23 30 -20 29 14 0 31 -15 43 -15 13 -1 -17 -1 -17 -14 0 -15 19 -22 21 -30 9z"/>
<path d="M2392 3491 c-8 -5 -12 -17 -10 -27 3 -16 13 -19 69 -19 l66 0 -9 27
c-13 36 -31 36 -45 1 -9 -26 -11 -27 -18 -8 -14 32 -31 41 -53 26z m32 -33
c-8 -13 -33 3 -27 17 4 11 8 12 18 2 7 -7 11 -15 9 -19z"/>
<path d="M2530 3470 c0 -26 4 -30 26 -30 14 0 23 4 19 10 -4 6 -11 8 -16 5 -5
-4 -9 5 -9 19 0 14 -4 26 -10 26 -5 0 -10 -13 -10 -30z"/>
<path d="M2592 3479 c2 -12 11 -27 21 -33 14 -9 21 -7 32 7 7 11 11 25 8 33
-7 20 -20 17 -19 -3 1 -25 -18 -28 -22 -3 -2 11 -8 20 -13 20 -6 0 -9 -10 -7
-21z"/>
<path d="M2670 3470 c0 -16 5 -30 10 -30 9 0 15 23 10 45 -1 6 2 6 7 2 4 -5 8
-16 8 -24 0 -9 6 -18 13 -20 14 -6 12 38 -3 49 -24 18 -45 8 -45 -22z"/>
<path d="M2745 3483 c2 -10 4 -23 4 -28 1 -6 10 -11 21 -12 25 -2 47 34 31 50
-8 8 -11 5 -11 -11 0 -13 -6 -22 -15 -22 -8 0 -15 9 -15 20 0 11 -4 20 -9 20
-5 0 -8 -8 -6 -17z"/>
<path d="M3244 3464 c3 -8 2 -12 -4 -9 -15 9 -11 -28 5 -49 17 -23 19 -36 6
-36 -6 0 -16 12 -23 28 -7 15 -18 26 -23 25 -14 -4 -12 -38 2 -36 7 2 10 -3 7
-11 -5 -14 31 -46 53 -46 20 0 41 29 36 50 -3 11 -10 17 -16 13 -6 -3 -7 -1
-3 5 4 7 3 12 -3 12 -5 0 -8 7 -7 15 4 24 15 29 23 9 4 -10 13 -25 20 -32 19
-19 28 9 13 38 -18 34 -99 57 -86 24z"/>
<path d="M3353 3365 c-20 -14 -23 -52 -3 -40 5 3 6 -5 2 -17 -3 -14 -1 -19 6
-14 8 5 10 2 6 -9 -9 -22 -27 -14 -34 15 -7 28 -25 37 -33 16 -9 -24 35 -81
66 -84 35 -4 58 37 36 64 -20 24 -19 43 1 41 10 0 16 -7 13 -17 -2 -8 1 -22 7
-30 9 -13 11 -13 19 -1 12 18 -11 66 -38 81 -25 13 -22 13 -48 -5z"/>
<path d="M2422 3352 c-18 -10 -29 -21 -25 -25 4 -5 1 -6 -7 -3 -20 7 -86 -27
-82 -43 1 -7 -2 -9 -8 -6 -6 4 -25 1 -41 -5 -25 -11 -28 -15 -17 -29 11 -14
11 -14 -4 -3 -14 11 -26 8 -80 -19 -35 -17 -66 -36 -69 -41 -3 -5 -10 -10 -15
-10 -25 -2 -44 -11 -44 -21 0 -6 -3 -8 -6 -4 -4 3 -61 -22 -127 -55 -123 -63
-128 -69 -56 -80 13 -1 26 -6 29 -10 3 -4 17 -9 30 -11 14 -2 32 -7 40 -10 31
-12 95 -31 105 -32 6 0 10 -9 10 -20 0 -11 -6 -19 -12 -17 -16 3 -15 22 -14
-293 0 -278 1 -298 19 -331 6 -12 9 -24 6 -27 -5 -5 14 -45 26 -57 3 -3 11
-18 18 -33 7 -15 17 -25 22 -22 6 4 9 3 8 -2 -5 -16 30 -55 43 -48 8 6 10 4 4
-4 -7 -13 32 -48 48 -43 4 1 7 -4 7 -12 0 -13 13 -22 33 -24 4 -1 16 -11 25
-22 9 -12 27 -22 39 -23 12 0 21 -6 20 -12 -1 -5 6 -9 15 -9 10 1 16 -1 14 -5
-3 -4 17 -19 44 -33 l48 -26 48 24 c27 13 51 29 55 35 3 6 10 11 15 11 5 0 8
4 7 8 -1 4 5 7 15 6 9 0 16 5 14 12 -1 8 2 11 8 7 5 -3 23 2 40 12 28 16 34
26 31 46 -1 5 3 6 8 3 12 -8 42 4 36 14 -2 4 7 13 20 20 14 7 25 16 25 20 0 3
10 17 23 30 12 14 21 28 20 32 -2 5 1 8 5 8 14 0 50 73 63 125 15 66 19 515 5
534 -8 11 -8 13 0 8 7 -4 10 6 10 28 -1 19 -4 36 -8 36 -5 1 -12 2 -18 3 -22
2 -4 46 19 46 18 0 79 21 100 34 10 7 12 6 6 -4 -4 -7 -8 -52 -9 -101 -1 -50
-6 -93 -12 -99 -14 -14 -6 -152 10 -162 8 -5 7 -8 -1 -8 -7 0 -13 -6 -13 -14
0 -8 11 -13 26 -13 21 0 25 3 20 19 -4 19 -3 19 19 -2 13 -12 28 -19 34 -16 5
4 13 2 16 -4 5 -8 11 -8 19 -1 10 8 11 4 8 -19 -4 -29 -26 -42 -34 -20 -2 6
-15 13 -30 15 -22 4 -26 2 -22 -10 4 -8 10 -15 16 -15 5 0 7 -4 3 -9 -3 -5 11
-15 30 -22 19 -7 35 -19 35 -26 0 -7 4 -13 10 -13 5 0 9 3 9 8 -4 24 5 39 33
53 19 9 35 26 39 42 4 15 6 27 4 27 -11 0 -58 -31 -69 -45 -10 -15 -12 -11
-13 24 0 22 3 38 8 36 11 -8 47 29 51 52 4 25 -32 18 -52 -10 -15 -22 -15 -22
-20 8 -3 17 -3 32 0 35 18 15 47 67 43 78 -7 18 -27 15 -41 -8 -7 -11 -17 -20
-24 -20 -6 0 -8 3 -5 6 9 10 -32 64 -48 64 -9 0 -12 -6 -9 -15 4 -8 1 -15 -5
-15 -6 0 -11 6 -12 13 -3 36 -1 188 2 192 3 2 16 6 29 9 14 3 43 12 64 19 l39
14 -52 26 c-28 15 -51 23 -51 19 0 -4 -4 -2 -8 4 -12 18 -72 45 -84 38 -7 -4
-8 -3 -4 4 4 7 1 12 -8 12 -8 0 -16 5 -18 11 -2 6 -15 12 -30 12 -14 1 -24 4
-22 6 2 2 -20 16 -49 30 -28 14 -55 29 -58 34 -3 4 -16 9 -27 10 -12 1 -22 5
-22 10 0 4 -4 5 -10 2 -5 -3 -10 -2 -10 3 0 5 -8 12 -17 16 -10 3 -25 9 -33
14 -46 27 -78 41 -84 35 -3 -3 -6 -1 -6 5 0 9 -40 28 -48 23 -1 -1 -10 5 -18
14 -20 19 -41 19 -82 -3z m29 -189 c13 -16 12 -17 -3 -4 -17 13 -22 21 -14 21
2 0 10 -8 17 -17z m230 -10 c13 -16 12 -17 -3 -4 -17 13 -22 21 -14 21 2 0 10
-8 17 -17z m-350 -30 c13 -16 12 -17 -3 -4 -17 13 -22 21 -14 21 2 0 10 -8 17
-17z m399 -119 c0 -8 -19 -13 -24 -6 -3 5 1 9 9 9 8 0 15 -2 15 -3z m-157 -46
c-2 -5 7 -8 21 -8 14 0 27 -3 29 -7 3 -5 -66 -8 -153 -8 -160 0 -184 5 -100
22 54 11 210 11 203 1z m-405 -123 c-3 -3 -9 2 -12 12 -6 14 -5 15 5 6 7 -7
10 -15 7 -18z m308 -25 c0 -28 5 -55 10 -60 5 -5 8 8 8 35 -2 32 1 42 11 39 7
-3 12 -13 10 -22 -1 -9 0 -21 4 -27 3 -5 6 -14 6 -20 1 -5 5 -9 10 -8 6 1 10
-22 11 -51 0 -38 -4 -53 -14 -53 -8 0 -12 7 -8 20 5 21 -12 67 -26 67 -5 0 -1
-11 7 -24 12 -18 13 -30 6 -50 -6 -14 -15 -26 -21 -26 -6 0 -8 -5 -4 -11 4 -8
9 -7 15 2 5 8 9 9 9 4 0 -6 9 -11 20 -12 12 -1 18 3 14 9 -4 6 1 6 14 -1 26
-14 35 -14 27 -1 -3 6 1 7 9 4 11 -4 13 -11 6 -23 -6 -12 -5 -22 3 -30 9 -10
8 -11 -5 -6 -12 5 -18 2 -18 -7 0 -12 -18 -15 -97 -14 -54 1 -106 -2 -115 -6
-13 -7 -16 -5 -12 7 4 8 -1 26 -9 39 -17 26 -13 38 9 29 8 -3 14 1 14 8 0 9 3
10 8 4 4 -5 26 -10 50 -11 l43 -1 -41 24 c-22 13 -40 26 -40 29 0 3 6 2 13 -2
8 -6 8 -3 -1 9 -9 11 -12 31 -8 59 3 24 5 46 5 51 2 15 21 6 22 -10 0 -16 16
15 35 70 11 31 19 18 20 -33z m605 -73 c26 -13 35 -47 13 -47 -7 0 -16 5 -19
10 -4 6 -10 8 -15 5 -5 -3 -14 3 -19 14 -8 14 -8 21 2 24 6 3 13 6 13 6 1 1
12 -5 25 -12z m-757 -15 c3 -5 -1 -9 -9 -9 -8 0 -12 4 -9 9 3 4 7 8 9 8 2 0 6
-4 9 -8z m743 -63 c8 -8 17 -7 34 1 13 7 21 9 17 5 -4 -4 -3 -18 2 -31 11 -28
12 -28 -34 -9 -20 8 -38 15 -41 15 -3 0 -5 2 -5 5 0 3 0 10 0 15 0 13 13 13
27 -1z m-861 -134 c-1 -8 -5 -17 -8 -21 -5 -4 -4 16 1 34 3 9 9 -1 7 -13z
m339 -46 c0 -26 -3 -45 -7 -42 -5 2 -8 1 -9 -4 -1 -19 -10 -63 -26 -142 -24
-109 -41 -117 -58 -25 -2 10 -4 19 -5 19 -2 0 -7 24 -15 75 -4 24 -11 52 -15
61 -5 9 -7 19 -3 22 3 3 2 14 -2 24 -4 10 -9 28 -11 40 -2 22 0 22 75 21 l77
-1 -1 -48z m-215 -35 c0 -8 -19 -13 -24 -6 -3 5 1 9 9 9 8 0 15 -2 15 -3z m77
-67 c2 -26 13 -84 22 -114 9 -32 9 -32 -22 -28 -36 5 -97 -12 -97 -26 0 -5 -6
-9 -12 -9 -7 0 -22 -8 -33 -17 -19 -15 -19 -15 10 -8 17 4 58 9 92 12 58 5 62
4 65 -17 7 -51 69 -51 76 -1 3 22 7 22 75 17 40 -3 83 -8 97 -11 l25 -7 -25
16 c-54 34 -106 56 -133 56 -19 0 -26 -4 -21 -12 4 -6 3 -8 -4 -4 -6 3 -8 21
-6 39 3 17 7 43 8 57 6 48 17 70 37 70 17 0 56 -17 69 -30 12 -13 60 -40 60
-34 0 4 7 1 15 -6 8 -7 12 -16 9 -21 -3 -5 -2 -9 3 -9 4 0 9 -12 9 -27 5 -106
8 -122 18 -116 7 4 7 1 -1 -7 -9 -10 -24 -9 -75 4 -80 19 -122 16 -145 -12
-30 -36 -99 -35 -109 2 -6 24 -9 25 -72 21 -37 -2 -68 -8 -70 -14 -2 -5 -12
-7 -22 -4 -13 3 -22 -1 -27 -13 -6 -16 -7 -16 -13 2 -4 10 -3 27 2 37 6 11 5
17 -2 17 -7 0 -8 6 0 19 12 24 13 34 1 26 -5 -3 -13 0 -17 6 -4 7 -3 9 4 5 14
-9 21 4 24 47 1 26 7 37 18 37 22 0 100 52 94 62 -3 4 1 5 9 2 8 -3 18 -1 21
4 8 13 42 4 43 -11z m83 -206 c0 -19 -23 -35 -34 -24 -14 15 -5 43 14 43 13 0
20 -7 20 -19z m80 -125 c0 -2 -7 -7 -16 -10 -8 -3 -12 -2 -9 4 6 10 25 14 25
6z"/>
<path d="M1583 3353 c-7 -3 -13 -9 -13 -14 0 -13 76 -89 89 -89 6 0 27 16 47
36 24 26 32 40 25 47 -8 8 -19 3 -38 -16 -26 -24 -29 -25 -43 -9 -28 31 -55
49 -67 45z"/>
<path d="M3794 3299 c-3 -5 -11 -9 -17 -8 -23 3 -32 -1 -61 -26 -23 -20 -29
-33 -29 -65 0 -46 20 -90 40 -90 7 0 13 -5 13 -10 0 -6 18 -10 41 -8 33 2 50
10 80 41 22 21 37 42 34 47 -3 5 -1 11 4 15 13 7 7 37 -14 69 -10 14 -18 26
-19 26 0 0 -16 4 -33 9 -21 6 -35 6 -39 0z"/>
<path d="M1193 3249 c-29 -11 -63 -41 -57 -51 3 -4 1 -8 -5 -8 -5 0 -8 -8 -6
-17 2 -10 4 -25 4 -33 1 -14 71 -98 71 -85 0 2 10 1 23 -4 28 -11 81 9 107 41
35 41 18 116 -30 139 -41 19 -84 26 -107 18z"/>
<path d="M3445 3246 c-39 -17 -60 -59 -43 -89 26 -49 52 -60 97 -41 23 10 31
19 27 29 -3 9 -2 13 4 10 24 -15 8 47 -20 75 -16 16 -31 30 -32 30 -2 -1 -17
-7 -33 -14z m53 -46 c10 -17 10 -24 0 -38 -12 -16 -19 -18 -55 -14 -22 3 -15
48 10 60 30 15 31 15 45 -8z"/>
<path d="M1486 3234 c-8 -21 -8 -24 4 -24 6 0 18 -8 29 -17 54 -51 91 -63 77
-26 -3 8 -2 12 3 8 5 -3 19 8 30 23 15 21 17 32 9 40 -8 8 -17 4 -33 -18 -17
-22 -24 -27 -33 -18 -7 7 -12 9 -12 5 0 -3 -12 5 -26 18 -31 29 -40 31 -48 9z"/>
<path d="M1453 3160 c-27 -11 -50 -57 -45 -87 4 -29 38 -53 74 -53 18 0 33 9
48 30 29 41 23 79 -15 101 -35 21 -34 20 -62 9z m54 -55 c17 -28 16 -35 -9
-44 -26 -10 -46 2 -58 34 -14 36 46 46 67 10z"/>
<path d="M3512 3097 c-34 -16 -44 -59 -21 -96 11 -18 23 -29 28 -26 5 3 11 1
13 -5 2 -5 9 -6 17 -1 10 7 11 13 2 27 -6 11 -11 15 -11 11 0 -4 -9 -3 -20 3
-16 9 -18 15 -10 30 15 27 55 36 75 16 9 -9 12 -16 7 -16 -14 0 -21 -25 -12
-40 15 -24 43 9 36 42 -11 57 -52 78 -104 55z"/>
<path d="M1360 2993 c-37 -47 -17 -96 48 -115 26 -7 65 23 74 59 6 21 -15 63
-31 63 -11 0 -10 -32 0 -46 6 -7 3 -16 -6 -24 -23 -19 -70 -1 -71 27 -1 13 2
20 7 18 9 -6 39 22 39 36 0 20 -40 8 -60 -18z"/>
<path d="M3580 2947 c-42 -17 -55 -26 -52 -39 4 -21 1 -21 43 -7 75 24 89 32
89 50 0 24 -12 23 -80 -4z"/>
<path d="M3560 2870 c-16 -10 -5 -44 13 -37 9 3 12 -9 9 -50 -3 -61 -7 -61 71
-5 31 23 46 40 43 49 -3 8 -6 18 -6 23 0 13 -38 18 -51 6 -9 -8 -10 -8 -4 3 5
9 3 12 -6 9 -8 -3 -23 -2 -35 3 -11 4 -27 4 -34 -1z m90 -49 c0 -5 -7 -12 -16
-15 -22 -9 -24 -8 -24 9 0 8 9 15 20 15 11 0 20 -4 20 -9z"/>
<path d="M1858 2793 c-25 -30 -33 -47 -17 -38 11 6 11 5 2 -5 -8 -9 -16 -9
-30 -1 -10 6 -13 11 -8 11 10 0 -15 20 -27 20 -13 0 0 -52 19 -73 14 -16 18
-30 14 -52 l-6 -29 -18 27 c-22 34 -49 36 -43 5 3 -13 5 -27 5 -32 1 -4 8 -6
15 -3 10 4 13 1 9 -9 -3 -9 0 -14 8 -12 17 4 25 -40 10 -55 -8 -8 -11 -6 -11
6 0 9 -3 16 -7 15 -5 -1 -18 3 -30 10 -20 11 -23 10 -23 -6 0 -24 30 -59 55
-63 13 -3 19 -13 20 -32 1 -15 -2 -27 -7 -27 -4 0 -8 5 -8 10 0 6 -8 10 -18
10 -10 0 -23 5 -30 12 -6 6 -15 9 -19 5 -9 -10 18 -57 34 -57 7 0 13 -4 13
-10 0 -5 6 -7 14 -4 17 7 27 -9 30 -46 1 -19 -2 -26 -11 -23 -7 3 -13 9 -13
13 0 13 -59 30 -65 19 -4 -5 -3 -14 0 -19 11 -18 67 -42 89 -38 18 4 21 -1 21
-32 1 -27 -3 -36 -16 -36 -10 0 -16 3 -13 7 2 4 -8 9 -21 12 -14 2 -28 0 -32
-6 -10 -16 38 -49 64 -44 13 2 23 0 23 -5 0 -5 5 -6 10 -3 6 3 10 -3 10 -14 0
-11 5 -23 10 -26 6 -3 10 -12 10 -18 0 -8 -3 -7 -9 2 -5 7 -14 10 -20 7 -6 -4
-11 -3 -11 1 0 5 -14 10 -30 11 -20 2 -29 -2 -28 -10 4 -20 39 -37 74 -38 22
0 36 -7 48 -25 19 -29 20 -39 4 -28 -21 12 -41 13 -57 0 -11 -9 -13 -9 -8 0 5
7 0 9 -14 6 -22 -6 -21 -6 2 -24 31 -23 65 -29 86 -14 14 11 20 9 36 -12 16
-20 17 -27 7 -36 -10 -9 -11 -9 -5 2 6 10 -1 12 -34 8 -49 -5 -58 -12 -43 -30
12 -15 88 -17 109 -4 7 4 21 -2 33 -15 l21 -23 -33 -8 c-18 -4 -38 -9 -45 -10
-21 -5 -24 -14 -8 -27 8 -7 15 -9 15 -6 0 4 10 2 21 -5 17 -8 20 -8 14 1 -5 8
-3 11 6 8 8 -3 25 0 39 7 20 9 30 9 50 -1 14 -8 22 -14 18 -15 -5 -1 -12 -3
-18 -4 -5 -1 -15 -3 -21 -4 -5 0 -8 -5 -5 -9 3 -5 -5 -8 -17 -8 -13 1 -21 -4
-19 -12 1 -8 -2 -11 -7 -8 -5 4 -12 2 -16 -4 -11 -18 25 -23 65 -10 22 7 41
19 44 27 4 11 15 13 38 8 31 -6 32 -5 14 9 -10 9 -23 13 -28 9 -6 -3 -6 2 0
13 13 25 13 75 -1 67 -5 -3 -7 -2 -4 4 4 6 0 19 -8 29 -13 16 -16 17 -24 4
-11 -16 -12 -15 -29 23 -6 15 -16 27 -21 27 -17 0 -24 -59 -9 -77 12 -15 11
-15 -9 -5 -28 15 -34 33 -17 52 20 23 24 66 8 87 -12 16 -15 16 -24 3 -14 -21
-12 -33 3 -24 7 4 9 3 4 -2 -5 -5 -14 -9 -20 -9 -7 0 -11 -11 -9 -25 3 -21 2
-22 -12 -11 -14 12 -14 16 4 41 21 29 24 47 14 74 -10 25 -20 19 -42 -25 l-20
-40 -15 30 c-10 21 -11 28 -2 25 16 -6 39 22 29 37 -4 8 -3 9 4 5 8 -5 12 4
12 30 l0 37 -24 -24 c-13 -13 -27 -35 -31 -48 l-7 -23 -13 23 c-11 22 -9 27
17 53 17 16 27 34 24 43 -3 8 -1 11 4 8 6 -3 10 0 10 8 0 8 -7 17 -15 21 -9 3
-15 0 -15 -10 0 -8 -5 -12 -10 -9 -6 3 -15 -6 -21 -22 -8 -22 -12 -25 -18 -13
-19 34 -22 60 -8 60 21 0 57 43 57 68 0 29 -9 28 -47 -7 -27 -25 -32 -26 -36
-11 -6 23 2 34 39 53 32 16 47 46 35 66 -8 12 -66 -31 -66 -48 0 -5 -3 -12 -7
-16 -3 -4 -5 5 -4 19 2 14 0 26 -5 26 -5 0 -6 7 -3 15 4 8 13 15 21 15 8 0 11
5 7 12 -4 7 -3 8 4 4 20 -12 52 13 52 40 0 25 0 25 -29 8 -17 -10 -28 -21 -26
-24 2 -4 -2 -7 -10 -7 -10 0 -15 11 -15 30 0 21 4 28 14 24 17 -7 79 30 74 44
-2 6 -7 10 -11 10 -4 -1 -13 -1 -20 -1 -7 0 -24 -10 -37 -22 -20 -18 -23 -19
-17 -4 4 10 7 24 7 31 0 7 16 16 36 20 37 7 57 20 61 42 3 15 -58 6 -68 -10
-4 -6 -9 -5 -13 1 -3 6 8 26 26 46 34 39 46 76 24 76 -7 0 -20 -8 -28 -17z
m235 -860 c6 -30 5 -32 -12 -22 -14 10 -16 16 -7 35 6 12 11 22 12 21 1 -1 4
-17 7 -34z"/>
<path d="M1303 2792 c-6 -4 -14 -19 -18 -34 -19 -73 47 -106 75 -37 7 16 16
29 21 29 13 0 11 -14 -6 -46 -10 -20 -11 -30 -4 -33 27 -9 57 58 44 99 -6 19
-37 32 -52 21 -16 -10 -34 -50 -28 -60 3 -5 -4 -7 -15 -4 -19 5 -20 7 -5 29
24 37 18 55 -12 36z"/>
<path d="M3685 2730 c-3 -5 -1 -10 6 -10 8 0 8 -4 -1 -15 -7 -8 -20 -15 -29
-15 -9 0 -23 -6 -30 -12 -11 -11 -12 -10 -6 1 6 11 4 13 -9 8 -10 -4 -20 -7
-22 -7 -2 0 -4 -9 -4 -19 0 -18 5 -19 55 -15 51 5 55 4 55 -15 0 -13 6 -21 16
-21 13 0 15 9 10 55 -3 30 -8 60 -11 65 -8 13 -22 13 -30 0z"/>
<path d="M1269 2626 c-1 -17 -2 -43 -3 -58 -2 -19 2 -27 13 -27 9 0 40 -2 69
-4 33 -2 52 0 53 7 5 88 3 106 -12 106 -9 0 -16 -8 -16 -17 0 -45 -4 -60 -16
-60 -10 0 -13 11 -10 34 3 25 0 33 -13 33 -12 0 -15 -7 -12 -30 3 -17 1 -33
-3 -36 -13 -7 -23 18 -21 51 2 23 -2 32 -13 32 -10 0 -15 -11 -16 -31z"/>
<path d="M3600 2558 c0 -19 2 -20 67 -20 53 -1 74 7 67 26 -5 12 -21 15 -70
14 -54 -2 -64 -5 -64 -20z"/>
<path d="M3935 2546 c-11 -11 -26 -29 -34 -40 -13 -17 -13 -18 0 -11 12 8 12
6 0 -8 -7 -9 -10 -17 -5 -17 5 0 2 -5 -6 -10 -11 -7 -11 -10 -2 -10 7 0 11 -4
8 -9 -4 -5 0 -12 6 -14 10 -4 10 -6 0 -6 -8 -1 -4 -10 10 -25 13 -13 26 -21
31 -19 4 2 7 1 7 -4 0 -4 18 -8 40 -9 22 0 40 4 40 8 0 5 4 7 9 4 5 -3 14 1
21 9 7 8 19 15 27 15 8 0 11 5 7 12 -5 7 -2 9 8 6 11 -5 14 0 12 18 -1 13 3
24 9 24 8 0 8 3 2 8 -5 4 -12 16 -13 27 -2 11 -9 23 -15 28 -9 5 -8 10 3 18
13 9 12 10 -2 5 -24 -7 -49 3 -41 18 4 6 -1 5 -10 -3 -9 -7 -17 -9 -17 -4 0
18 -75 10 -95 -11z"/>
<path d="M1050 2512 c0 -4 -12 -8 -26 -8 -14 -1 -32 -10 -40 -20 -9 -11 -13
-13 -9 -7 4 9 1 11 -10 7 -9 -4 -13 -9 -10 -12 3 -3 -1 -15 -9 -27 -9 -14 -11
-27 -6 -36 6 -9 3 -23 -7 -39 l-16 -25 21 19 c21 18 21 18 17 -3 -2 -11 -1
-20 3 -20 24 4 34 -3 28 -17 -5 -14 -4 -15 9 -4 8 7 15 8 15 2 0 -5 14 -12 30
-14 17 -3 30 -1 30 3 0 4 8 7 18 5 9 -1 31 12 49 31 18 18 28 33 22 33 -6 0
-7 5 -2 13 13 20 10 51 -7 65 -8 8 -9 10 -2 7 11 -6 11 -3 1 13 -7 12 -15 20
-18 20 -4 -1 -13 1 -21 5 -29 10 -60 15 -60 9z"/>
<path d="M1315 2502 c-50 -4 -58 -12 -46 -45 9 -23 17 -27 48 -27 l38 -1 -35
-18 c-19 -11 -38 -17 -42 -14 -5 2 -6 -11 -4 -29 3 -28 7 -33 27 -31 13 1 43
3 67 4 33 2 42 6 42 21 0 14 -8 18 -37 19 l-38 0 38 17 c22 10 39 21 39 26 0
14 -25 26 -52 26 -14 0 -31 4 -39 9 -10 7 -6 9 15 9 54 -1 64 2 64 21 0 19 -4
20 -85 13z"/>
<path d="M3632 2499 c-12 -4 -27 -20 -32 -34 -13 -35 -13 -58 2 -49 6 4 8 3 5
-4 -12 -18 4 -44 24 -39 11 3 17 1 13 -4 -11 -18 47 -8 66 11 23 23 26 76 7
101 -16 21 -56 29 -85 18z m56 -26 c0 -5 2 -16 6 -25 19 -42 -20 -63 -60 -34
-15 12 -17 18 -8 33 7 10 19 17 27 15 9 -1 18 2 22 8 7 12 16 13 13 3z"/>
<path d="M3047 2477 c-6 -18 26 -67 44 -67 9 0 22 -6 28 -14 12 -15 5 -46 -11
-46 -5 0 -6 5 -3 10 3 6 0 10 -8 10 -8 0 -20 7 -27 15 -7 8 -16 12 -22 9 -19
-12 23 -84 49 -84 15 0 15 -4 -1 -50 -13 -35 -13 -35 -21 -10 -8 27 -33 60
-45 60 -4 0 -10 -9 -13 -20 -6 -23 30 -73 45 -64 7 4 8 2 4 -4 -4 -7 -2 -12 4
-12 6 0 8 -4 5 -10 -3 -5 -2 -10 3 -10 6 0 12 7 15 15 4 8 15 12 27 10 13 -2
18 0 14 7 -4 6 -1 9 7 6 19 -7 46 8 59 31 8 16 7 19 -8 16 -9 -2 -25 -4 -35
-4 -11 -1 -15 -6 -11 -13 4 -7 3 -8 -5 -4 -6 4 -19 2 -28 -6 -15 -12 -15 -11
-5 9 7 12 13 33 14 46 2 21 6 24 24 17 24 -9 76 25 80 53 1 10 1 17 -1 17 -12
0 -82 -35 -88 -44 -4 -6 -5 3 -1 19 10 50 13 55 33 55 28 0 74 51 60 65 -8 7
-13 6 -16 -2 -2 -7 -11 -9 -19 -6 -8 3 -14 1 -14 -5 0 -5 -11 -13 -25 -16 -14
-4 -25 -11 -25 -16 0 -6 -4 -10 -10 -10 -5 0 -10 6 -10 13 0 17 -58 49 -63 34z"/>
<path d="M3583 2333 c-8 -19 13 -32 45 -28 23 2 24 1 9 -10 -9 -6 -15 -15 -12
-18 3 -4 2 -5 -1 -2 -14 9 -64 -26 -64 -45 0 -19 20 -25 78 -23 6 1 12 -3 12
-8 0 -5 9 -9 20 -9 13 0 20 7 20 20 0 16 -7 20 -31 20 -27 0 -30 2 -19 15 7 8
19 15 26 15 8 0 14 5 14 11 0 5 4 8 9 4 6 -3 15 3 21 14 13 25 6 29 -67 46
-47 11 -55 11 -60 -2z"/>
<path d="M1404 2256 c-3 -8 -1 -23 5 -35 15 -27 14 -41 -4 -41 -8 0 -15 9 -15
21 0 11 -4 17 -10 14 -6 -4 -7 1 -3 11 4 12 2 15 -8 12 -13 -5 -14 -11 -6 -52
5 -33 -18 -18 -26 16 -6 25 -13 35 -22 32 -14 -6 -13 -25 6 -81 11 -35 12 -36
64 -19 6 2 25 7 43 11 23 5 31 12 28 24 -3 9 -10 35 -17 59 -12 43 -25 53 -35
28z"/>
<path d="M2996 2224 c-9 -24 -7 -54 4 -54 6 0 10 -7 10 -15 0 -7 7 -18 16 -23
14 -8 14 -12 3 -30 -12 -20 -14 -19 -30 19 -18 38 -38 52 -40 27 -1 -7 -2 -20
-3 -28 0 -8 7 -30 17 -48 9 -18 15 -37 12 -43 -4 -5 -2 -9 3 -9 6 0 13 7 16
16 4 12 16 14 52 10 32 -4 50 -2 60 8 27 27 10 44 -23 23 -6 -4 -14 -3 -17 2
-3 5 -16 7 -29 5 -12 -2 -16 -2 -9 2 6 3 12 14 12 25 0 16 7 19 45 19 25 0 45
5 45 11 0 5 4 8 8 5 4 -2 13 3 19 13 10 16 7 18 -28 18 -21 0 -36 -4 -33 -8 2
-4 -1 -11 -7 -15 -7 -4 -9 -3 -6 3 4 6 0 14 -9 17 -22 9 -24 8 -24 -9 0 -13
-2 -13 -14 -3 -8 7 -10 15 -6 18 5 3 -2 17 -15 32 -19 22 -24 24 -29 12z"/>
<path d="M1403 2102 c-56 -28 -57 -29 -44 -51 7 -10 13 -11 29 -2 18 9 23 8
32 -9 13 -23 6 -40 -16 -40 -25 0 -11 -35 14 -36 14 -1 21 3 19 10 -3 7 6 11
22 11 14 0 25 5 24 11 -1 7 6 10 16 7 25 -6 32 8 16 30 -8 12 -15 14 -20 8
-10 -17 -33 -13 -45 9 -9 17 -7 22 14 31 21 10 23 15 15 30 -12 23 -12 23 -76
-9z"/>
<path d="M3493 2114 c-24 -11 -13 -19 29 -22 42 -3 70 -16 101 -46 28 -29 28
1 -1 33 -21 24 -38 32 -72 36 -25 2 -51 2 -57 -1z"/>
<path d="M2917 2103 c-4 -3 -7 -16 -7 -28 0 -12 -12 -31 -26 -44 -21 -18 -25
-29 -21 -58 6 -39 0 -63 -14 -63 -5 0 -6 13 -3 30 12 60 -21 77 -45 23 -10
-21 -9 -28 1 -34 10 -7 10 -9 0 -9 -9 0 -10 -5 -2 -19 7 -13 7 -22 0 -26 -5
-3 -10 -4 -10 0 0 3 -8 1 -18 -4 -14 -7 -19 -6 -19 4 0 7 6 11 12 9 8 -4 12 9
12 40 0 26 -1 46 -3 46 -2 0 -18 -15 -36 -32 -17 -18 -28 -28 -24 -21 10 18
-11 25 -27 9 -8 -8 -17 -12 -21 -9 -6 6 -10 -12 -7 -29 0 -5 -4 -8 -9 -8 -5 0
-10 -11 -10 -24 0 -22 -6 -26 -47 -32 -61 -10 -184 -10 -244 -1 -44 7 -47 10
-53 45 -4 27 -13 42 -35 55 -16 9 -31 17 -34 17 -10 0 7 -57 25 -83 l20 -27
-26 11 c-19 9 -26 20 -26 41 0 33 -16 68 -31 68 -6 0 -7 -5 -3 -12 4 -7 3 -8
-5 -4 -6 4 -9 11 -6 16 3 5 0 12 -6 16 -15 9 -4 -83 12 -102 9 -11 7 -15 -5
-20 -9 -3 -13 -10 -10 -15 3 -5 -2 -6 -11 -2 -19 7 -70 -41 -60 -57 4 -6 11
-8 16 -4 5 3 22 8 36 10 15 3 28 6 28 7 1 1 10 14 21 28 16 21 24 24 43 17
l23 -8 -26 -21 c-16 -12 -25 -27 -22 -36 3 -8 2 -11 -3 -8 -5 3 -12 1 -15 -4
-12 -19 15 -22 49 -5 23 11 34 22 31 31 -4 9 -2 11 6 7 8 -5 9 -2 5 10 -4 10
-3 15 3 11 6 -3 10 -2 10 3 0 6 13 7 33 2 18 -4 42 -5 54 -4 34 6 36 -12 2
-26 -29 -13 -56 -46 -45 -58 3 -3 16 4 29 15 49 45 117 63 144 39 45 -40 78
-58 87 -49 7 7 -43 55 -52 49 -4 -2 -13 2 -20 10 -15 17 -17 16 30 19 20 1 48
5 63 9 20 5 25 3 25 -12 0 -22 36 -57 67 -65 36 -8 37 10 4 44 -30 30 -40 52
-22 46 5 -1 8 3 8 8 -1 6 -8 8 -16 7 -12 -3 -13 -1 -2 12 7 8 9 21 5 27 -4 7
-3 9 4 5 5 -3 13 0 15 6 3 7 6 1 6 -14 1 -26 41 -105 41 -83 0 6 5 2 11 -8 6
-9 15 -15 20 -11 5 3 15 1 22 -5 7 -5 18 -6 26 -1 11 6 8 13 -12 34 -14 14
-33 26 -42 26 -8 0 -15 8 -15 17 0 9 3 13 7 10 3 -4 12 -2 19 4 9 7 19 3 36
-16 26 -28 59 -38 95 -29 24 6 23 7 -9 31 -18 13 -40 22 -48 20 -21 -5 -24 29
-4 37 8 3 26 -1 40 -10 13 -9 24 -13 24 -8 0 4 5 3 11 -3 8 -8 19 -8 40 0 35
13 36 18 8 35 -17 11 -20 11 -13 0 6 -10 4 -10 -9 1 -9 7 -26 11 -37 8 -27 -7
-25 5 4 32 23 22 26 22 55 8 18 -9 33 -11 37 -6 3 5 10 7 15 4 5 -4 18 0 29 8
20 14 19 14 -4 26 -13 7 -36 11 -52 9 -24 -2 -31 2 -44 30 -9 18 -20 29 -25
25 -5 -4 -4 -1 3 8 16 22 -12 52 -31 32z m23 -113 c0 -4 -7 -13 -15 -20 -13
-10 -15 -9 -16 11 0 13 -2 33 -4 44 -3 18 -2 18 16 -4 10 -13 19 -27 19 -31z"/>
<path d="M3486 2045 c-3 -9 3 -20 14 -27 29 -19 24 -28 -14 -28 -25 0 -35 -5
-39 -20 -4 -17 0 -20 23 -20 19 0 31 -6 35 -19 7 -22 29 -33 50 -25 18 7 55
65 55 87 0 17 -27 30 -42 20 -6 -3 -8 -1 -5 4 4 6 -8 18 -27 27 -42 20 -42 20
-50 1z m84 -71 c0 -17 -29 -51 -31 -37 -7 41 -5 49 12 50 11 1 19 -5 19 -13z"/>
<path d="M1520 1935 c-35 -24 -77 -34 -65 -16 9 15 -15 25 -28 11 -9 -9 -8
-14 3 -23 8 -7 16 -17 17 -24 2 -7 11 -25 21 -42 13 -22 22 -27 32 -21 12 8
13 13 3 29 -12 18 -8 23 32 47 38 22 43 28 35 45 -6 10 -12 19 -13 18 -1 0
-18 -11 -37 -24z"/>
<path d="M3390 1938 c0 -15 51 -81 57 -74 3 3 12 -1 20 -9 16 -16 69 -20 77
-6 3 5 -10 12 -29 15 -21 4 -52 23 -77 46 -45 44 -48 45 -48 28z"/>
<path d="M3739 1794 c-46 -48 -43 -105 8 -141 111 -79 237 19 158 123 -25 33
-73 55 -113 52 -12 -1 -36 -16 -53 -34z"/>
<path d="M1240 1778 c-29 -11 -79 -63 -81 -84 -1 -8 -2 -20 -3 -26 -1 -7 0
-17 3 -23 3 -5 6 -12 7 -15 4 -21 18 -40 30 -40 8 0 14 -4 14 -10 0 -9 52 -6
70 5 5 3 10 1 10 -5 0 -7 7 -5 16 4 8 9 24 21 35 27 11 5 17 14 14 20 -4 5 0
11 7 14 21 8 10 80 -17 109 -13 14 -22 26 -20 28 8 8 -63 5 -85 -4z"/>
<path d="M2900 1601 c0 -14 5 -18 19 -14 12 3 24 -3 35 -18 20 -30 16 -33 -20
-14 -37 19 -44 19 -44 -1 0 -11 6 -15 20 -11 10 3 24 -1 31 -9 13 -16 18 -16
-203 -14 -108 1 -138 -2 -138 -12 0 -10 12 -12 40 -10 32 3 40 1 40 -12 0 -12
-7 -15 -25 -12 -20 4 -28 -1 -38 -21 -10 -22 -8 -28 12 -44 13 -10 27 -17 32
-14 4 3 13 -4 19 -15 6 -11 16 -18 21 -14 6 4 3 14 -8 27 -17 21 -17 21 0 7
17 -12 18 -12 15 4 -2 10 7 25 20 33 20 14 22 14 22 0 0 -9 -6 -22 -14 -30 -9
-9 -11 -19 -5 -28 7 -11 11 -10 23 6 30 40 10 94 -31 81 -14 -4 -18 0 -19 18
-1 17 2 23 12 19 22 -8 104 -9 104 0 0 4 8 4 18 -1 9 -5 22 -7 29 -5 7 2 20 0
29 -5 13 -7 11 -11 -15 -22 -23 -9 -34 -10 -45 -1 -21 18 -46 2 -46 -28 0 -17
11 -38 30 -56 23 -22 30 -25 30 -12 0 9 -4 17 -8 17 -12 0 -32 46 -25 54 13
13 33 5 33 -13 0 -30 17 -34 24 -6 10 39 26 29 26 -15 0 -29 4 -40 15 -40 12
0 14 13 11 65 -2 62 -1 66 18 63 18 -3 21 -10 21 -60 0 -32 6 -63 13 -70 12
-12 13 -2 14 105 1 17 6 27 15 27 8 0 11 5 7 11 -3 6 -15 9 -25 6 -11 -3 -16
-1 -13 4 9 15 -16 78 -36 89 -28 15 -40 12 -40 -9z m-216 -156 c-8 -19 -44
-40 -44 -25 0 5 0 13 -1 18 0 4 10 10 23 14 13 3 24 6 25 7 1 1 0 -6 -3 -14z"/>
<path d="M1847 1584 c-11 -12 4 -32 22 -27 9 2 25 -5 35 -16 19 -21 19 -21
-25 -22 -24 0 -90 0 -146 1 -66 1 -103 -3 -103 -9 0 -6 11 -11 25 -11 20 0 25
-5 25 -25 0 -16 -6 -25 -15 -25 -8 0 -15 -6 -15 -13 0 -13 60 -77 73 -77 15 0
6 26 -13 38 -30 18 -24 30 15 28 31 -1 35 -4 35 -27 0 -15 7 -29 15 -33 12 -4
15 6 15 58 0 42 -4 66 -12 69 -7 3 -3 6 9 6 23 1 45 -28 48 -62 2 -24 25 -46
52 -50 11 -1 28 -8 35 -15 20 -16 29 -5 17 25 -5 14 -5 22 0 19 5 -4 7 14 5
39 -4 35 -1 45 11 45 8 0 15 5 15 10 0 6 -9 10 -20 10 -11 0 -20 4 -20 9 0 4
-11 20 -25 35 -23 25 -45 33 -58 20z m-89 -110 c2 -14 -3 -23 -17 -27 -23 -6
-31 0 -31 24 0 9 -6 20 -12 23 -7 3 3 4 22 3 27 -2 36 -7 38 -23z m157 17 c-3
-5 -1 -12 4 -16 7 -3 4 -19 -6 -39 -11 -24 -21 -32 -34 -29 -16 5 -37 34 -21
32 4 -1 15 -1 24 0 24 1 12 26 -13 28 -48 4 -33 33 17 33 19 0 33 -4 29 -9z"/>
<path d="M2225 1570 c-9 -10 -14 -26 -11 -37 5 -17 -1 -18 -94 -15 -66 2 -100
0 -100 -7 0 -6 7 -11 15 -11 8 0 14 -3 14 -7 -4 -25 4 -42 21 -48 11 -4 18
-11 14 -16 -3 -5 -14 -7 -25 -4 -28 9 -25 -23 4 -35 12 -6 30 -15 39 -22 9 -7
20 -9 24 -5 4 4 -2 15 -15 23 -22 16 -22 16 -3 30 26 18 33 48 16 72 -12 17
-11 19 12 14 18 -3 24 -11 24 -31 -1 -70 6 -111 19 -111 4 0 7 33 6 73 -1 72
-1 73 20 63 18 -8 21 -18 20 -67 -1 -42 3 -60 13 -64 11 -4 13 8 10 60 l-3 65
46 0 c30 0 49 -5 52 -13 4 -10 -2 -13 -19 -9 -22 4 -54 -12 -54 -27 0 -3 7
-14 14 -24 17 -23 46 -28 66 -13 13 10 13 9 1 -7 -13 -16 -13 -20 0 -27 11 -8
15 -2 17 24 4 46 52 63 52 20 0 -18 24 -44 40 -44 6 0 2 13 -9 29 -18 25 -19
30 -5 35 9 3 24 6 35 6 15 0 18 -5 15 -24 -2 -14 2 -33 11 -43 8 -10 12 -12 8
-5 -3 6 -3 12 2 12 12 0 10 104 -2 112 -5 4 0 8 13 8 13 0 20 4 17 10 -3 6
-15 10 -25 10 -10 0 -20 4 -22 10 -6 18 -122 52 -189 56 -55 3 -69 0 -84 -16z
m203 -25 c34 -10 61 -20 58 -22 -9 -9 -245 -13 -250 -5 -3 5 1 18 9 29 18 26
91 25 183 -2z m-318 -76 c0 -20 -24 -26 -35 -9 -4 6 -4 17 -1 25 7 20 36 7 36
-16z m388 11 c2 -12 -9 -15 -50 -15 -29 0 -58 -3 -64 -8 -7 -4 -14 0 -17 12
-4 16 1 21 27 24 59 8 101 3 104 -13z m-158 -44 c0 -8 -7 -17 -16 -20 -21 -8
-26 -3 -18 18 8 20 34 21 34 2z"/>
<path d="M3246 1582 c-8 -13 7 -27 28 -27 10 0 25 -9 32 -20 13 -20 11 -20
-111 -17 -80 1 -125 -1 -125 -8 0 -5 7 -10 16 -10 8 0 22 -6 29 -14 12 -11 10
-15 -10 -26 -29 -15 -23 -35 16 -55 34 -18 43 -19 33 -3 -4 7 -3 8 4 4 15 -9
16 -36 1 -36 -5 0 -7 -5 -4 -11 4 -6 13 -8 20 -5 8 3 19 -2 25 -10 10 -12 7
-14 -18 -14 -16 0 -35 7 -42 15 -7 8 -17 15 -23 15 -15 0 24 -41 48 -50 39
-15 73 28 45 56 -5 5 -11 37 -12 71 -3 61 -3 62 25 61 21 -1 27 -6 27 -24 0
-12 -6 -24 -12 -27 -17 -6 2 -41 24 -45 13 -2 15 7 12 48 -3 43 0 50 15 50 24
0 29 -13 26 -73 -1 -29 4 -52 12 -59 14 -11 13 -12 16 75 0 19 -3 38 -6 45 -5
6 2 12 15 14 22 4 22 5 -4 16 -16 6 -28 15 -28 20 0 4 -9 18 -20 30 -21 22
-45 29 -54 14z m-76 -118 c0 -27 -5 -37 -22 -43 -33 -13 -44 -1 -18 19 18 14
20 20 12 37 -13 23 -7 34 14 26 8 -3 14 -19 14 -39z"/>
<path d="M1717 1564 c-8 -8 1 -24 14 -24 5 0 9 7 9 15 0 15 -12 20 -23 9z"/>
<path d="M3235 1270 c-10 -11 -22 -18 -29 -17 -6 1 -10 -6 -8 -17 2 -12 -1
-16 -9 -11 -8 6 -10 -1 -7 -24 3 -18 0 -31 -6 -31 -6 0 -3 -7 6 -14 10 -7 15
-16 11 -19 -3 -4 -1 -7 5 -7 7 0 12 -4 12 -10 0 -17 34 -45 60 -49 14 -1 28
-8 32 -15 6 -8 8 -8 8 0 0 6 14 14 31 18 17 3 28 10 25 15 -3 5 1 12 10 15 8
3 12 10 9 16 -3 5 -2 10 4 10 6 0 6 11 1 29 -5 19 -4 33 3 40 8 8 6 11 -7 11
-9 0 -14 5 -11 10 3 6 2 10 -4 10 -5 0 -12 9 -16 19 -3 11 -19 24 -36 30 -18
6 -27 6 -24 1 4 -6 -3 -7 -18 -1 -20 8 -29 6 -42 -9z"/>
<path d="M1800 1259 c0 -6 -4 -7 -10 -4 -5 3 -10 1 -10 -5 0 -6 -4 -9 -8 -6
-18 11 -56 -58 -58 -106 -2 -27 1 -48 7 -48 5 0 9 -5 9 -11 0 -15 26 -39 34
-32 3 4 6 2 6 -4 0 -11 29 -11 48 1 6 4 12 2 12 -3 0 -6 5 -11 11 -11 5 0 8 4
4 9 -3 5 3 12 14 16 63 20 76 148 19 184 -32 20 -78 32 -78 20z"/>
<path d="M2512 1066 c-17 -6 -31 -15 -31 -20 0 -5 -5 -12 -11 -16 -25 -15 -12
-118 19 -151 28 -30 107 -35 121 -8 6 10 17 19 25 19 9 0 12 6 9 15 -4 8 -2
15 3 15 15 0 6 86 -11 113 -22 32 -80 48 -124 33z"/>
<path d="M3310 766 c0 -2 8 -10 18 -17 15 -13 16 -12 3 4 -13 16 -21 21 -21
13z"/>
</g>
</svg>
