<svg width="1440" height="1024" viewBox="0 0 1440 1024" fill="none" xmlns="http://www.w3.org/2000/svg">
<g clip-path="url(#clip0)">
<rect width="1440" height="1024" fill="white"/>
<path opacity="0.5" fill-rule="evenodd" clip-rule="evenodd" d="M426.561 -35.1568C519.031 -33.4747 607.321 -46.3573 697.326 -34.4526C838.133 -15.8286 1029.25 -20.0866 1090.81 52.7015C1150.51 123.273 1045.19 159.439 921.182 189C745.886 230.788 315.479 117.762 430.531 259.497C473.261 312.136 502.477 376.096 398.069 365.749C262.219 352.287 148.717 516.075 30.5092 475.529C-85.2097 435.837 -26.6167 333.446 -54.581 259.497C-78.5419 196.134 -160.952 134.601 -121.448 73.6889C-82.1643 13.1162 33.4894 -22.8715 142.601 -44.5433C234.129 -62.7226 329.414 -36.924 426.561 -35.1568Z" fill="#FFA800" fill-opacity="0.4"/>
</g>
<defs>
<clipPath id="clip0">
<rect width="1440" height="1024" fill="white"/>
</clipPath>
</defs>
</svg>
