<svg width="1610" height="175" viewBox="0 0 1610 175" fill="none" xmlns="http://www.w3.org/2000/svg">
<path fill-rule="evenodd" clip-rule="evenodd" d="M0 -2.74181e-06L67 29.0155C134 58.4845 268 116.969 403 120.596C537 124.223 691.5 104.115 825.5 82.3529C959.5 60.1379 1073 56.511 1208 82.3529C1342 107.742 1476 131.477 1543 153.238L1610 175V-2.74181e-06H1543C1476 -2.74181e-06 1342 -2.74181e-06 1208 -2.74181e-06C1073 -2.74181e-06 939 -2.74181e-06 805 -2.74181e-06C671 -2.74181e-06 537 -2.74181e-06 403 -2.74181e-06C268 -2.74181e-06 134 -2.74181e-06 67 -2.74181e-06H0Z" fill="white"/>
</svg>
