<svg width="1610" height="1540" viewBox="0 0 1610 1540" fill="none" xmlns="http://www.w3.org/2000/svg">
<path d="M0 289H1610V1540H0V289Z" fill="#FFFBF7"/>
<path fill-rule="evenodd" clip-rule="evenodd" d="M0 289L67 241.083C134 192.417 268 95.8342 403 89.8446C537 83.8549 691.5 117.062 825.5 153C959.5 189.687 1073 195.676 1208 153C1342 111.073 1476 71.8756 1543 35.9378L1610 0V289H1543C1476 289 1342 289 1208 289C1073 289 939 289 805 289C671 289 537 289 403 289C268 289 134 289 67 289H0Z" fill="#FFFBF7"/>
</svg>
