<svg width="384" height="672" viewBox="0 0 384 672" fill="none" xmlns="http://www.w3.org/2000/svg">
<g clip-path="url(#clip0)">
<rect width="384" height="672" fill="url(#paint0_linear)"/>
<path d="M417 102.545C417 204.252 224.295 25.5047 188.715 254.653C184.634 280.934 162.974 302.521 136.798 297.815C30.7456 278.751 -49 196.969 -49 102.545C-49 -5.45172 55.3177 -93 184 -93C312.682 -93 417 -5.45172 417 102.545Z" fill="url(#paint1_linear)"/>
<ellipse cx="-31" cy="600" rx="56" ry="61" fill="url(#paint2_linear)"/>
<ellipse cx="-31" cy="589" rx="56" ry="61" fill="url(#paint3_linear)"/>
<path d="M445 302.545C445 327.698 427.998 349 402.323 349C374.53 349 352 327.698 352 302.545C352 277.391 374.53 257 402.323 257C430.115 257 445 277.391 445 302.545Z" fill="url(#paint4_linear)"/>
<path d="M459 69.8614C459 181.698 257.515 -16.5196 222.294 240.326C218.673 266.729 196.882 288.525 170.671 283.703C60.2334 263.384 -23 173.599 -23 69.8614C-23 -48.251 84.8994 -144 218 -144C351.101 -144 459 -48.251 459 69.8614Z" fill="url(#paint5_linear)"/>
</g>
<defs>
<linearGradient id="paint0_linear" x1="192" y1="0" x2="192" y2="672" gradientUnits="userSpaceOnUse">
<stop stop-color="#06004B" stop-opacity="0.58"/>
<stop offset="1" stop-color="#0C0092" stop-opacity="0.5"/>
</linearGradient>
<linearGradient id="paint1_linear" x1="184" y1="-93" x2="184" y2="302" gradientUnits="userSpaceOnUse">
<stop stop-color="#A7C5FF"/>
<stop offset="0.414583" stop-color="#A7C5FF" stop-opacity="0.585417"/>
<stop offset="0.471875" stop-color="#A7C5FF" stop-opacity="0.62"/>
<stop offset="0.669792" stop-color="#A7C5FF" stop-opacity="0.59"/>
<stop offset="0.704674" stop-color="#A7C5FF" stop-opacity="0.638874"/>
<stop offset="0.8625" stop-color="#A7C5FF" stop-opacity="0.86"/>
<stop offset="1" stop-color="#A7C5FF"/>
</linearGradient>
<linearGradient id="paint2_linear" x1="-31" y1="539" x2="-31" y2="661" gradientUnits="userSpaceOnUse">
<stop stop-color="#A7C5FF" stop-opacity="0.58"/>
<stop offset="0.471875" stop-color="#A7C5FF" stop-opacity="0.27"/>
<stop offset="0.716667" stop-color="#A7C5FF" stop-opacity="0.24"/>
<stop offset="1" stop-color="#A7C5FF" stop-opacity="0.32"/>
</linearGradient>
<linearGradient id="paint3_linear" x1="-31" y1="528" x2="-31" y2="650" gradientUnits="userSpaceOnUse">
<stop stop-color="#A7C5FF" stop-opacity="0.58"/>
<stop offset="0.471875" stop-color="#A7C5FF" stop-opacity="0.27"/>
<stop offset="0.716667" stop-color="#A7C5FF" stop-opacity="0.24"/>
<stop offset="1" stop-color="#A7C5FF" stop-opacity="0.32"/>
</linearGradient>
<linearGradient id="paint4_linear" x1="422.977" y1="293.791" x2="422.977" y2="384.88" gradientUnits="userSpaceOnUse">
<stop stop-color="#A7C5FF"/>
<stop offset="0.471875" stop-color="#A7C5FF" stop-opacity="0.31"/>
<stop offset="0.576042" stop-color="#A7C5FF" stop-opacity="0.357872"/>
<stop offset="0.758333" stop-color="#A7C5FF"/>
<stop offset="1" stop-color="#A7C5FF"/>
</linearGradient>
<linearGradient id="paint5_linear" x1="218" y1="-144" x2="218" y2="283.723" gradientUnits="userSpaceOnUse">
<stop stop-color="#002367"/>
<stop offset="0.482847" stop-color="#205BCE" stop-opacity="0.38"/>
<stop offset="0.716667" stop-color="#3D6AC2" stop-opacity="0.58"/>
<stop offset="1" stop-color="#0057FF" stop-opacity="0.45"/>
</linearGradient>
<clipPath id="clip0">
<rect width="384" height="672" fill="white"/>
</clipPath>
</defs>
</svg>
