<svg width="302" height="425" viewBox="0 0 302 425" fill="none" xmlns="http://www.w3.org/2000/svg">
<g clip-path="url(#clip0_79_14)">
<rect width="302" height="425" fill="url(#paint0_linear_79_14)"/>
<path d="M404 36.0693C404 108.7 225.542 -14.1464 184.829 135.813C177.947 161.16 157.021 182.425 131 178.855C28.213 164.752 -49 105.017 -49 36.0693C-49 -42.9457 52.4075 -107 177.5 -107C302.593 -107 404 -42.9457 404 36.0693Z" fill="url(#paint1_linear_79_14)"/>
<ellipse cx="7" cy="435" rx="56" ry="61" fill="url(#paint2_linear_79_14)"/>
<ellipse cx="4" cy="451" rx="56" ry="61" fill="url(#paint3_linear_79_14)"/>
<path d="M376 217.545C376 242.698 358.998 264 333.323 264C305.53 264 283 242.698 283 217.545C283 192.391 305.53 172 333.323 172C361.115 172 376 192.391 376 217.545Z" fill="url(#paint4_linear_79_14)"/>
<path d="M445 12.4356C445 92.4884 257.264 -44.6388 217.101 125.499C211.051 151.13 189.916 172.429 163.836 168.771C56.6812 153.745 -24 88.1734 -24 12.4356C-24 -73.9614 80.9892 -144 210.5 -144C340.011 -144 445 -73.9614 445 12.4356Z" fill="url(#paint5_linear_79_14)"/>
</g>
<defs>
<linearGradient id="paint0_linear_79_14" x1="151" y1="0" x2="151" y2="425" gradientUnits="userSpaceOnUse">
<stop stop-color="#06004B" stop-opacity="0.58"/>
<stop offset="1" stop-color="#0C0092" stop-opacity="0.5"/>
</linearGradient>
<linearGradient id="paint1_linear_79_14" x1="177.5" y1="-107" x2="177.5" y2="182" gradientUnits="userSpaceOnUse">
<stop stop-color="#A7C5FF"/>
<stop offset="0.414583" stop-color="#A7C5FF" stop-opacity="0.585417"/>
<stop offset="0.471875" stop-color="#A7C5FF" stop-opacity="0.62"/>
<stop offset="0.669792" stop-color="#A7C5FF" stop-opacity="0.59"/>
<stop offset="0.704674" stop-color="#A7C5FF" stop-opacity="0.638874"/>
<stop offset="0.8625" stop-color="#A7C5FF" stop-opacity="0.86"/>
<stop offset="1" stop-color="#A7C5FF"/>
</linearGradient>
<linearGradient id="paint2_linear_79_14" x1="7" y1="374" x2="7" y2="496" gradientUnits="userSpaceOnUse">
<stop stop-color="#A7C5FF" stop-opacity="0.58"/>
<stop offset="0.471875" stop-color="#A7C5FF" stop-opacity="0.27"/>
<stop offset="0.716667" stop-color="#A7C5FF" stop-opacity="0.24"/>
<stop offset="1" stop-color="#A7C5FF" stop-opacity="0.32"/>
</linearGradient>
<linearGradient id="paint3_linear_79_14" x1="4" y1="390" x2="4" y2="512" gradientUnits="userSpaceOnUse">
<stop stop-color="#A7C5FF" stop-opacity="0.58"/>
<stop offset="0.471875" stop-color="#A7C5FF" stop-opacity="0.27"/>
<stop offset="0.716667" stop-color="#A7C5FF" stop-opacity="0.24"/>
<stop offset="1" stop-color="#A7C5FF" stop-opacity="0.32"/>
</linearGradient>
<linearGradient id="paint4_linear_79_14" x1="353.977" y1="208.791" x2="353.977" y2="299.88" gradientUnits="userSpaceOnUse">
<stop stop-color="#A7C5FF"/>
<stop offset="0.471875" stop-color="#A7C5FF" stop-opacity="0.31"/>
<stop offset="0.576042" stop-color="#A7C5FF" stop-opacity="0.357872"/>
<stop offset="0.758333" stop-color="#A7C5FF"/>
<stop offset="1" stop-color="#A7C5FF"/>
</linearGradient>
<linearGradient id="paint5_linear_79_14" x1="210.5" y1="-144" x2="210.5" y2="168.871" gradientUnits="userSpaceOnUse">
<stop stop-color="#002367"/>
<stop offset="0.482847" stop-color="#205BCE" stop-opacity="0.38"/>
<stop offset="0.716667" stop-color="#3D6AC2" stop-opacity="0.58"/>
<stop offset="1" stop-color="#0057FF" stop-opacity="0.45"/>
</linearGradient>
<clipPath id="clip0_79_14">
<rect width="302" height="425" fill="white"/>
</clipPath>
</defs>
</svg>
