<svg width="1302" height="887" viewBox="0 0 1302 887" fill="none" xmlns="http://www.w3.org/2000/svg">
<path d="M1080.24 377.541C1080.24 377.541 1144.5 383.137 1177.04 418.167C1177.04 418.167 1211.47 377.591 1273.26 378.429C1288.36 362.411 1297.98 342.95 1300.99 322.313C1304 301.676 1300.28 280.712 1290.26 261.862C1280.25 243.011 1264.35 227.05 1244.42 215.836C1224.49 204.622 1201.35 198.617 1177.69 198.521C1154.02 198.424 1130.82 204.239 1110.77 215.29C1090.72 226.34 1074.66 242.171 1064.44 260.939C1054.23 279.707 1050.29 300.64 1053.08 321.3C1055.87 341.961 1065.28 361.499 1080.21 377.64L1080.24 377.541Z" fill="#E3C392"/>
<path opacity="0.5" d="M1080.24 377.541C1080.24 377.541 1144.5 383.137 1177.04 418.167C1177.04 418.167 1211.47 377.591 1273.26 378.429C1288.36 362.411 1297.98 342.95 1300.99 322.313C1304 301.676 1300.28 280.712 1290.26 261.862C1280.25 243.011 1264.35 227.05 1244.42 215.836C1224.49 204.622 1201.35 198.617 1177.69 198.521C1154.02 198.424 1130.82 204.239 1110.77 215.29C1090.72 226.34 1074.66 242.171 1064.44 260.939C1054.23 279.707 1050.29 300.64 1053.08 321.3C1055.87 341.961 1065.28 361.499 1080.21 377.64L1080.24 377.541Z" fill="white"/>
<path d="M1174.89 206.262L1172.73 572.437H1183.58L1174.89 206.262Z" fill="#B8B8B8"/>
<path d="M1178.17 407.494C1178.17 407.494 1199.84 373.154 1238.89 362.652C1238.89 362.652 1197.68 371.256 1177.21 400.813L1178.17 407.494Z" fill="#B8B8B8"/>
<path d="M1178.17 310.218C1178.17 310.218 1199.84 275.879 1238.89 265.377C1238.89 265.377 1197.68 273.956 1177.21 303.538L1178.17 310.218Z" fill="#B8B8B8"/>
<path d="M1178.17 358.806C1178.17 358.806 1199.84 324.466 1238.89 313.965C1238.89 313.965 1197.68 322.568 1177.21 352.126L1178.17 358.806Z" fill="#B8B8B8"/>
<path d="M1174.94 334.992C1174.94 334.992 1154 300.677 1116.32 290.176C1116.32 290.176 1156.1 298.755 1175.98 328.336L1174.94 334.992Z" fill="#B8B8B8"/>
<path d="M1174.94 382.694C1174.94 382.694 1154 348.354 1116.32 337.877C1116.32 337.877 1156.1 346.456 1175.98 376.013L1174.94 382.694Z" fill="#B8B8B8"/>
<path d="M28.5717 377.541C28.5717 377.541 92.8275 383.137 125.376 418.167C125.376 418.167 159.803 377.591 221.591 378.429C236.691 362.411 246.306 342.95 249.316 322.313C252.326 301.676 248.608 280.712 238.593 261.862C228.579 243.011 212.681 227.05 192.751 215.836C172.82 204.622 149.677 198.617 126.016 198.521C102.355 198.424 79.1497 204.239 59.1016 215.29C39.0535 226.34 22.9876 242.171 12.7745 260.939C2.56148 279.707 -1.37854 300.64 1.4132 321.3C4.20495 341.961 13.6136 361.499 28.5437 377.64L28.5717 377.541Z" fill="#E3C392"/>
<path opacity="0.5" d="M28.5717 377.541C28.5717 377.541 92.8275 383.137 125.376 418.167C125.376 418.167 159.803 377.591 221.591 378.429C236.691 362.411 246.306 342.95 249.316 322.313C252.326 301.676 248.608 280.712 238.593 261.862C228.579 243.011 212.681 227.05 192.751 215.836C172.82 204.622 149.677 198.617 126.016 198.521C102.355 198.424 79.1497 204.239 59.1016 215.29C39.0535 226.34 22.9876 242.171 12.7745 260.939C2.56148 279.707 -1.37854 300.64 1.4132 321.3C4.20495 341.961 13.6136 361.499 28.5437 377.64L28.5717 377.541Z" fill="white"/>
<path d="M123.273 206.262L121.087 572.437H131.936L123.273 206.262Z" fill="#B8B8B8"/>
<path d="M126.525 407.494C126.525 407.494 148.196 373.154 187.249 362.652C187.249 362.652 146.038 371.256 125.572 400.813L126.525 407.494Z" fill="#B8B8B8"/>
<path d="M126.525 310.218C126.525 310.218 148.196 275.879 187.249 265.377C187.249 265.377 146.038 273.956 125.572 303.538L126.525 310.218Z" fill="#B8B8B8"/>
<path d="M126.525 358.806C126.525 358.806 148.196 324.466 187.249 313.965C187.249 313.965 146.038 322.568 125.572 352.126L126.525 358.806Z" fill="#B8B8B8"/>
<path d="M123.301 334.992C123.301 334.992 102.359 300.677 64.6805 290.176C64.6805 290.176 104.462 298.755 124.339 328.336L123.301 334.992Z" fill="#B8B8B8"/>
<path d="M123.301 382.694C123.301 382.694 102.359 348.354 64.6805 337.877C64.6805 337.877 104.462 346.456 124.339 376.013L123.301 382.694Z" fill="#B8B8B8"/>
<path d="M819.153 413.04C819.153 413.04 871.746 417.601 898.379 446.27C898.379 446.27 926.554 413.065 977.129 413.73C989.482 400.618 997.345 384.69 999.803 367.801C1002.26 350.912 999.212 333.756 991.012 318.331C982.812 302.906 969.798 289.847 953.485 280.673C937.172 271.5 918.232 266.589 898.868 266.514C879.505 266.438 860.515 271.201 844.11 280.247C827.705 289.293 814.56 302.25 806.205 317.61C797.85 332.971 794.628 350.102 796.916 367.01C799.203 383.917 806.905 399.906 819.125 413.114L819.153 413.04Z" fill="#E3C392"/>
<path opacity="0.5" d="M819.153 413.04C819.153 413.04 871.746 417.601 898.379 446.27C898.379 446.27 926.554 413.065 977.129 413.73C989.482 400.618 997.345 384.69 999.803 367.801C1002.26 350.912 999.212 333.756 991.012 318.331C982.812 302.906 969.798 289.847 953.485 280.673C937.172 271.5 918.232 266.589 898.868 266.514C879.505 266.438 860.515 271.201 844.11 280.247C827.705 289.293 814.56 302.25 806.205 317.61C797.85 332.971 794.628 350.102 796.916 367.01C799.203 383.917 806.905 399.906 819.125 413.114L819.153 413.04Z" fill="white"/>
<path d="M896.641 272.723L894.875 572.437H903.762L896.641 272.723Z" fill="#B8B8B8"/>
<path d="M899.304 437.445C899.304 437.445 917.078 409.342 949.01 400.738C949.01 400.738 915.368 407.764 898.547 431.972L899.304 437.445Z" fill="#B8B8B8"/>
<path d="M899.304 357.82C899.304 357.82 917.078 329.717 949.01 321.139C949.01 321.139 915.368 328.164 898.547 352.348L899.304 357.82Z" fill="#B8B8B8"/>
<path d="M899.304 397.632C899.304 397.632 917.078 369.529 949.01 360.926C949.01 360.926 915.368 367.951 898.547 392.159L899.304 397.632Z" fill="#B8B8B8"/>
<path d="M896.669 378.108C896.669 378.108 879.54 350.006 848.702 341.427C848.702 341.427 881.25 348.452 897.538 372.636L896.669 378.108Z" fill="#B8B8B8"/>
<path d="M896.669 417.132C896.669 417.132 879.54 389.029 848.702 380.45C848.702 380.45 881.25 387.476 897.538 411.684L896.669 417.132Z" fill="#B8B8B8"/>
<path d="M310.293 413.04C310.293 413.04 362.887 417.601 389.52 446.27C389.52 446.27 417.554 413.065 468.269 413.73C480.622 400.618 488.485 384.69 490.943 367.801C493.401 350.912 490.352 333.756 482.153 318.331C473.953 302.906 460.939 289.847 444.626 280.673C428.313 271.5 409.372 266.589 390.008 266.514C370.645 266.438 351.655 271.201 335.25 280.247C318.846 289.293 305.7 302.25 297.345 317.61C288.99 332.971 285.768 350.102 288.056 367.01C290.343 383.917 298.045 399.906 310.265 413.114L310.293 413.04Z" fill="#E3C392"/>
<path opacity="0.5" d="M310.293 413.04C310.293 413.04 362.887 417.601 389.52 446.27C389.52 446.27 417.554 413.065 468.269 413.73C480.622 400.618 488.485 384.69 490.943 367.801C493.401 350.912 490.352 333.756 482.153 318.331C473.953 302.906 460.939 289.847 444.626 280.673C428.313 271.5 409.372 266.589 390.008 266.514C370.645 266.438 351.655 271.201 335.25 280.247C318.846 289.293 305.7 302.25 297.345 317.61C288.99 332.971 285.768 350.102 288.056 367.01C290.343 383.917 298.045 399.906 310.265 413.114L310.293 413.04Z" fill="white"/>
<path d="M387.782 272.723L386.015 572.437H394.902L387.782 272.723Z" fill="#B8B8B8"/>
<path d="M390.585 437.445C390.585 437.445 408.359 409.342 440.291 400.738C440.291 400.738 406.649 407.764 389.828 431.972L390.585 437.445Z" fill="#B8B8B8"/>
<path d="M390.585 357.82C390.585 357.82 408.359 329.717 440.291 321.139C440.291 321.139 406.649 328.164 389.828 352.348L390.585 357.82Z" fill="#B8B8B8"/>
<path d="M390.585 397.632C390.585 397.632 408.359 369.529 440.291 360.926C440.291 360.926 406.649 367.951 389.828 392.159L390.585 397.632Z" fill="#B8B8B8"/>
<path d="M387.782 378.108C387.782 378.108 370.68 350.005 339.842 341.55C339.842 341.55 372.39 348.576 388.679 372.759L387.782 378.108Z" fill="#B8B8B8"/>
<path d="M387.782 417.132C387.782 417.132 370.652 389.029 339.814 380.45C339.814 380.45 372.362 387.476 388.651 411.684L387.782 417.132Z" fill="#B8B8B8"/>
<path d="M47.9157 573.744H1257.73" stroke="#263238" stroke-width="1.04742" stroke-miterlimit="10"/>
<path d="M421.193 111.6C421.193 92.5445 431.25 81.6484 449.616 81.6484C467.981 81.6484 478.064 92.5445 478.064 111.6V173.574C478.064 192.63 468.006 203.526 449.616 203.526C431.226 203.526 421.193 192.63 421.193 173.574V111.6ZM439.928 174.758C439.928 183.262 443.675 186.492 449.616 186.492C455.557 186.492 459.329 183.262 459.329 174.758V110.417C459.329 101.912 455.582 98.6827 449.616 98.6827C443.65 98.6827 439.928 101.912 439.928 110.417V174.758Z" fill="#263238"/>
<path d="M492.189 111.6C492.189 92.5445 502.222 81.6484 520.613 81.6484C539.003 81.6484 549.036 92.5445 549.036 111.6V173.574C549.036 192.63 538.978 203.526 520.613 203.526C502.247 203.526 492.189 192.63 492.189 173.574V111.6ZM510.9 174.758C510.9 183.262 514.647 186.492 520.613 186.492C526.578 186.492 530.301 183.262 530.301 174.758V110.417C530.301 101.912 526.554 98.6827 520.613 98.6827C514.672 98.6827 510.9 101.912 510.9 110.417V174.758Z" fill="#263238"/>
<path d="M620.181 112.463V127.945C620.181 147.025 610.985 157.527 592.275 157.527H583.425V202.294H564.69V83.0293H592.275C610.985 83.0293 620.181 93.4076 620.181 112.463ZM583.425 100.138V140.468H592.275C598.216 140.468 601.445 137.756 601.445 129.251V111.379C601.445 102.849 598.216 100.138 592.275 100.138H583.425Z" fill="#263238"/>
<path d="M658.489 81.6484C676.682 81.6484 686.05 92.5445 686.05 111.6V115.347H668.35V110.417C668.35 101.912 664.948 98.6827 658.982 98.6827C653.016 98.6827 649.615 101.912 649.615 110.417C649.615 134.921 686.222 139.53 686.222 173.574C686.222 192.63 676.682 203.526 658.317 203.526C639.951 203.526 630.386 192.63 630.386 173.574V166.179H648.086V174.684C648.086 183.188 651.833 186.27 657.799 186.27C663.765 186.27 667.487 183.188 667.487 174.684C667.487 150.18 630.904 145.57 630.904 111.526C630.904 92.5691 640.272 81.6484 658.489 81.6484Z" fill="#263238"/>
<path d="M702.911 175.769L700.446 132.727V83.0293H719.181V132.727L716.716 175.769H702.911ZM718.91 184.126V202.171H700.964V184.126H718.91Z" fill="#263238"/>
<path d="M380.789 830.071C389.565 830.071 393.312 835.273 393.312 843.728V850.433C393.312 859.283 389.17 863.918 380.32 863.918H374.798V885.932H368.586V830.071H380.789ZM380.32 858.322C384.93 858.322 387.173 856.177 387.173 850.927V843.531C387.173 838.428 385.325 835.864 380.789 835.864H374.798V858.445L380.32 858.322Z" fill="#263238"/>
<path d="M405.292 874.666L403.123 885.932H397.379L408.078 830.071H417.1L427.799 885.932H421.562L419.418 874.666H405.292ZM406.081 869.341H418.53L412.219 837.048L406.081 869.341Z" fill="#263238"/>
<path d="M458.91 843.556V848.338H452.993V843.236C452.993 838.305 450.996 835.199 446.461 835.199C441.925 835.199 439.928 838.207 439.928 843.236V872.818C439.928 877.748 441.999 880.879 446.461 880.879C450.922 880.879 452.993 877.846 452.993 872.818V861.7H447.249V856.104H458.91V872.546C458.91 881.002 454.916 886.573 446.313 886.573C437.709 886.573 433.765 881.002 433.765 872.546V843.556C433.765 835.101 437.759 829.529 446.313 829.529C454.867 829.529 458.91 835.101 458.91 843.556Z" fill="#263238"/>
<path d="M486.273 854.821V860.393H472.641V880.262H489.379V885.932H466.404V830.071H489.379V835.741H472.641V854.821H486.273Z" fill="#263238"/>
<path d="M516.2 885.932H510.629V830.071H518.542L531.459 870.451V830.071H536.981V885.932H530.498L516.225 840.77L516.2 885.932Z" fill="#263238"/>
<path d="M544.451 843.556C544.451 835.027 548.666 829.529 557.22 829.529C565.774 829.529 570.064 835.027 570.064 843.556V872.448C570.064 880.903 565.824 886.474 557.22 886.474C548.617 886.474 544.451 880.903 544.451 872.448V843.556ZM550.589 872.768C550.589 877.871 552.758 880.829 557.22 880.829C561.682 880.829 563.827 877.871 563.827 872.768V843.186C563.827 838.256 561.756 835.15 557.22 835.15C552.684 835.15 550.589 838.157 550.589 843.186V872.768Z" fill="#263238"/>
<path d="M585.693 885.932V835.741H575.413V830.071H602.21V835.741H591.93V885.932H585.693Z" fill="#263238"/>
<path d="M641.159 856.079V861.699H628.316V885.883H622.079V830.071H644.265V835.741H628.316V856.079H641.159Z" fill="#263238"/>
<path d="M650.329 843.556C650.329 835.027 654.57 829.529 663.099 829.529C671.628 829.529 675.942 835.027 675.942 843.556V872.448C675.942 880.903 671.727 886.474 663.099 886.474C654.471 886.474 650.329 880.903 650.329 872.448V843.556ZM656.492 872.768C656.492 877.871 658.637 880.829 663.099 880.829C667.561 880.829 669.73 877.871 669.73 872.768V843.186C669.73 838.256 667.66 835.15 663.099 835.15C658.538 835.15 656.492 838.157 656.492 843.186V872.768Z" fill="#263238"/>
<path d="M689.353 872.768C689.353 877.698 691.35 880.829 695.886 880.829C700.422 880.829 702.369 877.797 702.369 872.768V830.071H708.187V872.447C708.187 880.903 704.267 886.573 695.664 886.573C687.06 886.573 683.215 880.903 683.215 872.447V830.071H689.353V872.768Z" fill="#263238"/>
<path d="M721.425 885.932H715.755V830.071H723.643L736.561 870.451V830.071H742.083V885.932H735.723L721.425 840.77V885.932Z" fill="#263238"/>
<path d="M763.234 830.071C771.936 830.071 775.929 835.347 775.929 843.95V872.127C775.929 880.656 771.936 885.932 763.234 885.932H750.267V830.071H763.234ZM763.234 880.262C767.696 880.262 769.865 877.476 769.865 872.373V843.63C769.865 838.527 767.696 835.741 763.16 835.741H756.455V880.262H763.234Z" fill="#263238"/>
<path opacity="0.3" d="M332.644 692.712C332.644 700.108 287.211 705.999 231.129 705.999C175.046 705.999 129.613 700.058 129.613 692.712C129.613 685.366 175.071 679.425 231.129 679.425C287.186 679.425 332.644 685.391 332.644 692.712Z" fill="black"/>
<path opacity="0.3" d="M545.166 692.712C545.166 700.108 499.708 705.999 443.65 705.999C387.592 705.999 342.135 700.058 342.135 692.712C342.135 685.366 387.592 679.425 443.65 679.425C499.708 679.425 545.166 685.391 545.166 692.712Z" fill="black"/>
<path opacity="0.3" d="M826.687 692.712C826.687 700.108 781.254 705.999 725.196 705.999C669.139 705.999 623.681 700.058 623.681 692.712C623.681 685.366 669.114 679.425 725.196 679.425C781.279 679.425 826.687 685.391 826.687 692.712Z" fill="black"/>
<path opacity="0.3" d="M1061.86 692.712C1061.86 700.108 1016.41 705.999 960.348 705.999C904.29 705.999 858.734 700.058 858.734 692.712C858.734 685.366 904.192 679.425 960.25 679.425C1016.31 679.425 1061.86 685.391 1061.86 692.712Z" fill="black"/>
<path d="M736.166 304.006C736.166 304.006 732 321.262 732 324.171C731.998 325.97 731.799 327.764 731.409 329.52C731.409 329.52 722.509 340.194 723.693 343.153C725.131 345.453 727.191 347.299 729.634 348.477C729.634 348.477 734.367 365.734 739.125 366.867C744.011 367.78 748.952 368.373 753.916 368.642L755.691 382.866L779.405 379.317L773.489 357.968L775.954 339.578C775.954 339.578 780.096 331.887 775.954 319.438C771.813 306.989 762.913 306.397 756.972 306.397C750.001 305.955 743.056 305.157 736.166 304.006V304.006Z" fill="white" stroke="#263238" stroke-width="1.04742" stroke-linecap="round" stroke-linejoin="round"/>
<path d="M746.841 295.131C746.841 295.131 726.084 294.515 726.675 299.864C727.267 305.213 748.615 312.19 748.615 312.19C748.615 312.19 741.491 316.923 745.041 321.681C748.591 326.439 756.898 330.58 756.898 330.58C756.898 330.58 754.433 340.663 758.106 341.254C761.779 341.846 764.023 336.496 764.614 334.721C765.206 332.947 771.739 333.538 773.514 338.271C774.517 340.731 775.116 343.336 775.288 345.987C775.288 345.987 782.413 324.639 783.596 315.148C784.779 305.657 758.106 295.131 746.841 295.131Z" fill="#263238" stroke="#263238" stroke-width="1.04742" stroke-linecap="round" stroke-linejoin="round"/>
<path d="M759.98 341.55C759.98 341.55 767.153 325.773 771.443 333.539C775.732 341.304 773.908 349.39 769.693 350.252C765.477 351.115 761.952 351.953 761.952 351.953" fill="white"/>
<path d="M759.98 341.55C759.98 341.55 767.153 325.773 771.443 333.539C775.732 341.304 773.908 349.39 769.693 350.252C765.477 351.115 761.952 351.953 761.952 351.953" stroke="#263238" stroke-width="1.04742" stroke-linecap="round" stroke-linejoin="round"/>
<path d="M730.817 506.198C729.658 507.554 710.652 548.303 708.285 561.935C705.919 575.567 690.512 656.819 689.895 660.369C689.279 663.919 656.714 671.043 654.323 671.635C651.932 672.226 656.788 678.759 663.814 680.534C670.84 682.309 691.103 690.617 695.861 685.859C700.619 681.101 707.127 654.428 708.902 651.47C710.677 648.512 744.055 569.873 744.055 569.873C744.055 569.873 761.163 532.131 764.713 528.557C768.263 524.982 760.498 509.181 757.515 504.423C754.532 499.665 739.125 496.707 730.817 506.198Z" fill="#263238" stroke="#263238" stroke-width="1.04742" stroke-linecap="round" stroke-linejoin="round"/>
<path d="M727.267 506.716C727.267 506.716 735.575 546.455 739.716 560.679C743.593 572.625 749.424 583.846 756.972 593.884C761.73 600.417 784.853 657.978 784.853 657.978L788.403 666.878C788.403 666.878 787.22 670.427 780.712 675.161C774.204 679.894 755.789 687.61 760.547 689.409C765.305 691.209 784.262 691.184 793.161 690.593C800.823 690.05 808.005 686.665 813.301 681.102C816.876 676.936 807.385 665.078 807.385 662.712C807.385 660.345 786.628 588.017 785.445 584.443C784.262 580.868 778.321 555.403 778.321 555.403V526.437C778.321 526.437 781.303 521.113 781.303 509.181C781.303 497.25 772.404 494.933 772.404 494.933L723.767 499.69L727.267 506.716Z" fill="#263238" stroke="#263238" stroke-width="1.04742" stroke-linecap="round" stroke-linejoin="round"/>
<path d="M723.15 503.24C723.15 503.24 724.358 513.323 727.908 513.915C731.458 514.506 768.214 524.589 784.237 512.731C784.237 512.731 787.195 503.832 785.42 501.465C783.645 499.099 779.479 500.282 758.156 500.282C736.832 500.282 723.15 500.282 723.15 503.24Z" fill="#E3C392" stroke="#263238" stroke-width="1.04742" stroke-linecap="round" stroke-linejoin="round"/>
<path d="M777.655 370.417C777.655 370.417 755.715 373.375 746.224 382.743C736.733 392.11 728.45 409.44 724.309 425.439C720.168 441.438 717.185 500.158 723.101 503.117C729.017 506.075 778.838 509.058 787.195 505.582C795.552 502.106 786.604 474.151 786.604 463.477C786.604 452.803 796.094 416.639 794.32 396.498C792.545 376.358 777.655 370.417 777.655 370.417Z" fill="#E3C392" stroke="#263238" stroke-width="1.04742" stroke-linecap="round" stroke-linejoin="round"/>
<path d="M698.499 432.046C698.228 407.641 688.268 386.81 675.03 377.812V372.882L638.546 373.252C618.011 373.473 601.569 400.368 601.988 433.155C602.407 465.942 619.244 492.491 639.803 492.319L676.288 491.949V487.019C689.106 477.479 698.622 456.451 698.499 432.046Z" fill="#263238" stroke="#263238" stroke-width="1.04742" stroke-linecap="round" stroke-linejoin="round"/>
<path d="M714.867 431.874C714.596 406.236 704.711 384.345 690.807 374.83V369.579L675.178 369.752C653.584 369.974 636.401 398.15 636.771 432.687C637.141 467.224 654.915 495.031 676.509 494.809L692.139 494.637V489.411C705.722 479.599 715.139 457.413 714.867 431.874Z" fill="white" stroke="#263238" stroke-width="1.04742" stroke-linecap="round" stroke-linejoin="round"/>
<path d="M730.546 431.701C730.916 466.213 713.709 494.415 692.139 494.636C670.569 494.858 652.696 467.051 652.4 432.539C652.104 398.027 669.237 369.825 690.807 369.579C712.378 369.332 730.127 397.164 730.546 431.701Z" fill="#737373" stroke="#263238" stroke-width="1.04742" stroke-linecap="round" stroke-linejoin="round"/>
<path d="M721.573 430.641C721.745 446.985 713.585 460.346 703.355 460.469C693.125 460.593 684.694 447.379 684.521 430.887C684.349 414.396 692.508 401.306 702.739 401.059C712.969 400.812 721.4 414.272 721.573 430.641Z" fill="#263238" stroke="#263238" stroke-width="1.04742" stroke-linecap="round" stroke-linejoin="round"/>
<path d="M1012.07 553.554C1014.1 538.359 1014.97 523.03 1014.66 507.702C1006.64 511.4 959.904 512.756 955.615 512.854C951.326 512.953 904.586 511.4 896.574 507.702C896.222 523.027 897.046 538.356 899.04 553.554C902.269 573.547 930.668 653.59 931.309 657.461C932.14 661.193 933.219 664.866 934.538 668.455C934.538 668.455 918.391 680.066 911.291 684.578C904.192 689.089 909.369 691.036 916.468 691.036C923.568 691.036 938.408 689.089 942.919 689.089C946.913 689.089 953.865 685.613 955.492 684.775C957.119 685.613 964.071 689.089 968.039 689.089C972.575 689.089 987.416 691.036 994.515 691.036C1001.61 691.036 1006.84 689.089 999.692 684.578C992.543 680.066 976.446 668.455 976.446 668.455C977.765 664.866 978.844 661.193 979.675 657.461C980.439 653.516 1008.84 573.473 1012.07 553.554Z" fill="#263238" stroke="#263238" stroke-width="1.04742" stroke-linecap="round" stroke-linejoin="round"/>
<path d="M945.853 382.2C945.853 382.2 920.881 390.36 907.988 398.544C895.095 406.729 882.153 451.052 882.153 452.778C881.412 455.866 880.406 458.885 879.146 461.8C879.146 461.8 866.228 458.793 863.665 469.541C861.101 480.289 876.557 494.069 884.742 494.513C892.926 494.957 895.49 492.368 895.49 492.368C895.49 492.368 890.338 502.697 892.482 506.987C894.627 511.276 912.721 527.226 948.441 526.708C984.162 526.19 1010.07 520.249 1013.84 515.097C1017.61 509.945 1018.16 499.172 1018.16 499.172C1018.16 499.172 1031.49 495.721 1036.23 487.117C1040.96 478.514 1040.1 469.467 1037.51 460.444C1034.92 451.422 1021.58 425.217 1012.56 410.574C1003.54 395.931 984.581 387.771 975.583 385.183C966.585 382.595 951.868 382.2 945.853 382.2Z" fill="#E3C392" stroke="#263238" stroke-width="1.04742" stroke-linecap="round" stroke-linejoin="round"/>
<path d="M953.421 418.438C956.996 417.255 968.212 407.296 972.526 397.336C974.233 393.523 975.434 389.504 976.101 385.38L975.534 385.208C966.511 382.619 951.868 382.2 945.952 382.2C945.952 382.2 940.725 383.901 933.823 386.539C933.866 391.868 934.868 397.145 936.781 402.119C940.676 412.078 949.945 419.646 953.421 418.438Z" fill="white" stroke="#263238" stroke-width="1.04742" stroke-linecap="round" stroke-linejoin="round"/>
<path d="M994.466 438.554C994.466 438.554 1004.8 493.65 1016.5 499.32" stroke="#263238" stroke-width="1.04742" stroke-linecap="round" stroke-linejoin="round"/>
<path d="M895.49 492.369C895.49 492.369 908.407 443.731 909.27 438.998" stroke="#263238" stroke-width="1.04742" stroke-linecap="round" stroke-linejoin="round"/>
<path d="M1011.16 463.452C1011.16 463.452 1004.01 465.055 1004.01 470.231" stroke="#263238" stroke-width="1.04742" stroke-linecap="round" stroke-linejoin="round"/>
<path d="M889.697 464.241C889.697 464.241 897.659 469.418 896.87 477.381" stroke="#263238" stroke-width="1.04742" stroke-linecap="round" stroke-linejoin="round"/>
<path d="M943.043 689.138C947.036 689.138 953.988 685.662 955.615 684.824C957.242 685.662 964.194 689.138 968.163 689.138C972.699 689.138 987.539 691.086 994.639 691.086C1001.74 691.086 1006.96 689.138 999.816 684.627C993.628 680.707 980.661 671.438 977.358 669.072C969.741 676.024 954.678 674.298 954.678 674.298C951.627 673.838 948.606 673.196 945.631 672.375C941.12 671.069 934.661 668.505 934.661 668.505C934.661 668.505 918.514 680.116 911.415 684.627C904.315 689.138 909.492 691.086 916.592 691.086C923.691 691.086 938.532 689.138 943.043 689.138Z" fill="#E3C392" stroke="#263238" stroke-width="1.04742" stroke-linecap="round" stroke-linejoin="round"/>
<path d="M954.678 668.603V556.044" stroke="white" stroke-width="1.04742" stroke-linecap="round" stroke-linejoin="round"/>
<path d="M955.615 684.701L954.678 674.175V668.604" stroke="#263238" stroke-width="1.04742" stroke-linecap="round" stroke-linejoin="round"/>
<path d="M945.631 552.174H964.342" stroke="white" stroke-width="1.04742" stroke-linecap="round" stroke-linejoin="round"/>
<path d="M921.177 317.614C921.177 317.614 907.766 325.65 909.763 332.7C911.76 339.751 917.824 341.107 916.493 345.026C915.162 348.946 910.503 351.411 915.803 353.876C918.821 355.228 921.979 356.245 925.22 356.908C925.22 356.908 930.15 374.017 938.63 377.024C947.11 380.032 961.803 378.035 972.206 376.704C975.72 376.36 979.046 374.954 981.741 372.672C984.436 370.391 986.373 367.343 987.292 363.934C988.303 360.261 982.929 364.624 980.242 360.581C977.555 356.539 981.598 346.16 984.605 337.088C987.613 328.017 978.566 310.908 966.832 305.214C955.097 299.519 932.689 302.502 921.177 317.614Z" fill="#263238" stroke="#263238" stroke-width="1.04742" stroke-linecap="round" stroke-linejoin="round"/>
<path d="M943.708 376.063C942.003 381.69 940.847 387.469 940.257 393.319C939.813 400.714 945.853 408.825 952.312 408.381C958.77 407.937 964.342 395.044 965.205 388.66C966.067 382.275 963.06 364.994 963.06 364.994C963.06 364.994 953.199 365.438 949.28 368.864C946.978 370.884 945.086 373.328 943.708 376.063V376.063Z" fill="white" stroke="#263238" stroke-width="1.04742" stroke-linecap="round" stroke-linejoin="round"/>
<path d="M934.957 327.006C934.957 327.006 935.278 337.064 945.36 346.727C951.421 352.588 958.608 357.159 966.486 360.162C966.311 362.365 965.743 364.519 964.81 366.522C964.372 367.36 963.689 368.044 962.852 368.485C962.016 368.925 961.065 369.1 960.126 368.988H956.749C956.749 368.988 951.819 380.549 945.853 382.225C939.887 383.902 925.22 382.743 923.198 367.977C921.177 353.211 920.856 341.131 922.533 338.099C924.209 335.067 934.957 327.006 934.957 327.006Z" fill="white" stroke="#263238" stroke-width="1.04742" stroke-linecap="round" stroke-linejoin="round"/>
<path d="M1040.44 456.919C1041.97 453.836 1042.9 450.489 1043.18 447.059C1043.18 442.572 1034.85 436.138 1033.32 434.536C1031.79 432.933 1030.26 433.106 1029.94 435.349C1029.94 436.608 1030.19 437.855 1030.69 439.013C1031.18 440.17 1031.91 441.214 1032.82 442.079C1034.07 443.064 1034.98 444.419 1035.41 445.949C1035.56 447.059 1032.65 452.507 1034.11 456.032C1035.56 459.557 1039.65 460.617 1040.44 456.919Z" fill="white" stroke="#263238" stroke-width="1.04742" stroke-linecap="round" stroke-linejoin="round"/>
<path d="M706.584 431.75C706.584 431.75 742.872 443.361 764.688 470.478C786.505 497.594 800.828 493.7 827.944 484.677C855.061 475.655 865.39 443.361 902.836 470.478C940.282 497.594 948.022 507.899 979.01 492.418C1010 476.936 1026.76 439.491 1055.18 452.383C1083.61 465.276 1070.66 531.269 1073.25 563.316C1075.84 595.363 1071.95 675.653 1078.4 685.982C1084.86 696.311 1150.71 688.447 1150.71 688.447" stroke="#263238" stroke-width="3.14226" stroke-linecap="round" stroke-linejoin="round"/>
<path d="M774.549 388.659C774.549 388.659 767.326 376.876 756.677 379.957C745.411 383.211 739.593 399.309 736.955 409.342C734.318 419.375 732.543 430.222 727.711 439.565C727.711 439.565 706.363 439.195 694.456 435.744C685.371 432.912 676.436 429.62 667.684 425.883C667.684 425.883 663.469 419.991 660.486 418.833C657.503 417.674 649.762 415.406 649.195 417.181C648.628 418.956 658.169 424.799 658.169 424.799C658.169 424.799 640.419 427.264 638.645 429.162C636.87 431.06 651.192 436.73 651.192 436.73C651.192 436.73 656.542 438.456 669.558 435.349C669.558 435.349 717.308 465.671 726.823 469.147C736.339 472.623 741.614 473.732 748.098 461.209C754.581 448.686 776.102 417.625 779.529 405.127" fill="#E3C392"/>
<path d="M774.549 388.659C774.549 388.659 767.326 376.876 756.677 379.957C745.411 383.211 739.593 399.309 736.955 409.342C734.318 419.375 732.543 430.222 727.711 439.565C727.711 439.565 706.363 439.195 694.456 435.744C685.371 432.912 676.436 429.62 667.684 425.883C667.684 425.883 663.469 419.991 660.486 418.833C657.503 417.674 649.762 415.406 649.195 417.181C648.628 418.956 658.169 424.799 658.169 424.799C658.169 424.799 640.419 427.264 638.645 429.162C636.87 431.06 651.192 436.73 651.192 436.73C651.192 436.73 656.542 438.456 669.558 435.349C669.558 435.349 717.308 465.671 726.823 469.147C736.339 472.623 741.614 473.732 748.098 461.209C754.581 448.686 776.102 417.625 779.529 405.127" stroke="#263238" stroke-width="1.04742" stroke-linecap="round" stroke-linejoin="round"/>
<path d="M680.084 430.913C673.108 428.299 667.758 425.982 667.758 425.982C667.758 425.982 663.543 420.09 660.56 418.932C657.577 417.773 649.836 415.505 649.269 417.28C648.702 419.055 658.243 424.898 658.243 424.898C658.243 424.898 640.493 427.363 638.719 429.261C636.944 431.159 651.266 436.829 651.266 436.829C651.266 436.829 656.616 438.555 669.632 435.448L676.312 439.664L680.084 430.913Z" fill="white" stroke="#263238" stroke-width="1.04742" stroke-linecap="round" stroke-linejoin="round"/>
<path d="M864.133 461.455C862.603 458.372 861.675 455.025 861.397 451.595C861.397 447.108 869.754 440.699 871.257 439.096C872.761 437.494 874.289 437.666 874.61 439.91C874.614 441.169 874.361 442.416 873.865 443.573C873.368 444.731 872.641 445.774 871.726 446.64C870.476 447.625 869.57 448.979 869.137 450.51C868.989 451.595 871.898 457.067 870.444 460.592C868.989 464.118 864.922 465.128 864.133 461.455Z" fill="white" stroke="#263238" stroke-width="1.04742" stroke-linecap="round" stroke-linejoin="round"/>
<path d="M869.877 447.922C869.877 447.922 862.999 460.617 866.993 465.178C870.986 469.738 874.856 454.923 875.596 450.83C876.336 446.738 872.416 442.621 869.877 447.922Z" fill="white" stroke="#263238" stroke-width="1.04742" stroke-linecap="round" stroke-linejoin="round"/>
<path d="M875.547 452.482C875.547 452.482 868.669 465.178 872.662 469.739C876.656 474.299 880.526 459.483 881.266 455.391C882.005 451.299 878.086 447.034 875.547 452.482Z" fill="white" stroke="#263238" stroke-width="1.04742" stroke-linecap="round" stroke-linejoin="round"/>
<path d="M881.784 453.542C881.784 453.542 874.906 466.237 878.899 470.798C882.893 475.359 886.763 460.543 887.503 456.451C888.242 452.359 884.323 448.217 881.784 453.542Z" fill="white" stroke="#263238" stroke-width="1.04742" stroke-linecap="round" stroke-linejoin="round"/>
<path d="M889.771 453.641C889.771 453.641 883.361 463.501 886.862 467.224C890.362 470.946 894.134 459.236 894.873 455.859C895.613 452.482 892.137 449.203 889.771 453.641Z" fill="white" stroke="#263238" stroke-width="1.04742" stroke-linecap="round" stroke-linejoin="round"/>
<path d="M1035.86 448.415C1035.86 448.415 1042.73 461.11 1038.74 465.671C1034.75 470.231 1030.88 455.391 1030.14 451.299C1029.4 447.207 1033.32 443.09 1035.86 448.415Z" fill="white" stroke="#263238" stroke-width="1.04742" stroke-linecap="round" stroke-linejoin="round"/>
<path d="M1030.19 452.852C1030.19 452.852 1037.06 465.548 1033.07 470.108C1029.08 474.669 1025.21 459.828 1024.47 455.736C1023.73 451.644 1027.65 447.552 1030.19 452.852Z" fill="white" stroke="#263238" stroke-width="1.04742" stroke-linecap="round" stroke-linejoin="round"/>
<path d="M1023.9 454.036C1023.9 454.036 1030.78 466.731 1026.78 471.292C1022.79 475.852 1018.92 461.037 1018.21 456.92C1017.49 452.803 1021.43 448.711 1023.9 454.036Z" fill="white" stroke="#263238" stroke-width="1.04742" stroke-linecap="round" stroke-linejoin="round"/>
<path d="M1015.96 454.134C1015.96 454.134 1022.37 464.118 1018.87 467.717C1015.37 471.316 1011.6 459.73 1010.88 456.352C1010.17 452.975 1013.6 449.696 1015.96 454.134Z" fill="white" stroke="#263238" stroke-width="1.04742" stroke-linecap="round" stroke-linejoin="round"/>
<path d="M167.799 594.599V608.601C162.94 613.911 159.445 620.324 157.618 627.287C154.635 638.725 145.292 687.954 147.757 689.236C150.222 690.518 173.419 695.818 180.815 694.709C189.295 693.427 196.518 693.871 192.253 689.187C187.988 684.503 165.58 671.413 165.58 671.413C165.58 671.413 190.232 635.767 195.704 622.603C201.177 609.439 202.064 589.077 202.064 589.077L168.982 587.819L167.799 594.599Z" fill="white" stroke="#263238" stroke-width="1.04742" stroke-linecap="round" stroke-linejoin="round"/>
<path d="M180.815 694.709C189.295 693.427 196.518 693.871 192.253 689.187C187.988 684.503 165.58 671.413 165.58 671.413L164.742 676.491L148.595 674.519C147.412 682.753 146.894 688.793 147.757 689.31C150.395 690.493 173.419 695.818 180.815 694.709Z" fill="#263238" stroke="#263238" stroke-width="1.04742" stroke-linecap="round" stroke-linejoin="round"/>
<path d="M248.853 601.847L252.674 608.651C251.09 611.705 250.158 615.054 249.938 618.488C249.717 621.921 250.212 625.362 251.392 628.594C255.213 640.476 264.137 684.183 264.137 686.722C264.137 689.261 269.634 690.962 273.998 690.962C278.361 690.962 290.44 691.801 292.141 691.801C293.842 691.801 306.144 693.921 310.384 691.382C314.624 688.842 304.985 683.74 298.625 680.781C292.265 677.823 278.263 670.181 278.263 670.181C278.263 670.181 281.64 635.373 281.64 620.089C281.64 604.805 285.042 599.727 280.383 590.384C275.723 581.041 246.437 594.649 246.437 594.649L248.853 601.847Z" fill="white" stroke="#263238" stroke-width="1.04742" stroke-linecap="round" stroke-linejoin="round"/>
<path d="M298.502 680.781C292.141 677.798 278.139 670.181 278.139 670.181L276.438 676.541L262.806 679.006C263.62 683.246 264.137 686.155 264.137 686.747C264.137 689.212 269.635 690.987 273.998 690.987C278.361 690.987 290.44 691.825 292.141 691.825C293.842 691.825 306.144 693.945 310.384 691.406C314.624 688.867 304.862 683.739 298.502 680.781Z" fill="#263238" stroke="#263238" stroke-width="1.04742" stroke-linecap="round" stroke-linejoin="round"/>
<path d="M226.001 319.363C222.675 313.678 218.873 308.285 214.637 303.241C208.794 296.659 190.478 297.029 182.442 305.707C174.405 314.384 176.944 329.865 179.977 334.253C183.009 338.641 189.122 359.151 189.122 359.151L190.577 373.794L224.621 385.874L217.669 362.085C217.669 362.085 230.857 359.62 231.942 355.503C233.027 351.386 229.748 337.556 229.748 337.556C229.748 337.556 234.136 334.623 233.766 332.059C233.397 329.495 226.001 319.363 226.001 319.363Z" fill="white" stroke="#263238" stroke-width="1.04742" stroke-linecap="round" stroke-linejoin="round"/>
<path d="M186.83 335.141C186.83 335.141 192.647 340.071 195.828 334.426C199.008 328.781 201.423 323.259 201.423 318.476C201.423 313.694 189.467 309.725 197.43 306.52C205.392 303.316 211.136 310.44 214.686 303.291C218.236 296.142 215.007 295.378 195.877 295.378C176.747 295.378 167.182 304.943 171.225 316.899C174.459 325.728 178.459 334.257 183.181 342.389L186.83 335.141Z" fill="#263238" stroke="#263238" stroke-width="1.04742" stroke-linecap="round" stroke-linejoin="round"/>
<path d="M227.086 327.819C227.086 329.627 226.549 331.396 225.544 332.9C224.54 334.404 223.111 335.576 221.44 336.268C219.769 336.96 217.93 337.141 216.156 336.789C214.382 336.436 212.752 335.565 211.473 334.286C210.194 333.007 209.323 331.377 208.97 329.603C208.617 327.829 208.798 325.99 209.49 324.319C210.183 322.647 211.355 321.219 212.859 320.214C214.363 319.209 216.131 318.673 217.94 318.673C220.366 318.673 222.692 319.636 224.407 321.352C226.122 323.067 227.086 325.393 227.086 327.819V327.819Z" stroke="#263238" stroke-width="1.04742" stroke-linecap="round" stroke-linejoin="round"/>
<path d="M225.755 319.709C226.819 319.273 227.957 319.047 229.107 319.043C231.012 319.046 232.861 319.682 234.366 320.849C235.87 322.016 236.945 323.65 237.421 325.494C237.898 327.338 237.749 329.287 236.998 331.038C236.248 332.788 234.938 334.24 233.273 335.165" stroke="#263238" stroke-width="1.04742" stroke-linecap="round" stroke-linejoin="round"/>
<path d="M208.794 327.819L186.83 335.141" stroke="#263238" stroke-width="1.04742" stroke-linecap="round" stroke-linejoin="round"/>
<path d="M193.141 339.898C193.141 339.898 188.753 330.753 184.365 332.503C179.977 334.253 182.171 348.625 186.559 350.079C188.033 350.411 189.566 350.385 191.028 350.004C192.491 349.622 193.84 348.896 194.965 347.886C194.965 347.886 198.638 355.577 203.026 357.746" fill="white"/>
<path d="M193.141 339.898C193.141 339.898 188.753 330.753 184.365 332.503C179.977 334.253 182.171 348.625 186.559 350.079C188.033 350.411 189.566 350.385 191.028 350.004C192.491 349.622 193.84 348.896 194.965 347.886C194.965 347.886 198.638 355.577 203.026 357.746" stroke="#263238" stroke-width="1.04742" stroke-linecap="round" stroke-linejoin="round"/>
<path d="M164.347 504.251L161.611 539.306L153.427 591.197C153.427 591.197 172.556 606.21 190.404 606.21C208.252 606.21 213.158 603.942 213.158 603.942L223.166 550.695L233.175 606.678C233.175 606.678 252.896 603.498 265.961 600.294C275.046 597.766 283.657 593.769 291.451 588.461L265.049 519.732L259.33 484.283C259.33 484.283 229.748 487.02 211.974 487.932C194.201 488.844 170.56 484.283 170.56 484.283L164.347 504.251Z" fill="#E3C392" stroke="#263238" stroke-width="1.04742" stroke-linecap="round" stroke-linejoin="round"/>
<path d="M183.107 364.18C183.107 364.18 225.015 378.798 237.957 392.998C245.106 400.886 253.118 454.873 256.002 468.062C258.886 481.25 263.915 507.504 263.915 507.504C263.915 507.504 238.352 519.041 218.581 519.46C198.81 519.88 160.872 510.808 160.872 510.808C160.872 510.808 165.383 452.309 165.383 425.119C165.383 397.928 165.802 380.179 170.313 371.526C170.338 371.6 177.758 363.342 183.107 364.18Z" fill="#263238" stroke="#263238" stroke-width="1.04742" stroke-linecap="round" stroke-linejoin="round"/>
<path d="M172.088 515.048C172.088 515.048 174.356 553.282 172.088 567.408C170.495 576.521 167.745 585.394 163.904 593.81" stroke="#263238" stroke-width="1.04742" stroke-linecap="round" stroke-linejoin="round"/>
<path d="M173 533.265C176.423 532.09 179.482 530.045 181.876 527.331C184.27 524.617 185.918 521.327 186.657 517.784" stroke="#263238" stroke-width="1.04742" stroke-linecap="round" stroke-linejoin="round"/>
<path d="M155.695 583.802C155.695 583.802 178.473 603.375 213.971 596.128" stroke="#263238" stroke-width="1.04742" stroke-linecap="round" stroke-linejoin="round"/>
<path d="M232.189 595.166C232.189 595.166 269.511 591.074 285.905 580.153" stroke="#263238" stroke-width="1.04742" stroke-linecap="round" stroke-linejoin="round"/>
<path d="M399.129 346.48C399.129 346.48 395.53 349.143 382.983 358.313C370.435 367.484 380.32 381.338 380.32 381.338C380.32 381.338 371.347 382.743 359.366 395.34C347.386 407.937 364.716 429.556 380.912 432.934C397.108 436.311 416.04 416.269 421.71 397.682C427.38 379.095 419.886 351.066 416.114 345.273C412.343 339.479 399.129 346.48 399.129 346.48Z" fill="#263238" stroke="#263238" stroke-width="1.04742" stroke-linecap="round" stroke-linejoin="round"/>
<path d="M446.658 344.015C446.658 344.015 452.895 334.376 447.249 320.399C441.604 306.421 424.743 300.037 408.325 310.168C402.852 313.424 398.608 318.396 396.25 324.311C393.892 330.226 393.552 336.753 395.284 342.881C396.886 349.34 404.972 359.274 406.673 359.422C408.374 359.57 423.14 364.944 433.223 360.236C443.305 355.527 446.658 344.015 446.658 344.015Z" fill="#263238" stroke="#263238" stroke-width="1.04742" stroke-linecap="round" stroke-linejoin="round"/>
<path d="M374.108 669.417C374.108 669.417 385.818 687.634 406.155 690.74C426.493 693.846 408.201 675.604 404.775 672.843C401.348 670.082 376.869 664.116 374.108 669.417Z" fill="#737373" stroke="#263238" stroke-width="1.04742" stroke-linecap="round" stroke-linejoin="round"/>
<path d="M482.452 674.1C482.452 674.1 504.811 679.598 503.085 684.429C501.36 689.261 483.142 688.891 472.493 686.13C461.843 683.369 451.835 679.253 453.215 674.791C454.596 670.329 482.452 674.1 482.452 674.1Z" fill="#737373" stroke="#263238" stroke-width="1.04742" stroke-linecap="round" stroke-linejoin="round"/>
<path d="M418.875 380.253C418.875 380.253 388.948 384.641 383.476 395.216C378.003 405.792 385.719 463.403 385.719 463.403C385.719 463.403 372.949 491.58 372.777 509.723C372.604 527.867 380.69 559.791 380.049 567.753C379.408 575.716 371.224 666.36 371.224 668.825C371.224 671.29 388.48 676.812 413.353 679.77C438.227 682.728 485.805 673.878 485.805 673.878C485.805 673.878 484.868 620.384 487.358 588.485C489.847 556.586 486.298 527.916 479.962 516.009C473.627 504.103 444.119 461.233 444.119 461.233C444.119 461.233 458.417 435.3 459.304 423.96C460.191 412.62 455.582 406.704 444.784 393.663C441.575 389.817 437.631 386.649 433.182 384.346C428.733 382.043 423.869 380.652 418.875 380.253V380.253Z" fill="#E3C392" stroke="#263238" stroke-width="1.04742" stroke-linecap="round" stroke-linejoin="round"/>
<path d="M444.193 461.258C444.193 461.258 458.491 435.325 459.378 423.985C460.265 412.645 455.656 406.729 444.858 393.688C444.341 393.047 443.798 392.48 443.256 391.889L442.861 392.258C431.768 410.377 395.087 441.34 384.166 450.362C385.004 458.078 385.719 463.403 385.719 463.403C385.719 463.403 372.949 491.58 372.777 509.723C372.981 517.991 373.805 526.231 375.242 534.375C401.151 519.584 435.811 491.9 454.571 476.468C448.704 467.791 444.193 461.258 444.193 461.258Z" fill="#737373" stroke="#263238" stroke-width="1.04742" stroke-linecap="round" stroke-linejoin="round"/>
<path d="M413.353 359.102C414.18 365.867 414.633 372.673 414.709 379.488C414.315 384.542 415.942 396.079 424.57 399.703C433.198 403.327 438.621 398.273 438.597 393.195C438.284 389.001 437.456 384.861 436.132 380.869L436.378 366.941C436.378 366.941 421.488 357.622 413.353 359.102Z" fill="white" stroke="#263238" stroke-width="1.04742" stroke-linecap="round" stroke-linejoin="round"/>
<path d="M405.613 350.055C405.613 350.055 399.277 344.484 399.08 352.52C398.883 360.557 406.278 363.219 407.905 363.761C409.279 363.948 410.672 363.604 411.8 362.8C411.8 362.8 423.288 372.661 432.508 373.301C441.728 373.942 445.475 369.678 447.644 352.939C449.813 336.201 432.532 319.216 432.532 319.216C432.532 319.216 417.741 346.48 405.613 350.055Z" fill="white" stroke="#263238" stroke-width="1.04742" stroke-linecap="round" stroke-linejoin="round"/>
<path d="M264.63 507.159C264.546 504.303 265.015 501.457 266.011 498.778C267.539 495.425 275.871 493.502 277.72 492.861C279.569 492.22 280.506 492.861 279.964 494.612C279.532 495.552 278.914 496.396 278.147 497.091C277.38 497.786 276.48 498.318 275.502 498.654C274.227 498.96 273.08 499.659 272.223 500.651C271.755 501.44 272.05 506.494 269.758 508.638C267.465 510.783 263.866 510.191 264.63 507.159Z" fill="white" stroke="#263238" stroke-width="1.04742" stroke-linecap="round" stroke-linejoin="round"/>
<path d="M453.56 433.032C453.56 433.032 423.978 429.161 410.938 449.819C397.897 470.478 373.516 542.756 328.33 554.392C283.144 566.027 270.226 473.041 243.109 475.63C217.274 478.095 199.229 475.63 183.724 504.028C175.441 519.238 134.026 685.316 114.453 687.017C52.1086 692.465 11.9758 688.915 11.9758 688.915" stroke="#263238" stroke-width="3.14226" stroke-linecap="round" stroke-linejoin="round"/>
<path d="M185.03 365.363C185.03 365.363 178.202 362.627 169.081 368.075C159.959 373.523 135.406 433.18 137.231 439.564C139.055 445.949 164.988 457.782 179.557 461.874C194.127 465.966 220.528 470.995 220.528 470.995C220.528 470.995 228.713 483.74 231.449 484.184C235.429 484.13 239.393 483.676 243.282 482.828C243.282 482.828 248.212 486.92 250.11 482.36C252.009 477.799 248.286 471.907 244.194 467.347C240.102 462.786 222.796 460.518 222.796 460.518L175.884 428.175L195.606 391.765" fill="#263238"/>
<path d="M185.03 365.363C185.03 365.363 178.202 362.627 169.081 368.075C159.959 373.523 135.406 433.18 137.231 439.564C139.055 445.949 164.988 457.782 179.557 461.874C194.127 465.966 220.528 470.995 220.528 470.995C220.528 470.995 228.713 483.74 231.449 484.184C235.429 484.13 239.393 483.676 243.282 482.828C243.282 482.828 248.212 486.92 250.11 482.36C252.009 477.799 248.286 471.907 244.194 467.347C240.102 462.786 222.796 460.518 222.796 460.518L175.884 428.175L195.606 391.765" stroke="#263238" stroke-width="1.04742" stroke-linecap="round" stroke-linejoin="round"/>
<path d="M231.449 484.16C235.429 484.106 239.393 483.651 243.282 482.804C243.282 482.804 248.212 486.896 250.11 482.335C252.009 477.775 248.286 471.883 244.194 467.322C240.102 462.762 222.796 460.494 222.796 460.494L175.884 428.176L182.885 415.135C165.358 404.214 153.723 405.028 147.436 407.222C141.15 422.309 136.368 436.607 137.206 439.54C139.03 445.925 164.964 457.758 179.533 461.85C194.102 465.942 220.504 470.971 220.504 470.971C220.504 470.971 228.713 483.716 231.449 484.16Z" fill="white" stroke="#263238" stroke-width="1.04742" stroke-linecap="round" stroke-linejoin="round"/>
<path d="M524.68 434.043C522.683 412.523 512.354 394.847 500.029 387.822L499.634 383.434L467.439 386.416C449.32 388.093 436.822 412.966 439.509 441.957C442.196 470.947 459.058 493.059 477.176 491.26L509.371 488.277L508.952 483.889C519.799 474.817 526.677 455.564 524.68 434.043Z" fill="#263238" stroke="#263238" stroke-width="1.04742" stroke-linecap="round" stroke-linejoin="round"/>
<path d="M539.249 432.761C537.154 410.155 526.923 391.543 513.883 384.148L513.439 379.538L499.659 380.82C480.628 382.595 467.488 408.701 470.299 439.17C473.109 469.64 490.858 492.886 509.889 491.111L523.669 489.829L523.25 485.22C534.639 475.507 541.345 455.293 539.249 432.761Z" fill="white" stroke="#263238" stroke-width="1.04742" stroke-linecap="round" stroke-linejoin="round"/>
<path d="M553.054 431.405C555.889 461.874 542.75 487.98 523.694 489.755C504.638 491.53 486.914 468.259 484.03 437.814C481.145 407.37 494.334 381.116 513.365 379.464C532.396 377.812 550.195 400.96 553.054 431.405Z" fill="white" stroke="#263238" stroke-width="1.04742" stroke-linecap="round" stroke-linejoin="round"/>
<path d="M567.845 413.606L514.376 418.537C513.626 418.608 512.87 418.53 512.15 418.309C511.43 418.087 510.761 417.725 510.182 417.244C509.602 416.763 509.124 416.172 508.773 415.506C508.422 414.839 508.207 414.11 508.139 413.36V413.36C508.068 412.61 508.145 411.854 508.367 411.134C508.589 410.414 508.951 409.745 509.432 409.166C509.913 408.586 510.503 408.108 511.17 407.757C511.837 407.406 512.566 407.191 513.316 407.123L566.785 402.193C567.535 402.121 568.291 402.199 569.011 402.421C569.731 402.643 570.399 403.004 570.979 403.485C571.558 403.966 572.037 404.557 572.388 405.224C572.738 405.89 572.954 406.619 573.022 407.369V407.369C573.093 408.119 573.016 408.876 572.794 409.595C572.572 410.315 572.21 410.984 571.729 411.563C571.248 412.143 570.657 412.622 569.991 412.972C569.324 413.323 568.595 413.538 567.845 413.606V413.606Z" fill="#737373" stroke="#263238" stroke-width="1.04742" stroke-linecap="round" stroke-linejoin="round"/>
<path d="M571.814 455.983L518.345 460.913C517.595 460.985 516.839 460.907 516.119 460.685C515.399 460.463 514.73 460.102 514.151 459.621C513.571 459.14 513.093 458.549 512.742 457.882C512.391 457.216 512.176 456.487 512.108 455.737V455.737C512.037 454.987 512.114 454.23 512.336 453.511C512.558 452.791 512.92 452.122 513.401 451.543C513.882 450.963 514.472 450.484 515.139 450.134C515.805 449.783 516.535 449.568 517.285 449.5L570.754 444.569C572.265 444.439 573.768 444.909 574.935 445.878C576.102 446.847 576.841 448.237 576.991 449.746V449.746C577.062 450.496 576.985 451.252 576.763 451.972C576.541 452.692 576.179 453.36 575.698 453.94C575.217 454.519 574.626 454.998 573.96 455.349C573.293 455.699 572.564 455.915 571.814 455.983V455.983Z" fill="#737373" stroke="#263238" stroke-width="1.04742" stroke-linecap="round" stroke-linejoin="round"/>
<path d="M400.387 384.271C400.387 384.271 387.519 386.737 381.43 394.132C375.341 401.528 362.842 458.596 365.727 465.153C368.611 471.711 414.833 479.944 429.106 481.128C440.583 481.582 452.078 481.07 463.47 479.599C463.47 479.599 475.796 479.279 479.173 478.712C482.551 478.145 488.763 474.817 488.861 473.56C488.96 472.302 488.344 469.295 483.734 468.925C479.124 468.555 469.239 465.252 467.981 465.153C470.944 464.374 473.948 463.765 476.979 463.329C476.979 463.329 477.62 460.864 472.542 460.864C467.464 460.864 462.854 460.519 460.931 463.329C459.556 465.519 458.385 467.829 457.431 470.232C457.431 470.232 428.958 472.228 413.501 464.685C398.045 457.142 393.164 454.627 393.164 454.627L404.257 410.254" fill="#E3C392"/>
<path d="M400.387 384.271C400.387 384.271 387.519 386.737 381.43 394.132C375.341 401.528 362.842 458.596 365.727 465.153C368.611 471.711 414.833 479.944 429.106 481.128C440.583 481.582 452.078 481.07 463.47 479.599C463.47 479.599 475.796 479.279 479.173 478.712C482.551 478.145 488.763 474.817 488.861 473.56C488.96 472.302 488.344 469.295 483.734 468.925C479.124 468.555 469.239 465.252 467.981 465.153C470.944 464.374 473.948 463.765 476.979 463.329C476.979 463.329 477.62 460.864 472.542 460.864C467.464 460.864 462.854 460.519 460.931 463.329C459.556 465.519 458.385 467.829 457.431 470.232C457.431 470.232 428.958 472.228 413.501 464.685C398.045 457.142 393.164 454.627 393.164 454.627L404.257 410.254" stroke="#263238" stroke-width="1.04742" stroke-linecap="round" stroke-linejoin="round"/>
<path d="M479.099 478.786C482.526 478.219 488.689 474.891 488.787 473.634C488.886 472.376 488.27 469.369 483.66 468.999C479.05 468.629 469.165 465.326 467.907 465.227C470.87 464.448 473.874 463.839 476.905 463.403C476.905 463.403 477.546 460.938 472.468 460.938C467.39 460.938 462.78 460.593 460.857 463.403C459.482 465.592 458.311 467.903 457.357 470.306C457.357 470.306 428.884 472.302 413.427 464.759C397.971 457.216 393.09 454.701 393.09 454.701L399.844 427.584C391.052 423.966 381.773 421.665 372.308 420.756C367.699 439.343 363.927 461.234 365.653 465.129C368.512 471.686 414.759 479.92 429.032 481.103C440.509 481.557 452.004 481.046 463.396 479.575C463.396 479.575 475.747 479.353 479.099 478.786Z" fill="white" stroke="#263238" stroke-width="1.04742" stroke-linecap="round" stroke-linejoin="round"/>
<path d="M270.892 502.378C270.892 502.378 261.376 509.502 262.831 514.21C264.285 518.919 272.223 509.28 274.195 506.445C276.167 503.61 274.614 499.321 270.892 502.378Z" fill="white" stroke="#263238" stroke-width="1.04742" stroke-linecap="round" stroke-linejoin="round"/>
<path d="M272.765 508.761C272.765 508.761 263.274 515.886 264.704 520.594C266.134 525.303 274.121 515.664 276.069 512.829C278.016 509.994 276.488 505.655 272.765 508.761Z" fill="white" stroke="#263238" stroke-width="1.04742" stroke-linecap="round" stroke-linejoin="round"/>
<path d="M277.277 512.903C277.277 512.903 267.786 520.027 269.24 524.736C270.695 529.444 278.632 519.806 280.604 516.971C282.577 514.136 281.024 509.797 277.277 512.903Z" fill="white" stroke="#263238" stroke-width="1.04742" stroke-linecap="round" stroke-linejoin="round"/>
<path d="M280.999 516.256C280.999 516.256 272.79 521.531 274.17 525.426C275.551 529.321 282.33 521.95 284.031 519.683C285.732 517.415 284.352 513.766 280.999 516.256Z" fill="white" stroke="#263238" stroke-width="1.04742" stroke-linecap="round" stroke-linejoin="round"/>
<path d="M1118.95 575.464H1139.39L1168.72 421.668L1149.12 417.277L1118.95 575.464Z" fill="#455A64"/>
<path d="M1206.99 526.738L1083.5 499.104L1080 495.707L1093.06 448.993L1098.79 449.4L1089.95 444.3L1095 417L1218.5 444.634L1222 448.039L1216.88 474.891L1207.09 475.087L1212.48 476.203L1215.98 479.6L1206.99 526.738Z" fill="#263238"/>
<path d="M1203.49 523.341L1080 495.707L1089.56 445.587L1095.29 445.995L1090.51 440.61L1095 417L1218.5 444.634L1213.37 471.486L1203.6 471.682L1212.48 476.203L1203.49 523.341Z" fill="#455A64"/>
<path d="M1206.24 471.404C1206.24 471.404 1206.14 471.404 1205.94 471.404L1205.08 471.339L1201.75 471.046L1199.35 470.818L1196.5 470.451C1194.47 470.174 1192.13 469.913 1189.58 469.457L1185.55 468.797C1184.16 468.561 1182.71 468.251 1181.21 467.983C1178.21 467.429 1175.03 466.704 1171.67 465.97C1164.97 464.431 1157.64 462.565 1149.98 460.455C1134.68 456.186 1120.88 452.08 1110.82 449.416C1108.32 448.724 1106.03 448.161 1104.05 447.64C1102.07 447.119 1100.29 446.695 1098.91 446.361L1095.66 445.546L1094.82 445.326C1094.72 445.303 1094.62 445.27 1094.53 445.229C1094.63 445.233 1094.73 445.249 1094.82 445.277L1095.68 445.448L1098.94 446.157C1100.37 446.467 1102.1 446.866 1104.1 447.363C1106.1 447.86 1108.4 448.398 1110.92 449.066C1121 451.64 1134.81 455.697 1150.11 459.958C1157.76 462.068 1165.08 463.95 1171.77 465.514C1175.12 466.255 1178.3 466.997 1181.3 467.567C1182.8 467.86 1184.24 468.17 1185.63 468.382L1189.64 469.074C1192.19 469.555 1194.51 469.84 1196.55 470.142L1199.39 470.549L1201.78 470.818L1205.1 471.209L1205.96 471.323L1206.24 471.404Z" fill="#263238"/>
<path d="M1212.44 467.127C1212.34 467.068 1212.25 467.003 1212.16 466.932L1211.41 466.321C1210.73 465.791 1209.75 464.952 1208.4 463.958C1204.7 461.141 1200.83 458.572 1196.84 456.267C1190.9 452.871 1184.69 450.073 1178.28 447.909C1170.43 445.295 1162.32 443.676 1154.12 443.086C1145.39 442.393 1137.05 443.314 1129.46 443.501C1125.87 443.639 1122.26 443.56 1118.67 443.265C1111.01 442.582 1103.49 440.6 1096.39 437.391C1094.88 436.715 1093.78 436.145 1093.02 435.762L1092.16 435.289L1091.88 435.118C1091.98 435.148 1092.09 435.192 1092.18 435.249L1093.06 435.672C1093.82 436.047 1094.97 436.593 1096.46 437.236C1100.66 439.06 1105 440.475 1109.44 441.465C1112.49 442.146 1115.59 442.619 1118.7 442.882C1122.28 443.152 1125.87 443.215 1129.45 443.069C1137.02 442.858 1145.37 441.921 1154.15 442.613C1162.38 443.208 1170.53 444.849 1178.41 447.501C1184.83 449.699 1191.06 452.541 1196.99 455.99C1200.99 458.315 1204.83 460.923 1208.51 463.795C1209.81 464.805 1210.76 465.677 1211.44 466.239L1212.19 466.891C1212.28 466.963 1212.36 467.042 1212.44 467.127V467.127Z" fill="#263238"/>
<path d="M1152.75 431.208C1152.56 431.301 1152.37 431.375 1152.17 431.428L1150.48 431.973C1149.73 432.218 1148.85 432.487 1147.78 432.747C1146.72 433.008 1145.53 433.367 1144.17 433.627C1142.82 433.888 1141.36 434.238 1139.76 434.442C1138.16 434.646 1136.46 434.931 1134.66 435.151C1130.75 435.561 1126.81 435.726 1122.88 435.648C1118.95 435.534 1115.03 435.183 1111.14 434.597C1109.35 434.287 1107.65 434.018 1106.07 433.643C1104.49 433.269 1103.06 432.943 1101.7 432.584C1100.34 432.226 1099.18 431.859 1098.13 431.533C1097.09 431.208 1096.19 430.906 1095.47 430.637L1093.8 430.01C1093.6 429.946 1093.41 429.864 1093.23 429.766C1093.43 429.791 1093.64 429.841 1093.83 429.912L1095.52 430.45C1096.28 430.694 1097.15 430.979 1098.2 431.265C1099.25 431.55 1100.46 431.941 1101.77 432.242C1103.09 432.544 1104.56 432.935 1106.14 433.236C1107.72 433.538 1109.41 433.847 1111.2 434.14C1115.07 434.697 1118.97 435.032 1122.88 435.143C1126.8 435.217 1130.71 435.065 1134.61 434.686C1136.4 434.474 1138.11 434.303 1139.69 434.026C1141.28 433.749 1142.75 433.513 1144.1 433.212C1145.45 432.91 1146.65 432.65 1147.71 432.397C1148.77 432.144 1149.68 431.916 1150.42 431.705L1152.12 431.256C1152.33 431.215 1152.54 431.199 1152.75 431.208V431.208Z" fill="#263238"/>
<path d="M1119.88 478.997C1119.88 478.997 1120.07 479.111 1120.43 479.355L1122.06 480.439C1123.49 481.376 1125.58 482.809 1128.37 484.431C1131.75 486.46 1135.36 487.976 1139.11 488.936C1140.25 489.209 1141.39 489.399 1142.55 489.506C1143.76 489.67 1144.99 489.382 1146.03 488.691C1146.53 488.289 1146.9 487.716 1147.06 487.062C1147.23 486.386 1147.23 485.677 1147.06 485.001C1146.67 483.588 1145.83 482.369 1144.69 481.555C1135.28 474.793 1122.02 469.864 1107.01 469.408C1105.14 469.343 1103.25 469.343 1101.33 469.408C1099.4 469.473 1097.45 469.962 1096.16 471.51C1095.84 471.875 1095.58 472.307 1095.41 472.779C1095.24 473.252 1095.16 473.757 1095.18 474.263C1095.25 475.299 1095.62 476.285 1096.23 477.082C1097.44 478.76 1099.19 479.925 1100.86 481.156C1107.63 486.125 1114.8 491.062 1122.86 494.484C1130.92 497.906 1139.49 499.445 1147.56 498.15C1149.55 497.831 1151.51 497.329 1153.43 496.651C1155.31 496.074 1157 494.92 1158.29 493.327C1159.45 491.67 1160.06 489.643 1160.03 487.567C1160.03 485.532 1159.62 483.522 1158.81 481.685C1157.17 478.16 1154.65 475.2 1151.55 473.139C1148.62 471.18 1145.44 469.695 1142.12 468.732C1138.93 467.73 1135.76 467.013 1132.74 466.288L1124.03 464.153L1097.78 457.693L1090.65 455.909L1088.8 455.436C1088.38 455.33 1088.17 455.257 1088.17 455.257L1088.81 455.387L1090.67 455.811L1097.82 457.505L1124.11 463.811L1132.81 465.913C1135.82 466.654 1139.01 467.355 1142.23 468.357C1145.59 469.323 1148.8 470.819 1151.76 472.797C1154.94 474.896 1157.52 477.915 1159.19 481.514C1160.03 483.412 1160.46 485.489 1160.46 487.592C1160.49 489.773 1159.85 491.903 1158.64 493.645C1157.29 495.312 1155.53 496.523 1153.57 497.132C1151.63 497.827 1149.64 498.336 1147.62 498.655C1139.45 499.975 1130.78 498.402 1122.7 494.973C1114.61 491.543 1107.39 486.606 1100.64 481.612C1098.97 480.357 1097.19 479.168 1095.91 477.4C1095.24 476.525 1094.84 475.442 1094.76 474.304C1094.75 473.736 1094.84 473.17 1095.03 472.64C1095.22 472.11 1095.51 471.626 1095.87 471.216C1096.57 470.41 1097.44 469.814 1098.42 469.489C1099.36 469.181 1100.34 469.006 1101.33 468.968C1103.27 468.886 1105.17 468.895 1107.05 468.968C1122.15 469.465 1135.44 474.434 1144.92 481.294C1146.11 482.16 1146.99 483.451 1147.39 484.944C1147.57 485.676 1147.57 486.444 1147.39 487.176C1147.21 487.893 1146.8 488.52 1146.24 488.952C1145.15 489.684 1143.86 489.991 1142.58 489.824C1141.41 489.706 1140.25 489.508 1139.1 489.229C1135.33 488.241 1131.71 486.689 1128.34 484.618C1125.54 482.989 1123.46 481.506 1122.05 480.545C1121.36 480.064 1120.82 479.73 1120.45 479.42C1120.09 479.111 1119.88 478.997 1119.88 478.997Z" fill="#263238"/>
<path d="M1210.04 487.69C1209.79 487.66 1209.54 487.609 1209.29 487.535C1208.82 487.397 1208.12 487.25 1207.23 487.079C1204.67 486.683 1202.08 486.705 1199.53 487.144C1195.75 487.832 1192.09 489.111 1188.66 490.941C1184.48 493.25 1180.45 495.851 1176.58 498.729C1172.7 501.623 1168.62 504.209 1164.39 506.469C1160.9 508.269 1157.18 509.478 1153.35 510.053C1150.77 510.43 1148.14 510.35 1145.58 509.817C1144.89 509.668 1144.21 509.472 1143.54 509.23C1143.3 509.161 1143.07 509.069 1142.84 508.953C1143.09 508.994 1143.32 509.054 1143.56 509.133C1144.02 509.279 1144.72 509.442 1145.61 509.63C1148.16 510.08 1150.75 510.105 1153.31 509.703C1157.09 509.085 1160.76 507.855 1164.21 506.053C1168.41 503.78 1172.46 501.194 1176.33 498.314C1180.21 495.424 1184.27 492.822 1188.48 490.525C1191.95 488.692 1195.66 487.434 1199.48 486.794C1202.06 486.381 1204.69 486.414 1207.26 486.892C1207.97 487.02 1208.68 487.197 1209.37 487.421C1209.6 487.488 1209.83 487.578 1210.04 487.69V487.69Z" fill="#263238"/>
<path d="M1207.76 500.953C1207.76 501.002 1207.17 500.741 1206.09 500.481C1204.56 500.121 1202.98 500.066 1201.43 500.318C1199.14 500.738 1196.9 501.483 1194.79 502.534C1192.18 503.771 1189.65 505.206 1187.22 506.827C1184.6 508.505 1182.1 510.143 1179.7 511.389C1177.58 512.52 1175.36 513.386 1173.07 513.972C1171.52 514.353 1169.93 514.523 1168.35 514.477C1167.92 514.465 1167.49 514.425 1167.06 514.355C1166.91 514.347 1166.76 514.317 1166.62 514.265C1166.62 514.208 1167.24 514.265 1168.35 514.265C1169.92 514.24 1171.48 514.021 1173 513.613C1175.25 512.983 1177.44 512.093 1179.52 510.957C1181.88 509.703 1184.35 508.065 1186.98 506.379C1189.42 504.741 1191.98 503.306 1194.63 502.085C1196.79 501.037 1199.06 500.316 1201.4 499.943C1202.98 499.716 1204.59 499.826 1206.14 500.269C1206.56 500.391 1206.96 500.541 1207.36 500.717C1207.5 500.775 1207.64 500.855 1207.76 500.953V500.953Z" fill="#263238"/>
<path d="M1168.01 433.448C1168.01 433.587 1163.25 432.576 1157.43 431.191C1151.62 429.807 1146.9 428.576 1146.96 428.446C1147.01 428.316 1151.72 429.318 1157.53 430.703C1163.35 432.088 1168.01 433.318 1168.01 433.448Z" fill="#263238"/>
<path d="M1133.8 464.358L1129.93 463.446L1128.85 468.839L1121.67 467.152L1122.75 461.751L1108.99 458.492L1110.04 453.295L1125.25 438.451L1132.88 440.243L1118.97 454.223L1124.23 455.462L1125.19 450.671L1132.15 452.301L1131.19 457.099L1135.05 458.012L1133.8 464.358Z" fill="white"/>
<path d="M1137.04 456.007C1138.9 446.687 1144.81 442.491 1151.46 444.056C1158.11 445.62 1161.84 452.113 1159.97 461.416C1158.1 470.72 1152.18 474.94 1145.57 473.376C1138.96 471.812 1135.16 465.311 1137.04 456.007ZM1152.58 459.673C1153.76 453.758 1152.5 451.135 1150.16 450.581C1147.82 450.027 1145.65 451.836 1144.43 457.75C1143.21 463.665 1144.51 466.296 1146.89 466.859C1149.27 467.421 1151.39 465.596 1152.58 459.673Z" fill="white"/>
<path d="M1185.31 476.505L1181.44 475.592L1180.36 480.993L1173.17 479.275L1174.26 473.873L1160.5 470.614L1161.55 465.417L1176.75 450.573L1184.38 452.39L1170.48 466.362L1175.74 467.608L1176.7 462.81L1183.65 464.439L1182.69 469.229L1186.55 470.142L1185.31 476.505Z" fill="white"/>
<path d="M1128.29 484.35L1127.91 486.118L1120.08 484.162L1122.52 472.854L1130.15 474.785L1129.77 476.545L1124.09 475.103L1123.45 478.044L1128.49 479.331L1128.12 481.058L1123.07 479.779L1122.39 482.9L1128.29 484.35Z" fill="white"/>
<path d="M1136.91 488.398L1135.5 484.545C1135.36 484.524 1135.22 484.494 1135.09 484.455L1132.73 483.86L1132.01 487.119L1130.07 486.63L1132.53 475.314L1136.82 476.406C1139.56 477.107 1140.94 479.054 1140.4 481.563C1140.26 482.347 1139.9 483.063 1139.35 483.604C1138.81 484.145 1138.12 484.484 1137.39 484.569L1138.99 488.895L1136.91 488.398ZM1136.35 478.198L1134.09 477.62L1133.11 482.133L1135.37 482.704C1137.07 483.135 1138.14 482.516 1138.44 481.074C1138.75 479.632 1138.05 478.63 1136.35 478.198Z" fill="white"/>
<path d="M1147.81 491.168L1146.4 487.315C1146.26 487.293 1146.13 487.263 1145.99 487.225L1143.64 486.606L1142.89 489.906L1140.95 489.409L1143.39 478.093L1147.69 479.184C1150.44 479.885 1151.81 481.832 1151.27 484.341C1151.13 485.126 1150.76 485.842 1150.22 486.384C1149.68 486.925 1148.99 487.263 1148.26 487.348L1149.85 491.674L1147.81 491.168ZM1147.26 480.969L1145 480.39L1144.02 484.904L1146.28 485.474C1147.98 485.906 1149.04 485.286 1149.35 483.844C1149.66 482.402 1148.96 481.4 1147.26 480.969V480.969Z" fill="white"/>
<path d="M1152.37 486.354C1153.12 483.014 1156.02 481.148 1159.25 481.971C1162.49 482.794 1164.35 485.857 1163.62 489.213C1162.89 492.57 1159.98 494.427 1156.74 493.604C1153.51 492.782 1151.65 489.702 1152.37 486.354ZM1161.67 488.716C1161.84 487.932 1161.79 487.11 1161.52 486.357C1161.26 485.603 1160.8 484.95 1160.19 484.482C1159.59 484.013 1158.87 483.749 1158.12 483.724C1157.38 483.698 1156.65 483.912 1156.02 484.338C1155.38 484.765 1154.88 485.384 1154.58 486.118C1154.27 486.852 1154.17 487.669 1154.3 488.463C1154.42 489.258 1154.75 489.996 1155.26 490.583C1155.77 491.171 1156.43 491.581 1157.16 491.763C1157.64 491.9 1158.14 491.93 1158.63 491.849C1159.12 491.768 1159.6 491.579 1160.02 491.294C1160.44 491.009 1160.81 490.633 1161.09 490.19C1161.37 489.746 1161.57 489.245 1161.67 488.716V488.716Z" fill="white"/>
<path d="M1171.29 497.133L1169.88 493.279L1169.47 493.19L1167.11 492.595L1166.4 495.854L1164.46 495.365L1166.91 484.049L1171.2 485.141C1173.95 485.841 1175.33 487.788 1174.78 490.297C1174.65 491.081 1174.28 491.796 1173.74 492.337C1173.2 492.878 1172.51 493.217 1171.78 493.304L1173.38 497.63L1171.29 497.133ZM1170.73 486.925L1168.47 486.354L1167.5 490.86L1169.75 491.438C1171.46 491.87 1172.52 491.251 1172.83 489.809C1173.14 488.367 1172.43 487.356 1170.73 486.925V486.925Z" fill="white"/>
</svg>
