<svg width="1302" height="509" viewBox="0 0 1302 509" fill="none" xmlns="http://www.w3.org/2000/svg">
<path d="M1079.7 179.915C1079.7 179.915 1143.96 185.511 1176.5 220.541C1176.5 220.541 1210.93 179.965 1272.72 180.803C1287.82 164.785 1297.43 145.324 1300.44 124.687C1303.45 104.05 1299.74 83.0863 1289.72 64.2358C1279.71 45.3852 1263.81 29.4238 1243.88 18.21C1223.95 6.99625 1200.81 0.991427 1177.14 0.894741C1153.48 0.798055 1130.28 6.61348 1110.23 17.6639C1090.18 28.7143 1074.12 44.5451 1063.9 63.313C1053.69 82.0809 1049.75 103.014 1052.54 123.674C1055.33 144.335 1064.74 163.873 1079.67 180.014L1079.7 179.915Z" fill="#E3C392"/>
<path opacity="0.5" d="M1079.7 179.915C1079.7 179.915 1143.96 185.511 1176.5 220.541C1176.5 220.541 1210.93 179.965 1272.72 180.803C1287.82 164.785 1297.43 145.324 1300.44 124.687C1303.45 104.05 1299.74 83.0863 1289.72 64.2358C1279.71 45.3852 1263.81 29.4238 1243.88 18.21C1223.95 6.99625 1200.81 0.991427 1177.14 0.894741C1153.48 0.798055 1130.28 6.61348 1110.23 17.6639C1090.18 28.7143 1074.12 44.5451 1063.9 63.313C1053.69 82.0809 1049.75 103.014 1052.54 123.674C1055.33 144.335 1064.74 163.873 1079.67 180.014L1079.7 179.915Z" fill="white"/>
<path d="M1174.35 8.63574L1172.19 374.811H1183.04L1174.35 8.63574Z" fill="#B8B8B8"/>
<path d="M1177.63 209.868C1177.63 209.868 1199.3 175.528 1238.35 165.026C1238.35 165.026 1197.14 173.63 1176.67 203.187L1177.63 209.868Z" fill="#B8B8B8"/>
<path d="M1177.63 112.592C1177.63 112.592 1199.3 78.2526 1238.35 67.751C1238.35 67.751 1197.14 76.3297 1176.67 105.912L1177.63 112.592Z" fill="#B8B8B8"/>
<path d="M1177.63 161.18C1177.63 161.18 1199.3 126.84 1238.35 116.339C1238.35 116.339 1197.14 124.942 1176.67 154.5L1177.63 161.18Z" fill="#B8B8B8"/>
<path d="M1174.4 137.366C1174.4 137.366 1153.46 103.051 1115.78 92.5498C1115.78 92.5498 1155.56 101.129 1175.44 130.711L1174.4 137.366Z" fill="#B8B8B8"/>
<path d="M1174.4 185.068C1174.4 185.068 1153.46 150.728 1115.78 140.251C1115.78 140.251 1155.56 148.83 1175.44 178.387L1174.4 185.068Z" fill="#B8B8B8"/>
<path d="M28.031 179.915C28.031 179.915 92.2868 185.511 124.835 220.541C124.835 220.541 159.262 179.965 221.051 180.803C236.151 164.785 245.765 145.324 248.775 124.687C251.785 104.05 248.067 83.0863 238.053 64.2358C228.038 45.3852 212.14 29.4238 192.21 18.21C172.279 6.99625 149.136 0.991427 125.475 0.894741C101.814 0.798055 78.609 6.61348 58.5608 17.6639C38.5127 28.7143 22.4468 44.5451 12.2338 63.313C2.02074 82.0809 -1.91929 103.014 0.872464 123.674C3.66421 144.335 13.0729 163.873 28.003 180.014L28.031 179.915Z" fill="#E3C392"/>
<path opacity="0.5" d="M28.031 179.915C28.031 179.915 92.2868 185.511 124.835 220.541C124.835 220.541 159.262 179.965 221.051 180.803C236.151 164.785 245.765 145.324 248.775 124.687C251.785 104.05 248.067 83.0863 238.053 64.2358C228.038 45.3852 212.14 29.4238 192.21 18.21C172.279 6.99625 149.136 0.991427 125.475 0.894741C101.814 0.798055 78.609 6.61348 58.5608 17.6639C38.5127 28.7143 22.4468 44.5451 12.2338 63.313C2.02074 82.0809 -1.91929 103.014 0.872464 123.674C3.66421 144.335 13.0729 163.873 28.003 180.014L28.031 179.915Z" fill="white"/>
<path d="M122.733 8.63574L120.546 374.811H131.395L122.733 8.63574Z" fill="#B8B8B8"/>
<path d="M125.985 209.868C125.985 209.868 147.655 175.528 186.708 165.026C186.708 165.026 145.497 173.63 125.031 203.187L125.985 209.868Z" fill="#B8B8B8"/>
<path d="M125.985 112.592C125.985 112.592 147.655 78.2526 186.708 67.751C186.708 67.751 145.497 76.3297 125.031 105.912L125.985 112.592Z" fill="#B8B8B8"/>
<path d="M125.985 161.18C125.985 161.18 147.655 126.84 186.708 116.339C186.708 116.339 145.497 124.942 125.031 154.5L125.985 161.18Z" fill="#B8B8B8"/>
<path d="M122.761 137.366C122.761 137.366 101.819 103.051 64.1398 92.5498C64.1398 92.5498 103.921 101.129 123.798 130.711L122.761 137.366Z" fill="#B8B8B8"/>
<path d="M122.761 185.068C122.761 185.068 101.819 150.728 64.1398 140.251C64.1398 140.251 103.921 148.83 123.798 178.387L122.761 185.068Z" fill="#B8B8B8"/>
<path d="M818.612 215.414C818.612 215.414 871.206 219.975 897.839 248.645C897.839 248.645 926.014 215.439 976.588 216.104C988.941 202.992 996.804 187.064 999.262 170.175C1001.72 153.286 998.671 136.13 990.471 120.705C982.272 105.28 969.258 92.2209 952.945 83.0472C936.632 73.8736 917.691 68.9631 898.327 68.8876C878.964 68.8121 859.974 73.5746 843.569 82.6206C827.165 91.6666 814.019 104.624 805.664 119.984C797.309 135.345 794.087 152.476 796.375 169.384C798.662 186.291 806.364 202.28 818.584 215.488L818.612 215.414Z" fill="#E3C392"/>
<path opacity="0.5" d="M818.612 215.414C818.612 215.414 871.206 219.975 897.839 248.645C897.839 248.645 926.014 215.439 976.588 216.104C988.941 202.992 996.804 187.064 999.262 170.175C1001.72 153.286 998.671 136.13 990.471 120.705C982.272 105.28 969.258 92.2209 952.945 83.0472C936.632 73.8736 917.691 68.9631 898.327 68.8876C878.964 68.8121 859.974 73.5746 843.569 82.6206C827.165 91.6666 814.019 104.624 805.664 119.984C797.309 135.345 794.087 152.476 796.375 169.384C798.662 186.291 806.364 202.28 818.584 215.488L818.612 215.414Z" fill="white"/>
<path d="M896.1 75.0967L894.334 374.811H903.221L896.1 75.0967Z" fill="#B8B8B8"/>
<path d="M898.764 239.819C898.764 239.819 916.538 211.716 948.469 203.112C948.469 203.112 914.828 210.138 898.007 234.346L898.764 239.819Z" fill="#B8B8B8"/>
<path d="M898.764 160.194C898.764 160.194 916.538 132.091 948.469 123.513C948.469 123.513 914.828 130.538 898.007 154.722L898.764 160.194Z" fill="#B8B8B8"/>
<path d="M898.764 200.006C898.764 200.006 916.538 171.903 948.469 163.3C948.469 163.3 914.828 170.326 898.007 194.533L898.764 200.006Z" fill="#B8B8B8"/>
<path d="M896.128 180.482C896.128 180.482 878.999 152.38 848.161 143.801C848.161 143.801 880.709 150.827 896.997 175.01L896.128 180.482Z" fill="#B8B8B8"/>
<path d="M896.128 219.506C896.128 219.506 878.999 191.403 848.161 182.824C848.161 182.824 880.709 189.85 896.997 214.058L896.128 219.506Z" fill="#B8B8B8"/>
<path d="M309.753 215.414C309.753 215.414 362.346 219.975 388.979 248.645C388.979 248.645 417.014 215.439 467.729 216.104C480.081 202.992 487.945 187.064 490.402 170.175C492.86 153.286 489.812 136.13 481.612 120.705C473.412 105.28 460.398 92.2209 444.085 83.0472C427.772 73.8736 408.831 68.9631 389.468 68.8876C370.104 68.8121 351.115 73.5746 334.71 82.6206C318.305 91.6666 305.16 104.624 296.804 119.984C288.449 135.345 285.228 152.476 287.515 169.384C289.802 186.291 297.505 202.28 309.725 215.488L309.753 215.414Z" fill="#E3C392"/>
<path opacity="0.5" d="M309.753 215.414C309.753 215.414 362.346 219.975 388.979 248.645C388.979 248.645 417.014 215.439 467.729 216.104C480.081 202.992 487.945 187.064 490.402 170.175C492.86 153.286 489.812 136.13 481.612 120.705C473.412 105.28 460.398 92.2209 444.085 83.0472C427.772 73.8736 408.831 68.9631 389.468 68.8876C370.104 68.8121 351.115 73.5746 334.71 82.6206C318.305 91.6666 305.16 104.624 296.804 119.984C288.449 135.345 285.228 152.476 287.515 169.384C289.802 186.291 297.505 202.28 309.725 215.488L309.753 215.414Z" fill="white"/>
<path d="M387.241 75.0967L385.475 374.811H394.362L387.241 75.0967Z" fill="#B8B8B8"/>
<path d="M390.044 239.819C390.044 239.819 407.818 211.716 439.75 203.112C439.75 203.112 406.108 210.138 389.287 234.346L390.044 239.819Z" fill="#B8B8B8"/>
<path d="M390.044 160.194C390.044 160.194 407.818 132.091 439.75 123.513C439.75 123.513 406.108 130.538 389.287 154.722L390.044 160.194Z" fill="#B8B8B8"/>
<path d="M390.044 200.006C390.044 200.006 407.818 171.903 439.75 163.3C439.75 163.3 406.108 170.326 389.287 194.533L390.044 200.006Z" fill="#B8B8B8"/>
<path d="M387.241 180.482C387.241 180.482 370.14 152.379 339.301 143.924C339.301 143.924 371.85 150.95 388.138 175.133L387.241 180.482Z" fill="#B8B8B8"/>
<path d="M387.241 219.506C387.241 219.506 370.112 191.403 339.273 182.824C339.273 182.824 371.822 189.85 388.11 214.058L387.241 219.506Z" fill="#B8B8B8"/>
<path d="M47.375 376.118H1257.19" stroke="#263238" stroke-width="1.04742" stroke-miterlimit="10"/>
<path opacity="0.3" d="M332.103 495.087C332.103 502.483 286.67 508.374 230.588 508.374C174.505 508.374 129.073 502.433 129.073 495.087C129.073 487.741 174.53 481.8 230.588 481.8C286.646 481.8 332.103 487.766 332.103 495.087Z" fill="black"/>
<path opacity="0.3" d="M544.625 495.087C544.625 502.483 499.167 508.374 443.11 508.374C387.052 508.374 341.594 502.433 341.594 495.087C341.594 487.741 387.052 481.8 443.11 481.8C499.167 481.8 544.625 487.766 544.625 495.087Z" fill="black"/>
<path opacity="0.3" d="M826.146 495.087C826.146 502.483 780.713 508.374 724.656 508.374C668.598 508.374 623.14 502.433 623.14 495.087C623.14 487.741 668.573 481.8 724.656 481.8C780.738 481.8 826.146 487.766 826.146 495.087Z" fill="black"/>
<path opacity="0.3" d="M1061.32 495.087C1061.32 502.483 1015.87 508.374 959.807 508.374C903.75 508.374 858.193 502.433 858.193 495.087C858.193 487.741 903.651 481.8 959.709 481.8C1015.77 481.8 1061.32 487.766 1061.32 495.087Z" fill="black"/>
<path d="M735.626 106.381C735.626 106.381 731.46 123.637 731.46 126.546C731.457 128.345 731.259 130.139 730.868 131.895C730.868 131.895 721.969 142.569 723.152 145.528C724.59 147.828 726.65 149.674 729.093 150.852C729.093 150.852 733.826 168.109 738.584 169.242C743.47 170.155 748.411 170.748 753.375 171.017L755.15 185.241L778.865 181.692L772.948 160.343L775.413 141.953C775.413 141.953 779.555 134.262 775.413 121.813C771.272 109.364 762.373 108.772 756.432 108.772C749.46 108.33 742.516 107.532 735.626 106.381Z" fill="white" stroke="#263238" stroke-width="1.04742" stroke-linecap="round" stroke-linejoin="round"/>
<path d="M746.3 97.506C746.3 97.506 725.543 96.8897 726.135 102.239C726.726 107.588 748.075 114.565 748.075 114.565C748.075 114.565 740.95 119.298 744.5 124.056C748.05 128.814 756.358 132.955 756.358 132.955C756.358 132.955 753.892 143.038 757.566 143.629C761.239 144.221 763.482 138.871 764.074 137.096C764.665 135.322 771.198 135.913 772.973 140.646C773.976 143.106 774.576 145.711 774.748 148.362C774.748 148.362 781.872 127.014 783.055 117.523C784.239 108.032 757.566 97.506 746.3 97.506Z" fill="#263238" stroke="#263238" stroke-width="1.04742" stroke-linecap="round" stroke-linejoin="round"/>
<path d="M759.439 143.925C759.439 143.925 766.613 128.148 770.902 135.914C775.191 143.679 773.367 151.765 769.152 152.627C764.936 153.49 761.411 154.328 761.411 154.328" fill="white"/>
<path d="M759.439 143.925C759.439 143.925 766.613 128.148 770.902 135.914C775.191 143.679 773.367 151.765 769.152 152.627C764.936 153.49 761.411 154.328 761.411 154.328" stroke="#263238" stroke-width="1.04742" stroke-linecap="round" stroke-linejoin="round"/>
<path d="M730.276 308.573C729.118 309.929 710.111 350.678 707.745 364.31C705.378 377.942 689.971 459.194 689.355 462.744C688.738 466.294 656.173 473.418 653.782 474.01C651.391 474.601 656.247 481.134 663.273 482.909C670.299 484.684 690.562 492.992 695.32 488.234C700.078 483.476 706.586 456.803 708.361 453.845C710.136 450.887 743.514 372.248 743.514 372.248C743.514 372.248 760.622 334.506 764.172 330.932C767.722 327.357 759.957 311.556 756.974 306.798C753.991 302.04 738.584 299.082 730.276 308.573Z" fill="#263238" stroke="#263238" stroke-width="1.04742" stroke-linecap="round" stroke-linejoin="round"/>
<path d="M726.726 309.091C726.726 309.091 735.034 348.83 739.175 363.054C743.052 375 748.883 386.221 756.432 396.259C761.189 402.792 784.313 460.353 784.313 460.353L787.862 469.253C787.862 469.253 786.679 472.802 780.171 477.536C773.663 482.269 755.248 489.985 760.006 491.784C764.764 493.584 783.721 493.559 792.62 492.968C800.282 492.425 807.465 489.04 812.761 483.477C816.335 479.311 806.844 467.453 806.844 465.087C806.844 462.72 786.087 390.392 784.904 386.818C783.721 383.243 777.78 357.778 777.78 357.778V328.812C777.78 328.812 780.763 323.488 780.763 311.556C780.763 299.625 771.864 297.308 771.864 297.308L723.226 302.065L726.726 309.091Z" fill="#263238" stroke="#263238" stroke-width="1.04742" stroke-linecap="round" stroke-linejoin="round"/>
<path d="M722.61 305.615C722.61 305.615 723.818 315.698 727.367 316.29C730.917 316.881 767.673 326.964 783.696 315.106C783.696 315.106 786.655 306.207 784.88 303.84C783.105 301.474 778.939 302.657 757.615 302.657C736.291 302.657 722.61 302.657 722.61 305.615Z" fill="#E3C392" stroke="#263238" stroke-width="1.04742" stroke-linecap="round" stroke-linejoin="round"/>
<path d="M777.114 172.792C777.114 172.792 755.174 175.75 745.683 185.118C736.193 194.485 727.91 211.815 723.768 227.814C719.627 243.813 716.644 302.533 722.56 305.492C728.477 308.45 778.298 311.433 786.655 307.957C795.011 304.481 786.063 276.526 786.063 265.852C786.063 255.178 795.554 219.014 793.779 198.873C792.004 178.733 777.114 172.792 777.114 172.792Z" fill="#E3C392" stroke="#263238" stroke-width="1.04742" stroke-linecap="round" stroke-linejoin="round"/>
<path d="M697.958 234.421C697.687 210.016 687.728 189.185 674.49 180.187V175.257L638.005 175.627C617.47 175.848 601.028 202.743 601.447 235.53C601.866 268.317 618.703 294.866 639.262 294.694L675.747 294.324V289.394C688.566 279.854 698.081 258.826 697.958 234.421Z" fill="#263238" stroke="#263238" stroke-width="1.04742" stroke-linecap="round" stroke-linejoin="round"/>
<path d="M714.327 234.249C714.056 208.611 704.17 186.72 690.267 177.205V171.954L674.638 172.127C653.043 172.349 635.861 200.525 636.23 235.062C636.6 269.599 654.374 297.406 675.969 297.184L691.598 297.012V291.786C705.181 281.974 714.598 259.788 714.327 234.249Z" fill="white" stroke="#263238" stroke-width="1.04742" stroke-linecap="round" stroke-linejoin="round"/>
<path d="M730.005 234.076C730.375 268.588 713.168 296.79 691.598 297.011C670.028 297.233 652.155 269.426 651.859 234.914C651.564 200.402 668.697 172.2 690.267 171.954C711.837 171.707 729.586 199.539 730.005 234.076Z" fill="#737373" stroke="#263238" stroke-width="1.04742" stroke-linecap="round" stroke-linejoin="round"/>
<path d="M721.032 233.016C721.204 249.36 713.045 262.721 702.814 262.844C692.584 262.968 684.153 249.754 683.98 233.262C683.808 216.771 691.968 203.681 702.198 203.434C712.428 203.187 720.859 216.647 721.032 233.016Z" fill="#263238" stroke="#263238" stroke-width="1.04742" stroke-linecap="round" stroke-linejoin="round"/>
<path d="M1011.53 355.929C1013.56 340.734 1014.43 325.405 1014.11 310.077C1006.1 313.775 959.364 315.131 955.074 315.229C950.785 315.328 904.045 313.775 896.034 310.077C895.681 325.402 896.505 340.731 898.499 355.929C901.728 375.922 930.127 455.965 930.768 459.836C931.599 463.568 932.678 467.241 933.997 470.83C933.997 470.83 917.85 482.441 910.751 486.953C903.651 491.464 908.828 493.411 915.928 493.411C923.027 493.411 937.867 491.464 942.379 491.464C946.372 491.464 953.324 487.988 954.951 487.15C956.578 487.988 963.53 491.464 967.499 491.464C972.035 491.464 986.875 493.411 993.975 493.411C1001.07 493.411 1006.3 491.464 999.151 486.953C992.002 482.441 975.905 470.83 975.905 470.83C977.224 467.241 978.303 463.568 979.134 459.836C979.898 455.891 1008.3 375.848 1011.53 355.929Z" fill="#263238" stroke="#263238" stroke-width="1.04742" stroke-linecap="round" stroke-linejoin="round"/>
<path d="M945.312 184.575C945.312 184.575 920.34 192.735 907.448 200.919C894.555 209.104 881.613 253.427 881.613 255.153C880.871 258.241 879.865 261.26 878.605 264.175C878.605 264.175 865.688 261.168 863.124 271.916C860.56 282.664 876.017 296.444 884.201 296.888C892.385 297.332 894.949 294.743 894.949 294.743C894.949 294.743 889.797 305.072 891.942 309.362C894.086 313.651 912.181 329.601 947.901 329.083C983.621 328.565 1009.53 322.624 1013.3 317.472C1017.07 312.32 1017.62 301.547 1017.62 301.547C1017.62 301.547 1030.95 298.096 1035.69 289.492C1040.42 280.889 1039.56 271.842 1036.97 262.819C1034.38 253.797 1021.04 227.592 1012.02 212.949C1003 198.306 984.04 190.146 975.042 187.558C966.044 184.97 951.327 184.575 945.312 184.575Z" fill="#E3C392" stroke="#263238" stroke-width="1.04742" stroke-linecap="round" stroke-linejoin="round"/>
<path d="M952.88 220.813C956.455 219.63 967.671 209.671 971.985 199.711C973.692 195.898 974.894 191.879 975.56 187.755L974.993 187.583C965.97 184.994 951.327 184.575 945.411 184.575C945.411 184.575 940.185 186.276 933.282 188.914C933.325 194.243 934.327 199.52 936.241 204.494C940.136 214.453 949.405 222.021 952.88 220.813Z" fill="white" stroke="#263238" stroke-width="1.04742" stroke-linecap="round" stroke-linejoin="round"/>
<path d="M993.925 240.929C993.925 240.929 1004.25 296.025 1015.96 301.695" stroke="#263238" stroke-width="1.04742" stroke-linecap="round" stroke-linejoin="round"/>
<path d="M894.949 294.744C894.949 294.744 907.867 246.106 908.729 241.373" stroke="#263238" stroke-width="1.04742" stroke-linecap="round" stroke-linejoin="round"/>
<path d="M1010.61 265.827C1010.61 265.827 1003.47 267.43 1003.47 272.606" stroke="#263238" stroke-width="1.04742" stroke-linecap="round" stroke-linejoin="round"/>
<path d="M889.156 266.616C889.156 266.616 897.118 271.793 896.33 279.756" stroke="#263238" stroke-width="1.04742" stroke-linecap="round" stroke-linejoin="round"/>
<path d="M942.502 491.513C946.496 491.513 953.447 488.037 955.074 487.199C956.701 488.037 963.653 491.513 967.622 491.513C972.158 491.513 986.998 493.461 994.098 493.461C1001.2 493.461 1006.42 491.513 999.275 487.002C993.087 483.082 980.12 473.813 976.817 471.447C969.2 478.399 954.138 476.673 954.138 476.673C951.086 476.213 948.065 475.571 945.09 474.75C940.579 473.444 934.12 470.88 934.12 470.88C934.12 470.88 917.974 482.491 910.874 487.002C903.774 491.513 908.951 493.461 916.051 493.461C923.151 493.461 937.991 491.513 942.502 491.513Z" fill="#E3C392" stroke="#263238" stroke-width="1.04742" stroke-linecap="round" stroke-linejoin="round"/>
<path d="M954.138 470.978V358.419" stroke="white" stroke-width="1.04742" stroke-linecap="round" stroke-linejoin="round"/>
<path d="M955.074 487.076L954.138 476.55V470.979" stroke="#263238" stroke-width="1.04742" stroke-linecap="round" stroke-linejoin="round"/>
<path d="M945.09 354.549H963.801" stroke="white" stroke-width="1.04742" stroke-linecap="round" stroke-linejoin="round"/>
<path d="M920.636 119.989C920.636 119.989 907.226 128.025 909.222 135.075C911.219 142.126 917.283 143.482 915.952 147.401C914.621 151.321 909.962 153.786 915.262 156.251C918.281 157.603 921.439 158.62 924.679 159.283C924.679 159.283 929.609 176.392 938.089 179.399C946.57 182.407 961.262 180.41 971.665 179.079C975.179 178.735 978.505 177.329 981.2 175.047C983.896 172.766 985.832 169.718 986.752 166.309C987.762 162.636 982.388 166.999 979.701 162.956C977.014 158.914 981.057 148.535 984.065 139.463C987.072 130.392 978.025 113.283 966.291 107.589C954.557 101.894 932.148 104.877 920.636 119.989Z" fill="#263238" stroke="#263238" stroke-width="1.04742" stroke-linecap="round" stroke-linejoin="round"/>
<path d="M943.168 178.438C941.462 184.065 940.306 189.844 939.716 195.694C939.273 203.089 945.312 211.2 951.771 210.756C958.23 210.312 963.801 197.419 964.664 191.035C965.527 184.65 962.519 167.369 962.519 167.369C962.519 167.369 952.658 167.813 948.739 171.239C946.437 173.259 944.546 175.703 943.168 178.438Z" fill="white" stroke="#263238" stroke-width="1.04742" stroke-linecap="round" stroke-linejoin="round"/>
<path d="M934.416 129.381C934.416 129.381 934.737 139.439 944.819 149.102C950.881 154.963 958.068 159.534 965.946 162.537C965.77 164.74 965.202 166.894 964.269 168.897C963.831 169.735 963.148 170.419 962.312 170.86C961.475 171.3 960.524 171.475 959.586 171.363H956.208C956.208 171.363 951.278 182.924 945.312 184.6C939.347 186.277 924.679 185.118 922.657 170.352C920.636 155.586 920.316 143.506 921.992 140.474C923.668 137.442 934.416 129.381 934.416 129.381Z" fill="white" stroke="#263238" stroke-width="1.04742" stroke-linecap="round" stroke-linejoin="round"/>
<path d="M1039.9 259.294C1041.43 256.211 1042.36 252.864 1042.64 249.434C1042.64 244.947 1034.3 238.513 1032.78 236.911C1031.25 235.308 1029.72 235.481 1029.4 237.724C1029.39 238.983 1029.65 240.23 1030.14 241.388C1030.64 242.545 1031.37 243.589 1032.28 244.454C1033.53 245.439 1034.44 246.794 1034.87 248.324C1035.02 249.434 1032.11 254.882 1033.57 258.407C1035.02 261.932 1039.11 262.992 1039.9 259.294Z" fill="white" stroke="#263238" stroke-width="1.04742" stroke-linecap="round" stroke-linejoin="round"/>
<path d="M706.044 234.125C706.044 234.125 742.331 245.736 764.148 272.853C785.964 299.969 800.287 296.075 827.404 287.052C854.52 278.03 864.849 245.736 902.295 272.853C939.741 299.969 947.482 310.274 978.469 294.793C1009.46 279.311 1026.22 241.866 1054.64 254.758C1083.07 267.651 1070.12 333.644 1072.71 365.691C1075.3 397.738 1071.41 478.028 1077.86 488.357C1084.32 498.686 1150.17 490.822 1150.17 490.822" stroke="#263238" stroke-width="3.14226" stroke-linecap="round" stroke-linejoin="round"/>
<path d="M774.008 191.034C774.008 191.034 766.785 179.251 756.136 182.332C744.87 185.586 739.052 201.684 736.415 211.717C733.777 221.75 732.002 232.597 727.17 241.94C727.17 241.94 705.822 241.57 693.915 238.119C684.83 235.287 675.895 231.995 667.143 228.258C667.143 228.258 662.928 222.366 659.945 221.208C656.962 220.049 649.222 217.781 648.655 219.556C648.088 221.331 657.628 227.174 657.628 227.174C657.628 227.174 639.879 229.639 638.104 231.537C636.329 233.435 650.651 239.105 650.651 239.105C650.651 239.105 656.001 240.831 669.017 237.724C669.017 237.724 716.767 268.046 726.283 271.522C735.798 274.998 741.074 276.107 747.557 263.584C754.04 251.061 775.561 220 778.988 207.502" fill="#E3C392"/>
<path d="M774.008 191.034C774.008 191.034 766.785 179.251 756.136 182.332C744.87 185.586 739.052 201.684 736.415 211.717C733.777 221.75 732.002 232.597 727.17 241.94C727.17 241.94 705.822 241.57 693.915 238.119C684.83 235.287 675.895 231.995 667.143 228.258C667.143 228.258 662.928 222.366 659.945 221.208C656.962 220.049 649.222 217.781 648.655 219.556C648.088 221.331 657.628 227.174 657.628 227.174C657.628 227.174 639.879 229.639 638.104 231.537C636.329 233.435 650.651 239.105 650.651 239.105C650.651 239.105 656.001 240.831 669.017 237.724C669.017 237.724 716.767 268.046 726.283 271.522C735.798 274.998 741.074 276.107 747.557 263.584C754.04 251.061 775.561 220 778.988 207.502" stroke="#263238" stroke-width="1.04742" stroke-linecap="round" stroke-linejoin="round"/>
<path d="M679.543 233.288C672.567 230.674 667.217 228.357 667.217 228.357C667.217 228.357 663.002 222.465 660.019 221.307C657.036 220.148 649.296 217.88 648.729 219.655C648.162 221.43 657.702 227.273 657.702 227.273C657.702 227.273 639.953 229.738 638.178 231.636C636.403 233.534 650.725 239.204 650.725 239.204C650.725 239.204 656.075 240.93 669.091 237.823L675.772 242.039L679.543 233.288Z" fill="white" stroke="#263238" stroke-width="1.04742" stroke-linecap="round" stroke-linejoin="round"/>
<path d="M863.592 263.83C862.063 260.747 861.134 257.4 860.856 253.97C860.856 249.483 869.213 243.074 870.716 241.471C872.22 239.869 873.749 240.041 874.069 242.285C874.073 243.544 873.82 244.791 873.324 245.948C872.828 247.106 872.1 248.149 871.185 249.015C869.936 250 869.03 251.354 868.596 252.885C868.449 253.97 871.357 259.442 869.903 262.967C868.449 266.493 864.381 267.503 863.592 263.83Z" fill="white" stroke="#263238" stroke-width="1.04742" stroke-linecap="round" stroke-linejoin="round"/>
<path d="M869.336 250.297C869.336 250.297 862.458 262.992 866.452 267.553C870.445 272.113 874.316 257.298 875.055 253.205C875.795 249.113 871.875 244.996 869.336 250.297Z" fill="white" stroke="#263238" stroke-width="1.04742" stroke-linecap="round" stroke-linejoin="round"/>
<path d="M875.006 254.857C875.006 254.857 868.128 267.553 872.122 272.114C876.115 276.674 879.986 261.858 880.725 257.766C881.465 253.674 877.545 249.409 875.006 254.857Z" fill="white" stroke="#263238" stroke-width="1.04742" stroke-linecap="round" stroke-linejoin="round"/>
<path d="M881.243 255.917C881.243 255.917 874.365 268.612 878.359 273.173C882.352 277.734 886.222 262.918 886.962 258.826C887.702 254.734 883.782 250.592 881.243 255.917Z" fill="white" stroke="#263238" stroke-width="1.04742" stroke-linecap="round" stroke-linejoin="round"/>
<path d="M889.23 256.016C889.23 256.016 882.821 265.876 886.321 269.599C889.822 273.321 893.593 261.611 894.333 258.234C895.072 254.857 891.596 251.578 889.23 256.016Z" fill="white" stroke="#263238" stroke-width="1.04742" stroke-linecap="round" stroke-linejoin="round"/>
<path d="M1035.32 250.79C1035.32 250.79 1042.19 263.485 1038.2 268.046C1034.21 272.606 1030.34 257.766 1029.6 253.674C1028.86 249.582 1032.78 245.465 1035.32 250.79Z" fill="white" stroke="#263238" stroke-width="1.04742" stroke-linecap="round" stroke-linejoin="round"/>
<path d="M1029.65 255.227C1029.65 255.227 1036.52 267.923 1032.53 272.483C1028.54 277.044 1024.67 262.203 1023.93 258.111C1023.19 254.019 1027.11 249.927 1029.65 255.227Z" fill="white" stroke="#263238" stroke-width="1.04742" stroke-linecap="round" stroke-linejoin="round"/>
<path d="M1023.36 256.411C1023.36 256.411 1030.24 269.106 1026.24 273.667C1022.25 278.227 1018.38 263.412 1017.66 259.295C1016.95 255.178 1020.89 251.086 1023.36 256.411Z" fill="white" stroke="#263238" stroke-width="1.04742" stroke-linecap="round" stroke-linejoin="round"/>
<path d="M1015.42 256.509C1015.42 256.509 1021.83 266.493 1018.33 270.092C1014.83 273.691 1011.06 262.105 1010.34 258.727C1009.63 255.35 1013.05 252.071 1015.42 256.509Z" fill="white" stroke="#263238" stroke-width="1.04742" stroke-linecap="round" stroke-linejoin="round"/>
<path d="M167.258 396.974V410.976C162.399 416.286 158.905 422.699 157.077 429.662C154.094 441.1 144.751 490.329 147.216 491.611C149.681 492.893 172.878 498.193 180.274 497.084C188.754 495.802 195.977 496.246 191.712 491.562C187.448 486.878 165.039 473.788 165.039 473.788C165.039 473.788 189.691 438.142 195.164 424.978C200.636 411.814 201.524 391.452 201.524 391.452L168.441 390.194L167.258 396.974Z" fill="white" stroke="#263238" stroke-width="1.04742" stroke-linecap="round" stroke-linejoin="round"/>
<path d="M180.274 497.084C188.754 495.802 195.977 496.246 191.712 491.562C187.448 486.878 165.039 473.788 165.039 473.788L164.201 478.866L148.054 476.894C146.871 485.128 146.353 491.168 147.216 491.685C149.854 492.868 172.878 498.193 180.274 497.084Z" fill="#263238" stroke="#263238" stroke-width="1.04742" stroke-linecap="round" stroke-linejoin="round"/>
<path d="M248.312 404.222L252.133 411.026C250.55 414.08 249.618 417.429 249.397 420.863C249.176 424.296 249.672 427.737 250.852 430.969C254.673 442.851 263.596 486.558 263.596 489.097C263.596 491.636 269.094 493.337 273.457 493.337C277.82 493.337 289.9 494.176 291.601 494.176C293.302 494.176 305.603 496.296 309.843 493.757C314.083 491.217 304.444 486.115 298.084 483.156C291.724 480.198 277.722 472.556 277.722 472.556C277.722 472.556 281.099 437.748 281.099 422.464C281.099 407.18 284.501 402.102 279.842 392.759C275.183 383.416 245.897 397.024 245.897 397.024L248.312 404.222Z" fill="white" stroke="#263238" stroke-width="1.04742" stroke-linecap="round" stroke-linejoin="round"/>
<path d="M297.961 483.156C291.601 480.173 277.599 472.556 277.599 472.556L275.898 478.916L262.265 481.381C263.079 485.621 263.596 488.53 263.596 489.122C263.596 491.587 269.094 493.362 273.457 493.362C277.82 493.362 289.9 494.2 291.601 494.2C293.302 494.2 305.603 496.32 309.843 493.781C314.083 491.242 304.321 486.114 297.961 483.156Z" fill="#263238" stroke="#263238" stroke-width="1.04742" stroke-linecap="round" stroke-linejoin="round"/>
<path d="M225.46 121.738C222.134 116.053 218.332 110.66 214.096 105.616C208.254 99.0344 189.937 99.4041 181.901 108.082C173.865 116.759 176.404 132.24 179.436 136.628C182.468 141.016 188.582 161.526 188.582 161.526L190.036 176.169L224.08 188.249L217.128 164.46C217.128 164.46 230.317 161.995 231.401 157.878C232.486 153.761 229.207 139.931 229.207 139.931C229.207 139.931 233.595 136.998 233.226 134.434C232.856 131.87 225.46 121.738 225.46 121.738Z" fill="white" stroke="#263238" stroke-width="1.04742" stroke-linecap="round" stroke-linejoin="round"/>
<path d="M186.289 137.516C186.289 137.516 192.107 142.446 195.287 136.801C198.467 131.156 200.883 125.634 200.883 120.851C200.883 116.069 188.927 112.1 196.889 108.895C204.852 105.691 210.595 112.815 214.145 105.666C217.695 98.5171 214.466 97.7529 195.336 97.7529C176.206 97.7529 166.642 107.318 170.684 119.274C173.918 128.103 177.918 136.632 182.641 144.764L186.289 137.516Z" fill="#263238" stroke="#263238" stroke-width="1.04742" stroke-linecap="round" stroke-linejoin="round"/>
<path d="M226.545 130.194C226.545 132.002 226.009 133.771 225.004 135.275C223.999 136.779 222.57 137.951 220.899 138.643C219.228 139.335 217.389 139.516 215.615 139.164C213.841 138.811 212.211 137.94 210.932 136.661C209.653 135.382 208.782 133.752 208.429 131.978C208.076 130.204 208.258 128.365 208.95 126.694C209.642 125.022 210.814 123.594 212.318 122.589C213.822 121.584 215.59 121.048 217.399 121.048C219.825 121.048 222.151 122.011 223.866 123.727C225.581 125.442 226.545 127.768 226.545 130.194V130.194Z" stroke="#263238" stroke-width="1.04742" stroke-linecap="round" stroke-linejoin="round"/>
<path d="M225.214 122.084C226.278 121.648 227.416 121.422 228.566 121.418C230.471 121.421 232.32 122.057 233.825 123.224C235.329 124.391 236.404 126.025 236.881 127.869C237.357 129.713 237.208 131.662 236.458 133.413C235.707 135.163 234.397 136.615 232.733 137.54" stroke="#263238" stroke-width="1.04742" stroke-linecap="round" stroke-linejoin="round"/>
<path d="M208.254 130.194L186.289 137.516" stroke="#263238" stroke-width="1.04742" stroke-linecap="round" stroke-linejoin="round"/>
<path d="M192.6 142.273C192.6 142.273 188.212 133.128 183.824 134.878C179.436 136.628 181.63 151 186.018 152.454C187.492 152.786 189.025 152.76 190.487 152.379C191.95 151.997 193.3 151.271 194.424 150.261C194.424 150.261 198.097 157.952 202.485 160.121" fill="white"/>
<path d="M192.6 142.273C192.6 142.273 188.212 133.128 183.824 134.878C179.436 136.628 181.63 151 186.018 152.454C187.492 152.786 189.025 152.76 190.487 152.379C191.95 151.997 193.3 151.271 194.424 150.261C194.424 150.261 198.097 157.952 202.485 160.121" stroke="#263238" stroke-width="1.04742" stroke-linecap="round" stroke-linejoin="round"/>
<path d="M163.807 306.626L161.07 341.681L152.886 393.572C152.886 393.572 172.016 408.585 189.863 408.585C207.711 408.585 212.617 406.317 212.617 406.317L222.625 353.07L232.634 409.053C232.634 409.053 252.355 405.873 265.421 402.669C274.506 400.141 283.116 396.144 290.91 390.836L264.509 322.107L258.789 286.658C258.789 286.658 229.207 289.395 211.434 290.307C193.66 291.219 170.019 286.658 170.019 286.658L163.807 306.626Z" fill="#E3C392" stroke="#263238" stroke-width="1.04742" stroke-linecap="round" stroke-linejoin="round"/>
<path d="M182.567 166.555C182.567 166.555 224.474 181.173 237.416 195.373C244.565 203.261 252.577 257.248 255.461 270.437C258.346 283.625 263.375 309.879 263.375 309.879C263.375 309.879 237.811 321.416 218.04 321.835C198.27 322.255 160.331 313.183 160.331 313.183C160.331 313.183 164.842 254.684 164.842 227.494C164.842 200.303 165.261 182.554 169.772 173.901C169.797 173.975 177.217 165.717 182.567 166.555Z" fill="#263238" stroke="#263238" stroke-width="1.04742" stroke-linecap="round" stroke-linejoin="round"/>
<path d="M171.547 317.423C171.547 317.423 173.815 355.657 171.547 369.783C169.955 378.896 167.204 387.769 163.363 396.185" stroke="#263238" stroke-width="1.04742" stroke-linecap="round" stroke-linejoin="round"/>
<path d="M172.459 335.64C175.882 334.465 178.941 332.42 181.335 329.706C183.729 326.992 185.377 323.702 186.116 320.159" stroke="#263238" stroke-width="1.04742" stroke-linecap="round" stroke-linejoin="round"/>
<path d="M155.154 386.177C155.154 386.177 177.932 405.75 213.43 398.503" stroke="#263238" stroke-width="1.04742" stroke-linecap="round" stroke-linejoin="round"/>
<path d="M231.648 397.541C231.648 397.541 268.971 393.449 285.364 382.528" stroke="#263238" stroke-width="1.04742" stroke-linecap="round" stroke-linejoin="round"/>
<path d="M398.589 148.855C398.589 148.855 394.99 151.518 382.442 160.688C369.894 169.859 379.779 183.713 379.779 183.713C379.779 183.713 370.806 185.118 358.826 197.715C346.845 210.312 364.175 231.931 380.371 235.309C396.567 238.686 415.5 218.644 421.17 200.057C426.839 181.47 419.345 153.441 415.574 147.648C411.802 141.854 398.589 148.855 398.589 148.855Z" fill="#263238" stroke="#263238" stroke-width="1.04742" stroke-linecap="round" stroke-linejoin="round"/>
<path d="M446.117 146.39C446.117 146.39 452.354 136.751 446.709 122.774C441.063 108.796 424.202 102.412 407.784 112.543C402.312 115.799 398.067 120.771 395.709 126.686C393.351 132.601 393.012 139.128 394.743 145.256C396.345 151.715 404.431 161.649 406.132 161.797C407.833 161.945 422.599 167.319 432.682 162.611C442.764 157.902 446.117 146.39 446.117 146.39Z" fill="#263238" stroke="#263238" stroke-width="1.04742" stroke-linecap="round" stroke-linejoin="round"/>
<path d="M373.567 471.792C373.567 471.792 385.277 490.009 405.614 493.115C425.952 496.221 407.661 477.979 404.234 475.218C400.807 472.457 376.328 466.491 373.567 471.792Z" fill="#737373" stroke="#263238" stroke-width="1.04742" stroke-linecap="round" stroke-linejoin="round"/>
<path d="M481.911 476.475C481.911 476.475 504.27 481.973 502.545 486.804C500.819 491.636 482.601 491.266 471.952 488.505C461.302 485.744 451.294 481.628 452.674 477.166C454.055 472.704 481.911 476.475 481.911 476.475Z" fill="#737373" stroke="#263238" stroke-width="1.04742" stroke-linecap="round" stroke-linejoin="round"/>
<path d="M418.335 182.628C418.335 182.628 388.408 187.016 382.935 197.591C377.462 208.167 385.178 265.778 385.178 265.778C385.178 265.778 372.409 293.955 372.236 312.098C372.064 330.242 380.149 362.166 379.508 370.128C378.867 378.091 370.683 468.735 370.683 471.2C370.683 473.665 387.939 479.187 412.813 482.145C437.686 485.103 485.264 476.253 485.264 476.253C485.264 476.253 484.327 422.759 486.817 390.86C489.307 358.961 485.757 330.291 479.421 318.384C473.086 306.478 443.578 263.608 443.578 263.608C443.578 263.608 457.876 237.675 458.763 226.335C459.651 214.995 455.041 209.079 444.243 196.038C441.035 192.192 437.09 189.024 432.641 186.721C428.192 184.418 423.328 183.027 418.335 182.628Z" fill="#E3C392" stroke="#263238" stroke-width="1.04742" stroke-linecap="round" stroke-linejoin="round"/>
<path d="M443.652 263.633C443.652 263.633 457.95 237.7 458.837 226.36C459.725 215.02 455.115 209.104 444.317 196.063C443.8 195.422 443.257 194.855 442.715 194.264L442.321 194.633C431.227 212.752 394.546 243.715 383.625 252.737C384.463 260.453 385.178 265.778 385.178 265.778C385.178 265.778 372.409 293.955 372.236 312.098C372.441 320.366 373.265 328.606 374.701 336.75C400.61 321.959 435.27 294.275 454.03 278.843C448.163 270.166 443.652 263.633 443.652 263.633Z" fill="#737373" stroke="#263238" stroke-width="1.04742" stroke-linecap="round" stroke-linejoin="round"/>
<path d="M412.813 161.477C413.64 168.242 414.092 175.048 414.169 181.863C413.774 186.917 415.401 198.454 424.029 202.078C432.657 205.702 438.081 200.648 438.056 195.57C437.743 191.376 436.915 187.236 435.591 183.244L435.837 169.316C435.837 169.316 420.948 159.997 412.813 161.477Z" fill="white" stroke="#263238" stroke-width="1.04742" stroke-linecap="round" stroke-linejoin="round"/>
<path d="M405.072 152.43C405.072 152.43 398.737 146.859 398.539 154.895C398.342 162.932 405.738 165.594 407.365 166.136C408.738 166.323 410.131 165.979 411.26 165.175C411.26 165.175 422.747 175.036 431.967 175.676C441.187 176.317 444.934 172.053 447.103 155.314C449.272 138.576 431.992 121.591 431.992 121.591C431.992 121.591 417.201 148.855 405.072 152.43Z" fill="white" stroke="#263238" stroke-width="1.04742" stroke-linecap="round" stroke-linejoin="round"/>
<path d="M264.089 309.534C264.006 306.678 264.474 303.832 265.47 301.153C266.998 297.8 275.331 295.877 277.179 295.236C279.028 294.595 279.965 295.236 279.423 296.987C278.992 297.927 278.374 298.771 277.607 299.466C276.84 300.161 275.94 300.693 274.961 301.029C273.686 301.335 272.539 302.034 271.682 303.026C271.214 303.815 271.51 308.869 269.217 311.013C266.924 313.158 263.325 312.566 264.089 309.534Z" fill="white" stroke="#263238" stroke-width="1.04742" stroke-linecap="round" stroke-linejoin="round"/>
<path d="M453.02 235.407C453.02 235.407 423.438 231.536 410.397 252.194C397.356 272.853 372.976 345.131 327.789 356.767C282.603 368.402 269.685 275.416 242.569 278.005C216.734 280.47 198.689 278.005 183.183 306.403C174.9 321.613 133.485 487.691 113.912 489.392C51.5679 494.84 11.435 491.29 11.435 491.29" stroke="#263238" stroke-width="3.14226" stroke-linecap="round" stroke-linejoin="round"/>
<path d="M184.489 167.738C184.489 167.738 177.661 165.002 168.54 170.45C159.419 175.898 134.866 235.555 136.69 241.939C138.514 248.324 164.448 260.157 179.017 264.249C193.586 268.341 219.988 273.37 219.988 273.37C219.988 273.37 228.172 286.115 230.908 286.559C234.888 286.505 238.852 286.051 242.741 285.203C242.741 285.203 247.671 289.295 249.57 284.735C251.468 280.174 247.745 274.282 243.653 269.722C239.561 265.161 222.256 262.893 222.256 262.893L175.344 230.55L195.065 194.14" fill="#263238"/>
<path d="M184.489 167.738C184.489 167.738 177.661 165.002 168.54 170.45C159.419 175.898 134.866 235.555 136.69 241.939C138.514 248.324 164.448 260.157 179.017 264.249C193.586 268.341 219.988 273.37 219.988 273.37C219.988 273.37 228.172 286.115 230.908 286.559C234.888 286.505 238.852 286.051 242.741 285.203C242.741 285.203 247.671 289.295 249.57 284.735C251.468 280.174 247.745 274.282 243.653 269.722C239.561 265.161 222.256 262.893 222.256 262.893L175.344 230.55L195.065 194.14" stroke="#263238" stroke-width="1.04742" stroke-linecap="round" stroke-linejoin="round"/>
<path d="M230.908 286.535C234.888 286.481 238.852 286.026 242.741 285.179C242.741 285.179 247.672 289.271 249.57 284.71C251.468 280.15 247.745 274.258 243.653 269.697C239.561 265.137 222.256 262.869 222.256 262.869L175.344 230.551L182.345 217.51C164.817 206.589 153.182 207.403 146.896 209.597C140.61 224.684 135.827 238.982 136.665 241.915C138.489 248.3 164.423 260.133 178.992 264.225C193.561 268.317 219.963 273.346 219.963 273.346C219.963 273.346 228.172 286.091 230.908 286.535Z" fill="white" stroke="#263238" stroke-width="1.04742" stroke-linecap="round" stroke-linejoin="round"/>
<path d="M524.139 236.418C522.143 214.898 511.814 197.222 499.488 190.197L499.093 185.809L466.898 188.791C448.779 190.468 436.281 215.341 438.968 244.332C441.655 273.322 458.517 295.434 476.636 293.635L508.831 290.652L508.412 286.264C519.258 277.192 526.136 257.939 524.139 236.418Z" fill="#263238" stroke="#263238" stroke-width="1.04742" stroke-linecap="round" stroke-linejoin="round"/>
<path d="M538.709 235.136C536.613 212.53 526.383 193.918 513.342 186.523L512.898 181.913L499.118 183.195C480.087 184.97 466.948 211.076 469.758 241.545C472.568 272.015 490.317 295.261 509.348 293.486L523.129 292.204L522.71 287.595C534.099 277.882 540.804 257.668 538.709 235.136Z" fill="white" stroke="#263238" stroke-width="1.04742" stroke-linecap="round" stroke-linejoin="round"/>
<path d="M552.513 233.78C555.348 264.249 542.209 290.355 523.153 292.13C504.098 293.905 486.373 270.634 483.489 240.189C480.605 209.745 493.793 183.491 512.824 181.839C531.855 180.187 549.654 203.335 552.513 233.78Z" fill="white" stroke="#263238" stroke-width="1.04742" stroke-linecap="round" stroke-linejoin="round"/>
<path d="M567.304 215.981L513.835 220.912C513.085 220.983 512.329 220.905 511.609 220.684C510.889 220.462 510.221 220.1 509.641 219.619C509.062 219.138 508.583 218.547 508.232 217.881C507.882 217.214 507.666 216.485 507.598 215.735C507.527 214.985 507.604 214.229 507.826 213.509C508.048 212.789 508.41 212.12 508.891 211.541C509.372 210.961 509.963 210.483 510.629 210.132C511.296 209.781 512.025 209.566 512.775 209.498L566.244 204.568C566.994 204.496 567.751 204.574 568.47 204.796C569.19 205.018 569.859 205.379 570.438 205.86C571.018 206.341 571.496 206.932 571.847 207.599C572.198 208.265 572.413 208.994 572.481 209.744C572.552 210.494 572.475 211.251 572.253 211.97C572.031 212.69 571.669 213.359 571.188 213.938C570.707 214.518 570.117 214.997 569.45 215.347C568.784 215.698 568.054 215.913 567.304 215.981Z" fill="#737373" stroke="#263238" stroke-width="1.04742" stroke-linecap="round" stroke-linejoin="round"/>
<path d="M571.273 258.358L517.804 263.288C517.054 263.36 516.298 263.282 515.578 263.06C514.858 262.838 514.19 262.477 513.61 261.996C513.031 261.515 512.552 260.924 512.201 260.257C511.851 259.591 511.635 258.862 511.567 258.112C511.496 257.362 511.573 256.605 511.795 255.886C512.017 255.166 512.379 254.497 512.86 253.918C513.341 253.338 513.932 252.859 514.598 252.509C515.265 252.158 515.994 251.943 516.744 251.875L570.213 246.944C571.725 246.814 573.227 247.284 574.394 248.253C575.562 249.222 576.3 250.612 576.45 252.121C576.521 252.871 576.444 253.627 576.222 254.347C576 255.067 575.638 255.735 575.157 256.315C574.676 256.894 574.086 257.373 573.419 257.724C572.753 258.074 572.023 258.29 571.273 258.358Z" fill="#737373" stroke="#263238" stroke-width="1.04742" stroke-linecap="round" stroke-linejoin="round"/>
<path d="M399.846 186.646C399.846 186.646 386.978 189.112 380.889 196.507C374.8 203.903 362.302 260.971 365.186 267.528C368.07 274.086 414.292 282.319 428.565 283.503C440.042 283.957 451.538 283.445 462.929 281.974C462.929 281.974 475.255 281.654 478.633 281.087C482.01 280.52 488.222 277.192 488.321 275.935C488.419 274.677 487.803 271.67 483.193 271.3C478.583 270.93 468.698 267.627 467.441 267.528C470.403 266.749 473.407 266.14 476.439 265.704C476.439 265.704 477.079 263.239 472.001 263.239C466.923 263.239 462.313 262.894 460.39 265.704C459.016 267.894 457.844 270.204 456.89 272.607C456.89 272.607 428.417 274.603 412.961 267.06C397.504 259.517 392.623 257.002 392.623 257.002L403.716 212.629" fill="#E3C392"/>
<path d="M399.846 186.646C399.846 186.646 386.978 189.112 380.889 196.507C374.8 203.903 362.302 260.971 365.186 267.528C368.07 274.086 414.292 282.319 428.565 283.503C440.042 283.957 451.538 283.445 462.929 281.974C462.929 281.974 475.255 281.654 478.633 281.087C482.01 280.52 488.222 277.192 488.321 275.935C488.419 274.677 487.803 271.67 483.193 271.3C478.583 270.93 468.698 267.627 467.441 267.528C470.403 266.749 473.407 266.14 476.439 265.704C476.439 265.704 477.079 263.239 472.001 263.239C466.923 263.239 462.313 262.894 460.39 265.704C459.016 267.894 457.844 270.204 456.89 272.607C456.89 272.607 428.417 274.603 412.961 267.06C397.504 259.517 392.623 257.002 392.623 257.002L403.716 212.629" stroke="#263238" stroke-width="1.04742" stroke-linecap="round" stroke-linejoin="round"/>
<path d="M478.559 281.161C481.985 280.594 488.148 277.266 488.247 276.009C488.345 274.751 487.729 271.744 483.119 271.374C478.509 271.004 468.624 267.701 467.367 267.602C470.329 266.823 473.333 266.214 476.365 265.778C476.365 265.778 477.006 263.313 471.927 263.313C466.849 263.313 462.239 262.968 460.316 265.778C458.942 267.967 457.77 270.278 456.816 272.681C456.816 272.681 428.343 274.677 412.887 267.134C397.43 259.591 392.549 257.076 392.549 257.076L399.304 229.959C390.511 226.341 381.232 224.04 371.768 223.131C367.158 241.718 363.386 263.609 365.112 267.504C367.971 274.061 414.218 282.295 428.491 283.478C439.969 283.932 451.464 283.421 462.856 281.95C462.856 281.95 475.206 281.728 478.559 281.161Z" fill="white" stroke="#263238" stroke-width="1.04742" stroke-linecap="round" stroke-linejoin="round"/>
<path d="M270.351 304.753C270.351 304.753 260.835 311.877 262.29 316.585C263.744 321.294 271.682 311.655 273.654 308.82C275.626 305.985 274.073 301.696 270.351 304.753Z" fill="white" stroke="#263238" stroke-width="1.04742" stroke-linecap="round" stroke-linejoin="round"/>
<path d="M272.225 311.136C272.225 311.136 262.734 318.261 264.163 322.969C265.593 327.678 273.58 318.039 275.528 315.204C277.475 312.369 275.947 308.03 272.225 311.136Z" fill="white" stroke="#263238" stroke-width="1.04742" stroke-linecap="round" stroke-linejoin="round"/>
<path d="M276.736 315.278C276.736 315.278 267.245 322.402 268.699 327.111C270.154 331.819 278.092 322.181 280.064 319.346C282.036 316.511 280.483 312.172 276.736 315.278Z" fill="white" stroke="#263238" stroke-width="1.04742" stroke-linecap="round" stroke-linejoin="round"/>
<path d="M280.458 318.631C280.458 318.631 272.249 323.906 273.63 327.801C275.01 331.696 281.789 324.325 283.49 322.058C285.191 319.79 283.811 316.141 280.458 318.631Z" fill="white" stroke="#263238" stroke-width="1.04742" stroke-linecap="round" stroke-linejoin="round"/>
<path d="M1118.41 377.838H1138.85L1168.17 224.043L1148.58 219.651L1118.41 377.838Z" fill="#455A64"/>
<path d="M1206.45 329.112L1082.96 301.478L1079.46 298.081L1092.52 251.367L1098.25 251.774L1089.41 246.674L1094.46 219.374L1217.95 247.008L1221.46 250.413L1216.34 277.265L1206.55 277.461L1211.94 278.577L1215.44 281.974L1206.45 329.112Z" fill="#263238"/>
<path d="M1202.95 325.715L1079.46 298.081L1089.02 247.961L1094.75 248.369L1089.97 242.984L1094.46 219.374L1217.95 247.008L1212.83 273.86L1203.06 274.056L1211.94 278.577L1202.95 325.715Z" fill="#455A64"/>
<path d="M1205.7 273.778C1205.7 273.778 1205.6 273.778 1205.4 273.778L1204.54 273.713L1201.21 273.42L1198.81 273.192L1195.96 272.825C1193.93 272.548 1191.59 272.287 1189.04 271.831L1185.01 271.171C1183.61 270.935 1182.17 270.625 1180.67 270.357C1177.67 269.803 1174.48 269.078 1171.13 268.344C1164.43 266.805 1157.1 264.939 1149.44 262.829C1134.14 258.56 1120.34 254.454 1110.28 251.79C1107.77 251.098 1105.49 250.535 1103.51 250.014C1101.53 249.493 1099.75 249.069 1098.37 248.735L1095.12 247.92L1094.28 247.7C1094.18 247.677 1094.08 247.644 1093.99 247.603C1094.09 247.607 1094.19 247.623 1094.28 247.651L1095.14 247.823L1098.4 248.531C1099.83 248.841 1101.56 249.24 1103.56 249.737C1105.56 250.234 1107.86 250.772 1110.38 251.44C1120.45 254.014 1134.27 258.071 1149.57 262.332C1157.22 264.442 1164.54 266.324 1171.23 267.888C1174.58 268.629 1177.76 269.371 1180.76 269.941C1182.26 270.234 1183.7 270.544 1185.09 270.756L1189.1 271.448C1191.65 271.929 1193.97 272.214 1196.01 272.516L1198.85 272.923L1201.24 273.192L1204.56 273.583L1205.42 273.697L1205.7 273.778Z" fill="#263238"/>
<path d="M1211.9 269.501C1211.8 269.442 1211.71 269.377 1211.62 269.306L1210.87 268.695C1210.19 268.165 1209.21 267.326 1207.86 266.332C1204.15 263.515 1200.29 260.946 1196.29 258.641C1190.36 255.245 1184.15 252.447 1177.74 250.283C1169.89 247.669 1161.78 246.05 1153.58 245.46C1144.84 244.767 1136.51 245.688 1128.92 245.875C1125.32 246.013 1121.72 245.934 1118.13 245.639C1110.47 244.956 1102.95 242.974 1095.85 239.765C1094.34 239.089 1093.24 238.519 1092.48 238.136L1091.62 237.663L1091.33 237.492C1091.44 237.522 1091.55 237.566 1091.64 237.623L1092.52 238.046C1093.27 238.421 1094.43 238.967 1095.91 239.61C1100.12 241.434 1104.46 242.849 1108.9 243.839C1111.95 244.52 1115.05 244.993 1118.16 245.256C1121.74 245.526 1125.33 245.589 1128.91 245.443C1136.47 245.232 1144.83 244.295 1153.61 244.987C1161.84 245.582 1169.99 247.223 1177.87 249.875C1184.29 252.073 1190.52 254.915 1196.45 258.364C1200.44 260.69 1204.29 263.297 1207.97 266.169C1209.27 267.179 1210.22 268.051 1210.9 268.613L1211.65 269.265C1211.74 269.337 1211.82 269.416 1211.9 269.501Z" fill="#263238"/>
<path d="M1152.21 233.582C1152.02 233.675 1151.83 233.749 1151.63 233.802L1149.94 234.347C1149.18 234.592 1148.3 234.861 1147.24 235.121C1146.18 235.382 1144.99 235.741 1143.63 236.001C1142.28 236.262 1140.82 236.612 1139.22 236.816C1137.62 237.02 1135.92 237.305 1134.12 237.525C1130.21 237.935 1126.27 238.1 1122.34 238.022C1118.41 237.908 1114.49 237.557 1110.6 236.971C1108.81 236.661 1107.11 236.392 1105.53 236.018C1103.95 235.643 1102.52 235.317 1101.16 234.958C1099.8 234.6 1098.64 234.233 1097.59 233.907C1096.55 233.582 1095.65 233.28 1094.93 233.011L1093.26 232.384C1093.06 232.32 1092.87 232.238 1092.69 232.14C1092.89 232.165 1093.09 232.215 1093.29 232.286L1094.98 232.824C1095.73 233.068 1096.61 233.354 1097.66 233.639C1098.71 233.924 1099.92 234.315 1101.23 234.616C1102.55 234.918 1104.02 235.309 1105.6 235.61C1107.18 235.912 1108.87 236.221 1110.66 236.514C1114.53 237.071 1118.43 237.406 1122.34 237.517C1126.26 237.591 1130.17 237.439 1134.07 237.06C1135.86 236.848 1137.56 236.677 1139.15 236.4C1140.74 236.123 1142.21 235.887 1143.56 235.586C1144.91 235.284 1146.11 235.024 1147.17 234.771C1148.23 234.519 1149.14 234.29 1149.88 234.079L1151.58 233.631C1151.79 233.589 1152 233.573 1152.21 233.582Z" fill="#263238"/>
<path d="M1119.33 281.371C1119.33 281.371 1119.53 281.485 1119.89 281.729L1121.52 282.813C1122.94 283.75 1125.04 285.183 1127.83 286.805C1131.2 288.834 1134.82 290.35 1138.57 291.31C1139.71 291.583 1140.85 291.773 1142.01 291.88C1143.22 292.044 1144.45 291.756 1145.48 291.065C1145.99 290.663 1146.35 290.09 1146.52 289.436C1146.69 288.76 1146.69 288.051 1146.52 287.375C1146.13 285.962 1145.29 284.743 1144.15 283.929C1134.74 277.167 1121.48 272.238 1106.47 271.782C1104.6 271.717 1102.71 271.717 1100.79 271.782C1098.86 271.847 1096.91 272.336 1095.62 273.884C1095.3 274.249 1095.04 274.681 1094.87 275.153C1094.7 275.626 1094.62 276.131 1094.64 276.637C1094.71 277.673 1095.07 278.659 1095.69 279.456C1096.9 281.134 1098.64 282.299 1100.32 283.53C1107.09 288.499 1114.26 293.436 1122.32 296.858C1130.38 300.28 1138.95 301.819 1147.02 300.524C1149.01 300.205 1150.97 299.703 1152.88 299.025C1154.77 298.448 1156.46 297.294 1157.75 295.701C1158.91 294.044 1159.52 292.017 1159.49 289.941C1159.49 287.906 1159.08 285.896 1158.27 284.059C1156.63 280.534 1154.11 277.574 1151 275.513C1148.08 273.554 1144.9 272.069 1141.58 271.106C1138.38 270.104 1135.22 269.387 1132.2 268.662L1123.49 266.527L1097.24 260.067L1090.11 258.283L1088.26 257.81C1087.84 257.704 1087.63 257.631 1087.63 257.631L1088.27 257.761L1090.13 258.185L1097.28 259.879L1123.57 266.185L1132.27 268.287C1135.28 269.028 1138.47 269.729 1141.69 270.731C1145.05 271.697 1148.26 273.193 1151.22 275.171C1154.4 277.27 1156.97 280.289 1158.65 283.888C1159.49 285.786 1159.92 287.863 1159.92 289.966C1159.95 292.147 1159.31 294.278 1158.1 296.019C1156.75 297.686 1154.99 298.897 1153.03 299.506C1151.09 300.201 1149.1 300.71 1147.08 301.029C1138.91 302.349 1130.24 300.776 1122.15 297.347C1114.07 293.917 1106.85 288.98 1100.1 283.986C1098.43 282.731 1096.65 281.542 1095.37 279.774C1094.7 278.899 1094.29 277.816 1094.22 276.678C1094.21 276.11 1094.3 275.544 1094.49 275.014C1094.68 274.484 1094.96 274 1095.33 273.59C1096.02 272.784 1096.9 272.188 1097.88 271.863C1098.82 271.555 1099.8 271.38 1100.79 271.342C1102.73 271.261 1104.63 271.269 1106.51 271.342C1121.61 271.839 1134.9 276.809 1144.38 283.668C1145.57 284.534 1146.45 285.825 1146.85 287.318C1147.03 288.05 1147.03 288.818 1146.85 289.55C1146.67 290.267 1146.26 290.894 1145.7 291.326C1144.61 292.058 1143.32 292.365 1142.04 292.198C1140.87 292.08 1139.71 291.882 1138.56 291.603C1134.79 290.615 1131.17 289.063 1127.8 286.992C1125 285.363 1122.92 283.88 1121.51 282.919C1120.82 282.438 1120.28 282.104 1119.91 281.794C1119.55 281.485 1119.33 281.371 1119.33 281.371Z" fill="#263238"/>
<path d="M1209.5 290.064C1209.25 290.034 1209 289.983 1208.75 289.909C1208.28 289.771 1207.58 289.624 1206.69 289.453C1204.13 289.057 1201.54 289.079 1198.99 289.518C1195.21 290.206 1191.55 291.485 1188.12 293.315C1183.94 295.624 1179.91 298.226 1176.04 301.103C1172.15 303.997 1168.08 306.583 1163.85 308.843C1160.36 310.643 1156.64 311.852 1152.81 312.427C1150.23 312.804 1147.6 312.724 1145.04 312.191C1144.35 312.042 1143.66 311.846 1142.99 311.604C1142.76 311.535 1142.53 311.443 1142.3 311.327C1142.54 311.368 1142.78 311.428 1143.02 311.507C1143.48 311.653 1144.18 311.816 1145.07 312.004C1147.62 312.454 1150.21 312.479 1152.76 312.077C1156.55 311.459 1160.22 310.229 1163.67 308.427C1167.87 306.154 1171.92 303.568 1175.79 300.688C1179.67 297.798 1183.73 295.196 1187.94 292.899C1191.41 291.066 1195.12 289.808 1198.94 289.168C1201.52 288.755 1204.15 288.788 1206.72 289.266C1207.43 289.394 1208.14 289.571 1208.83 289.795C1209.06 289.862 1209.29 289.952 1209.5 290.064Z" fill="#263238"/>
<path d="M1207.21 303.327C1207.21 303.376 1206.63 303.115 1205.55 302.855C1204.02 302.495 1202.44 302.44 1200.89 302.692C1198.6 303.112 1196.36 303.857 1194.25 304.908C1191.63 306.145 1189.1 307.58 1186.68 309.201C1184.06 310.879 1181.56 312.517 1179.15 313.763C1177.04 314.894 1174.82 315.76 1172.53 316.346C1170.98 316.727 1169.39 316.897 1167.81 316.851C1167.38 316.839 1166.95 316.799 1166.52 316.729C1166.37 316.721 1166.22 316.691 1166.08 316.639C1166.08 316.582 1166.7 316.639 1167.81 316.639C1169.38 316.614 1170.94 316.395 1172.46 315.987C1174.71 315.357 1176.9 314.467 1178.97 313.331C1181.34 312.077 1183.81 310.439 1186.43 308.753C1188.88 307.115 1191.44 305.68 1194.09 304.459C1196.25 303.411 1198.52 302.69 1200.86 302.317C1202.44 302.09 1204.05 302.201 1205.6 302.643C1206.01 302.765 1206.42 302.915 1206.82 303.091C1206.96 303.149 1207.1 303.229 1207.21 303.327Z" fill="#263238"/>
<path d="M1167.47 235.822C1167.47 235.961 1162.71 234.95 1156.89 233.565C1151.08 232.181 1146.36 230.95 1146.42 230.82C1146.47 230.69 1151.18 231.692 1156.99 233.077C1162.8 234.462 1167.47 235.692 1167.47 235.822Z" fill="#263238"/>
<path d="M1133.26 266.732L1129.39 265.82L1128.31 271.213L1121.12 269.526L1122.21 264.125L1108.45 260.866L1109.5 255.669L1124.71 240.825L1132.34 242.617L1118.42 256.597L1123.69 257.836L1124.65 253.045L1131.61 254.675L1130.65 259.473L1134.51 260.386L1133.26 266.732Z" fill="white"/>
<path d="M1136.5 258.381C1138.36 249.061 1144.27 244.865 1150.92 246.43C1157.57 247.994 1161.3 254.487 1159.43 263.79C1157.56 273.094 1151.64 277.314 1145.03 275.75C1138.42 274.186 1134.62 267.685 1136.5 258.381ZM1152.03 262.047C1153.22 256.132 1151.96 253.509 1149.62 252.955C1147.28 252.401 1145.11 254.21 1143.89 260.124C1142.67 266.039 1143.97 268.67 1146.35 269.233C1148.73 269.795 1150.85 267.97 1152.03 262.047Z" fill="white"/>
<path d="M1184.77 278.879L1180.9 277.966L1179.82 283.368L1172.63 281.649L1173.72 276.247L1159.96 272.988L1161.01 267.791L1176.21 252.947L1183.84 254.764L1169.93 268.736L1175.2 269.982L1176.16 265.184L1183.11 266.813L1182.15 271.604L1186.01 272.516L1184.77 278.879Z" fill="white"/>
<path d="M1127.75 286.724L1127.37 288.492L1119.54 286.536L1121.98 275.229L1129.61 277.159L1129.22 278.919L1123.55 277.477L1122.91 280.418L1127.95 281.705L1127.58 283.432L1122.53 282.153L1121.85 285.274L1127.75 286.724Z" fill="white"/>
<path d="M1136.37 290.772L1134.96 286.919C1134.82 286.898 1134.68 286.868 1134.55 286.829L1132.19 286.234L1131.47 289.493L1129.53 289.004L1131.98 277.688L1136.28 278.78C1139.02 279.481 1140.4 281.428 1139.86 283.937C1139.72 284.721 1139.35 285.437 1138.81 285.978C1138.27 286.519 1137.58 286.858 1136.85 286.943L1138.45 291.269L1136.37 290.772ZM1135.8 280.572L1133.55 279.994L1132.57 284.507L1134.83 285.078C1136.53 285.509 1137.59 284.89 1137.9 283.448C1138.21 282.006 1137.5 281.004 1135.8 280.572Z" fill="white"/>
<path d="M1147.27 293.542L1145.86 289.689C1145.72 289.667 1145.59 289.637 1145.45 289.599L1143.1 288.98L1142.35 292.28L1140.41 291.783L1142.85 280.467L1147.15 281.558C1149.9 282.259 1151.27 284.206 1150.73 286.715C1150.59 287.5 1150.22 288.216 1149.68 288.758C1149.14 289.299 1148.45 289.637 1147.72 289.722L1149.31 294.048L1147.27 293.542ZM1146.72 283.343L1144.46 282.764L1143.48 287.278L1145.74 287.848C1147.44 288.28 1148.5 287.66 1148.81 286.218C1149.12 284.776 1148.42 283.774 1146.72 283.343Z" fill="white"/>
<path d="M1151.83 288.728C1152.58 285.388 1155.48 283.522 1158.71 284.345C1161.95 285.168 1163.81 288.231 1163.08 291.587C1162.35 294.944 1159.44 296.801 1156.2 295.979C1152.97 295.156 1151.11 292.076 1151.83 288.728ZM1161.13 291.09C1161.3 290.306 1161.25 289.484 1160.98 288.731C1160.72 287.977 1160.26 287.324 1159.65 286.856C1159.05 286.387 1158.33 286.123 1157.58 286.098C1156.84 286.072 1156.11 286.286 1155.48 286.712C1154.84 287.139 1154.34 287.758 1154.04 288.492C1153.73 289.226 1153.63 290.043 1153.76 290.837C1153.88 291.632 1154.21 292.37 1154.72 292.957C1155.23 293.545 1155.89 293.955 1156.62 294.137C1157.1 294.274 1157.6 294.304 1158.09 294.223C1158.58 294.142 1159.06 293.953 1159.48 293.668C1159.9 293.383 1160.26 293.007 1160.55 292.564C1160.83 292.12 1161.03 291.619 1161.13 291.09Z" fill="white"/>
<path d="M1170.75 299.507L1169.34 295.653L1168.93 295.564L1166.57 294.969L1165.86 298.228L1163.92 297.739L1166.37 286.423L1170.66 287.515C1173.41 288.215 1174.79 290.162 1174.24 292.671C1174.1 293.455 1173.74 294.17 1173.2 294.711C1172.65 295.252 1171.97 295.591 1171.24 295.678L1172.84 300.004L1170.75 299.507ZM1170.19 289.299L1167.93 288.728L1166.96 293.234L1169.21 293.812C1170.92 294.244 1171.98 293.625 1172.29 292.183C1172.6 290.741 1171.89 289.73 1170.19 289.299Z" fill="white"/>
</svg>
